{
    "asset" : {
        "generator" : "Khronos glTF Blender I/O v3.4.50",
        "version" : "2.0"
    },
    "scene" : 0,
    "scenes" : [
        {
            "name" : "Scene",
            "nodes" : [
                0,
                1,
                2,
                3,
                4,
                5,
                6,
                7,
                8,
                9,
                10,
                11,
                12,
                13,
                14
            ]
        }
    ],
    "nodes" : [
        {
            "mesh" : 0,
            "name" : "Arrival.004",
            "rotation" : [
                0.70710688829422,
                0,
                0,
                0.7071066498756409
            ]
        },
        {
            "mesh" : 1,
            "name" : "Arrival.001",
            "rotation" : [
                0.70710688829422,
                0,
                0,
                0.7071066498756409
            ]
        },
        {
            "name" : "Arrival.002",
            "rotation" : [
                0.70710688829422,
                0,
                0,
                0.7071066498756409
            ]
        },
        {
            "mesh" : 2,
            "name" : "Hanger 7A",
            "rotation" : [
                0.70710688829422,
                0,
                0,
                0.7071066498756409
            ]
        },
        {
            "name" : "Arrival.005",
            "rotation" : [
                0.70710688829422,
                0,
                0,
                0.7071066498756409
            ]
        },
        {
            "name" : "Arrival.006",
            "rotation" : [
                0.70710688829422,
                0,
                0,
                0.7071066498756409
            ]
        },
        {
            "name" : "Arrival.007",
            "rotation" : [
                0.70710688829422,
                0,
                0,
                0.7071066498756409
            ]
        },
        {
            "name" : "Arrival.008",
            "rotation" : [
                0.70710688829422,
                0,
                0,
                0.7071066498756409
            ]
        },
        {
            "mesh" : 3,
            "name" : "Arrival.009",
            "rotation" : [
                0.70710688829422,
                0,
                0,
                0.7071066498756409
            ]
        },
        {
            "mesh" : 4,
            "name" : "Arrival.010",
            "rotation" : [
                0.70710688829422,
                0,
                0,
                0.7071066498756409
            ]
        },
        {
            "mesh" : 5,
            "name" : "Observation Deck",
            "rotation" : [
                0.70710688829422,
                0,
                0,
                0.7071066498756409
            ]
        },
        {
            "mesh" : 6,
            "name" : "Arrival.012",
            "rotation" : [
                0.70710688829422,
                0,
                0,
                0.7071066498756409
            ]
        },
        {
            "mesh" : 7,
            "name" : "Arrival.013",
            "rotation" : [
                0.70710688829422,
                0,
                0,
                0.7071066498756409
            ]
        },
        {
            "mesh" : 8,
            "name" : "Arrival.014",
            "rotation" : [
                0.70710688829422,
                0,
                0,
                0.7071066498756409
            ]
        },
        {
            "mesh" : 9,
            "name" : "Arrival.003",
            "rotation" : [
                0.70710688829422,
                0,
                0,
                0.7071066498756409
            ],
            "translation" : [
                26.04883575439453,
                3.745002508163452,
                9.894454002380371
            ]
        }
    ],
    "meshes" : [
        {
            "name" : "Arrival.004",
            "primitives" : [
                {
                    "attributes" : {
                        "POSITION" : 0,
                        "NORMAL" : 1
                    },
                    "indices" : 2
                }
            ]
        },
        {
            "name" : "Arrival.007",
            "primitives" : [
                {
                    "attributes" : {
                        "POSITION" : 3,
                        "NORMAL" : 4
                    },
                    "indices" : 5
                }
            ]
        },
        {
            "name" : "Arrival.009",
            "primitives" : [
                {
                    "attributes" : {
                        "POSITION" : 6,
                        "NORMAL" : 7
                    },
                    "indices" : 8
                }
            ]
        },
        {
            "name" : "Arrival.014",
            "primitives" : [
                {
                    "attributes" : {
                        "POSITION" : 9,
                        "NORMAL" : 10
                    },
                    "indices" : 11
                }
            ]
        },
        {
            "name" : "Arrival.015",
            "primitives" : [
                {
                    "attributes" : {
                        "POSITION" : 12,
                        "NORMAL" : 13
                    },
                    "indices" : 14
                }
            ]
        },
        {
            "name" : "Arrival.016",
            "primitives" : [
                {
                    "attributes" : {
                        "POSITION" : 15,
                        "NORMAL" : 16
                    },
                    "indices" : 17
                }
            ]
        },
        {
            "name" : "Arrival.017",
            "primitives" : [
                {
                    "attributes" : {
                        "POSITION" : 18,
                        "NORMAL" : 19
                    },
                    "indices" : 20
                }
            ]
        },
        {
            "name" : "Arrival.019",
            "primitives" : [
                {
                    "attributes" : {
                        "POSITION" : 21,
                        "NORMAL" : 22
                    },
                    "indices" : 23
                }
            ]
        },
        {
            "name" : "Arrival.020",
            "primitives" : [
                {
                    "attributes" : {
                        "POSITION" : 24,
                        "NORMAL" : 25
                    },
                    "indices" : 26
                }
            ]
        },
        {
            "name" : "Arrival.001",
            "primitives" : [
                {
                    "attributes" : {
                        "POSITION" : 27,
                        "NORMAL" : 28
                    },
                    "indices" : 29
                }
            ]
        }
    ],
    "accessors" : [
        {
            "bufferView" : 0,
            "componentType" : 5126,
            "count" : 400,
            "max" : [
                15.849079132080078,
                21.294452667236328,
                2.4928879737854004
            ],
            "min" : [
                -14.150928497314453,
                10.494453430175781,
                -8.649468421936035
            ],
            "type" : "VEC3"
        },
        {
            "bufferView" : 1,
            "componentType" : 5126,
            "count" : 400,
            "type" : "VEC3"
        },
        {
            "bufferView" : 2,
            "componentType" : 5123,
            "count" : 738,
            "type" : "SCALAR"
        },
        {
            "bufferView" : 3,
            "componentType" : 5126,
            "count" : 753,
            "max" : [
                4.160793304443359,
                -8.3636474609375,
                4.892889022827148
            ],
            "min" : [
                -25.40093231201172,
                -26.849191665649414,
                -12.86570930480957
            ],
            "type" : "VEC3"
        },
        {
            "bufferView" : 4,
            "componentType" : 5126,
            "count" : 753,
            "type" : "VEC3"
        },
        {
            "bufferView" : 5,
            "componentType" : 5123,
            "count" : 1272,
            "type" : "SCALAR"
        },
        {
            "bufferView" : 6,
            "componentType" : 5126,
            "count" : 529,
            "max" : [
                0.8045425415039062,
                11.694450378417969,
                5.853826522827148
            ],
            "min" : [
                -25.77593231201172,
                -10.055553436279297,
                -4.704770088195801
            ],
            "type" : "VEC3"
        },
        {
            "bufferView" : 7,
            "componentType" : 5126,
            "count" : 529,
            "type" : "VEC3"
        },
        {
            "bufferView" : 8,
            "componentType" : 5123,
            "count" : 906,
            "type" : "SCALAR"
        },
        {
            "bufferView" : 9,
            "componentType" : 5126,
            "count" : 403,
            "max" : [
                25.367046356201172,
                36.57804870605469,
                1.295231580734253
            ],
            "min" : [
                10.224075317382812,
                16.302265167236328,
                -6.8657073974609375
            ],
            "type" : "VEC3"
        },
        {
            "bufferView" : 10,
            "componentType" : 5126,
            "count" : 403,
            "type" : "VEC3"
        },
        {
            "bufferView" : 11,
            "componentType" : 5123,
            "count" : 678,
            "type" : "SCALAR"
        },
        {
            "bufferView" : 12,
            "componentType" : 5126,
            "count" : 271,
            "max" : [
                15.443607330322266,
                16.316326141357422,
                1.295231580734253
            ],
            "min" : [
                0.8045425415039062,
                0.8756980895996094,
                -1.585237979888916
            ],
            "type" : "VEC3"
        },
        {
            "bufferView" : 13,
            "componentType" : 5126,
            "count" : 271,
            "type" : "VEC3"
        },
        {
            "bufferView" : 14,
            "componentType" : 5123,
            "count" : 486,
            "type" : "SCALAR"
        },
        {
            "bufferView" : 15,
            "componentType" : 5126,
            "count" : 221,
            "max" : [
                18.581890106201172,
                0.7280426025390625,
                4.890544891357422
            ],
            "min" : [
                0.7225112915039062,
                -9.18602180480957,
                -12.86570930480957
            ],
            "type" : "VEC3"
        },
        {
            "bufferView" : 16,
            "componentType" : 5126,
            "count" : 221,
            "type" : "VEC3"
        },
        {
            "bufferView" : 17,
            "componentType" : 5123,
            "count" : 396,
            "type" : "SCALAR"
        },
        {
            "bufferView" : 18,
            "componentType" : 5126,
            "count" : 429,
            "max" : [
                25.486576080322266,
                -7.964927673339844,
                4.890544891357422
            ],
            "min" : [
                9.593608856201172,
                -20.616493225097656,
                -12.86570930480957
            ],
            "type" : "VEC3"
        },
        {
            "bufferView" : 19,
            "componentType" : 5126,
            "count" : 429,
            "type" : "VEC3"
        },
        {
            "bufferView" : 20,
            "componentType" : 5123,
            "count" : 726,
            "type" : "SCALAR"
        },
        {
            "bufferView" : 21,
            "componentType" : 5126,
            "count" : 1059,
            "max" : [
                27.849079132080078,
                24.294456481933594,
                1.5342941284179688
            ],
            "min" : [
                6.249073028564453,
                -15.00555419921875,
                -8.649468421936035
            ],
            "type" : "VEC3"
        },
        {
            "bufferView" : 22,
            "componentType" : 5126,
            "count" : 1059,
            "type" : "VEC3"
        },
        {
            "bufferView" : 23,
            "componentType" : 5123,
            "count" : 1950,
            "type" : "SCALAR"
        },
        {
            "bufferView" : 24,
            "componentType" : 5126,
            "count" : 477,
            "max" : [
                2.6537628173828125,
                -0.6805496215820312,
                3.9342947006225586
            ],
            "min" : [
                -35.62202835083008,
                -21.504776000976562,
                -12.86570930480957
            ],
            "type" : "VEC3"
        },
        {
            "bufferView" : 25,
            "componentType" : 5126,
            "count" : 477,
            "type" : "VEC3"
        },
        {
            "bufferView" : 26,
            "componentType" : 5123,
            "count" : 774,
            "type" : "SCALAR"
        },
        {
            "bufferView" : 27,
            "componentType" : 5126,
            "count" : 110,
            "max" : [
                3.0002479553222656,
                0.6000012755393982,
                6.764159202575684
            ],
            "min" : [
                -7.799755096435547,
                -4.200002670288086,
                -1.440234661102295
            ],
            "type" : "VEC3"
        },
        {
            "bufferView" : 28,
            "componentType" : 5126,
            "count" : 110,
            "type" : "VEC3"
        },
        {
            "bufferView" : 29,
            "componentType" : 5123,
            "count" : 180,
            "type" : "SCALAR"
        }
    ],
    "bufferViews" : [
        {
            "buffer" : 0,
            "byteLength" : 4800,
            "byteOffset" : 0,
            "target" : 34962
        },
        {
            "buffer" : 0,
            "byteLength" : 4800,
            "byteOffset" : 4800,
            "target" : 34962
        },
        {
            "buffer" : 0,
            "byteLength" : 1476,
            "byteOffset" : 9600,
            "target" : 34963
        },
        {
            "buffer" : 0,
            "byteLength" : 9036,
            "byteOffset" : 11076,
            "target" : 34962
        },
        {
            "buffer" : 0,
            "byteLength" : 9036,
            "byteOffset" : 20112,
            "target" : 34962
        },
        {
            "buffer" : 0,
            "byteLength" : 2544,
            "byteOffset" : 29148,
            "target" : 34963
        },
        {
            "buffer" : 0,
            "byteLength" : 6348,
            "byteOffset" : 31692,
            "target" : 34962
        },
        {
            "buffer" : 0,
            "byteLength" : 6348,
            "byteOffset" : 38040,
            "target" : 34962
        },
        {
            "buffer" : 0,
            "byteLength" : 1812,
            "byteOffset" : 44388,
            "target" : 34963
        },
        {
            "buffer" : 0,
            "byteLength" : 4836,
            "byteOffset" : 46200,
            "target" : 34962
        },
        {
            "buffer" : 0,
            "byteLength" : 4836,
            "byteOffset" : 51036,
            "target" : 34962
        },
        {
            "buffer" : 0,
            "byteLength" : 1356,
            "byteOffset" : 55872,
            "target" : 34963
        },
        {
            "buffer" : 0,
            "byteLength" : 3252,
            "byteOffset" : 57228,
            "target" : 34962
        },
        {
            "buffer" : 0,
            "byteLength" : 3252,
            "byteOffset" : 60480,
            "target" : 34962
        },
        {
            "buffer" : 0,
            "byteLength" : 972,
            "byteOffset" : 63732,
            "target" : 34963
        },
        {
            "buffer" : 0,
            "byteLength" : 2652,
            "byteOffset" : 64704,
            "target" : 34962
        },
        {
            "buffer" : 0,
            "byteLength" : 2652,
            "byteOffset" : 67356,
            "target" : 34962
        },
        {
            "buffer" : 0,
            "byteLength" : 792,
            "byteOffset" : 70008,
            "target" : 34963
        },
        {
            "buffer" : 0,
            "byteLength" : 5148,
            "byteOffset" : 70800,
            "target" : 34962
        },
        {
            "buffer" : 0,
            "byteLength" : 5148,
            "byteOffset" : 75948,
            "target" : 34962
        },
        {
            "buffer" : 0,
            "byteLength" : 1452,
            "byteOffset" : 81096,
            "target" : 34963
        },
        {
            "buffer" : 0,
            "byteLength" : 12708,
            "byteOffset" : 82548,
            "target" : 34962
        },
        {
            "buffer" : 0,
            "byteLength" : 12708,
            "byteOffset" : 95256,
            "target" : 34962
        },
        {
            "buffer" : 0,
            "byteLength" : 3900,
            "byteOffset" : 107964,
            "target" : 34963
        },
        {
            "buffer" : 0,
            "byteLength" : 5724,
            "byteOffset" : 111864,
            "target" : 34962
        },
        {
            "buffer" : 0,
            "byteLength" : 5724,
            "byteOffset" : 117588,
            "target" : 34962
        },
        {
            "buffer" : 0,
            "byteLength" : 1548,
            "byteOffset" : 123312,
            "target" : 34963
        },
        {
            "buffer" : 0,
            "byteLength" : 1320,
            "byteOffset" : 124860,
            "target" : 34962
        },
        {
            "buffer" : 0,
            "byteLength" : 1320,
            "byteOffset" : 126180,
            "target" : 34962
        },
        {
            "buffer" : 0,
            "byteLength" : 360,
            "byteOffset" : 127500,
            "target" : 34963
        }
    ],
    "buffers" : [
        {
            "byteLength" : 127860,
            "uri" : "Arrival.bin"
        }
    ]
}
