# Created by Kenney (www.kenney.nl)

mtllib detail_umbrella.mtl

g detail_umbrella

v 0 0.35 -0.2
v 0 0.45 -0.036
v -0.1732051 0.35 -0.1
v -0.03117692 0.45 -0.018
v 0.1732051 0.35 -0.1
v 0.1732051 0.3 -0.1
v 0.1732051 0.35 0.1
v 0.1732051 0.3 0.1
v 0 0.3 0.2
v -0.1732051 0.3 0.1
v 0 0.35 0.2
v -0.1732051 0.35 0.1
v -0.1732051 0.3 -0.1
v -0.03117692 0.45 0.018
v 0 0.3 -0.2
v 0.03117692 0.45 -0.018
v 0.03117692 0.45 0.018
v 0 0.45 0.036
v 0.0125 0.3 0.0125
v -0.0125 0.3 0.0125
v -0.0125 0.3 -0.0125
v 0.0125 0.3 -0.0125
v -0.0125 0 -0.0125
v -0.0125 0 0.0125
v 0.0125 0 -0.0125
v 0.0125 0 0.0125
v 0.16 0.12 1.443823E-15
v 0.1131371 0.12 0.1131371
v 0.1131371 0.12 -0.1131371
v 7.219114E-16 0.12 -0.16
v 7.219114E-16 0.12 0.16
v -0.1131371 0.12 -0.1131371
v -0.1131371 0.12 0.1131371
v -0.16 0.12 1.443823E-15
v -0.1131371 0.1 -0.1131371
v -0.16 0.1 1.443823E-15
v 0.1131371 0.1 0.1131371
v 7.219114E-16 0.1 0.16
v -0.1131371 0.1 0.1131371
v 7.219114E-16 0.1 -0.16
v 0.16 0.1 1.443823E-15
v 0.1131371 0.1 -0.1131371

vn -0.2878512 0.8176594 -0.4985728
vn 1 0 0
vn -0.5 0 0.8660254
vn -1 0 0
vn -0.5757023 0.8176594 0
vn -0.5 0 -0.8660254
vn 0.5 0 -0.8660254
vn 0 1 0
vn 0 -1 0
vn 0.5 0 0.8660254
vn 0.5757023 0.8176594 0
vn -0.2878512 0.8176594 0.4985728
vn 0.2878512 0.8176594 -0.4985728
vn 0.2878512 0.8176594 0.4985728
vn 0 0 -1
vn 0 0 1
vn -0.9238795 0 -0.3826834
vn 0.3826834 0 0.9238795
vn -0.9238795 0 0.3826834
vn -0.3826834 0 0.9238795
vn -0.3826834 0 -0.9238795
vn 0.3826834 0 -0.9238795
vn 0.9238795 0 -0.3826834
vn 0.9238795 0 0.3826834

vt -3.937008 2.357206
vt -0.7086614 9.195824
vt 3.937008 2.357206
vt 0.7086614 9.195824
vt 3.937008 13.77953
vt 3.937008 11.81102
vt -3.937008 13.77953
vt -3.937008 11.81102
vt -1.227438 -0.7086614
vt -1.227438 0.7086614
vt 0 -1.417323
vt 0 1.417323
vt 1.227438 -0.7086614
vt 1.227438 0.7086614
vt 6.819098 3.937008
vt 6.819098 -3.937008
vt 0 7.874016
vt 0.492126 0.492126
vt -0.492126 0.492126
vt -6.819098 3.937008
vt -0.492126 -0.492126
vt 0.492126 -0.492126
vt 0 -7.874016
vt -6.819098 -3.937008
vt -0.492126 0
vt -0.492126 11.81102
vt 0.492126 0
vt 0.492126 11.81102
vt -6.299212 5.684342E-14
vt -4.454216 4.454216
vt -4.454216 -4.454216
vt -2.842171E-14 -6.299212
vt -2.842171E-14 6.299212
vt 4.454216 -4.454216
vt 4.454216 4.454216
vt 6.299212 5.684342E-14

usemtl roof

f 3/3/1 2/2/1 1/1/1
f 2/2/1 3/3/1 4/4/1
f 7/7/2 6/6/2 5/5/2
f 6/6/2 7/7/2 8/8/2
f 11/5/3 10/8/3 9/6/3
f 10/8/3 11/5/3 12/7/3
f 10/6/4 3/7/4 13/8/4
f 3/7/4 10/6/4 12/5/4
f 3/1/5 14/4/5 4/2/5
f 14/4/5 3/1/5 12/3/5
f 3/5/6 15/8/6 13/6/6
f 15/8/6 3/5/6 1/7/6
f 1/5/7 6/8/7 15/6/7
f 6/8/7 1/5/7 5/7/7
f 2/11/8 17/10/8 16/9/8
f 17/10/8 2/11/8 18/12/8
f 18/12/8 2/11/8 4/13/8
f 18/12/8 4/13/8 14/14/8
f 9/17/9 6/16/9 8/15/9
f 6/16/9 9/17/9 19/18/9
f 19/18/9 9/17/9 20/19/9
f 20/19/9 9/17/9 10/20/9
f 20/19/9 10/20/9 21/21/9
f 22/22/9 6/16/9 19/18/9
f 6/16/9 22/22/9 15/23/9
f 15/23/9 22/22/9 21/21/9
f 15/23/9 21/21/9 13/24/9
f 13/24/9 21/21/9 10/20/9
f 7/5/10 9/8/10 8/6/10
f 9/8/10 7/5/10 11/7/10
f 16/4/11 7/1/11 5/3/11
f 7/1/11 16/4/11 17/2/11
f 14/2/12 11/3/12 18/4/12
f 11/3/12 14/2/12 12/1/12
f 1/3/13 16/2/13 5/1/13
f 16/2/13 1/3/13 2/4/13
f 17/4/14 11/1/14 7/3/14
f 11/1/14 17/4/14 18/2/14

usemtl pavement

f 24/27/4 21/26/4 23/25/4
f 21/26/4 24/27/4 20/28/4
f 21/28/15 25/25/15 23/27/15
f 25/25/15 21/28/15 22/26/15
f 24/19/9 25/22/9 26/18/9
f 25/22/9 24/19/9 23/21/9
f 19/26/2 25/27/2 22/28/2
f 25/27/2 19/26/2 26/25/2
f 19/28/16 24/25/16 26/27/16
f 24/25/16 19/28/16 20/26/16
f 29/31/8 28/30/8 27/29/8
f 28/30/8 29/31/8 30/32/8
f 28/30/8 30/32/8 31/33/8
f 31/33/8 30/32/8 32/34/8
f 31/33/8 32/34/8 33/35/8
f 33/35/8 32/34/8 34/36/8

usemtl _defaultMat

f 36/35/17 32/34/17 35/36/17
f 32/35/17 36/34/17 34/36/17
f 28/35/18 38/34/18 37/36/18
f 38/35/18 28/34/18 31/36/18
f 39/35/19 34/34/19 36/36/19
f 34/35/19 39/34/19 33/36/19
f 31/35/20 39/34/20 38/36/20
f 39/35/20 31/34/20 33/36/20
f 32/35/21 40/34/21 35/36/21
f 40/35/21 32/34/21 30/36/21
f 37/35/9 42/34/9 41/36/9
f 42/35/9 37/34/9 38/36/9
f 42/35/9 38/34/9 40/36/9
f 40/35/9 38/34/9 39/36/9
f 40/35/9 39/34/9 35/36/9
f 35/35/9 39/34/9 36/36/9
f 30/35/22 42/34/22 40/36/22
f 42/35/22 30/34/22 29/36/22
f 27/35/23 42/34/23 29/36/23
f 42/35/23 27/34/23 41/36/23
f 28/35/24 41/34/24 27/36/24
f 41/35/24 28/34/24 37/36/24

