# Created by Kenney (www.kenney.nl)

mtllib detail_overhang.mtl

g detail_overhang

v 0.22 0.3 -0.05
v -0.22 0.3 -0.05
v 0.22 0.4 -0.05
v -0.22 0.4 -0.05
v -0.22 0.4 -0.25
v -0.22 0.4 -0.08
v -0.25 0.4 -0.25
v -0.2412132 0.4 -0.05878679
v -0.25 0.4 -0.08
v 0.22 0.4 -0.08
v 0.22 0.4 -0.25
v 0.2412132 0.4 -0.05878679
v 0.25 0.4 -0.08
v 0.25 0.4 -0.25
v 0.25 0.3 -0.25
v 0.25 0.3 -0.08
v -0.25 0.3 -0.25
v -0.25 0.3 -0.08
v 0.2412132 0.3 -0.05878679
v -0.22 0.35 -0.08
v 0.22 0.35 -0.08
v -0.19 8.707976E-17 -0.08
v -0.19 8.707976E-17 -0.11
v -0.22 8.707976E-17 -0.08
v -0.22 8.707976E-17 -0.11
v -0.22 0.35 -0.25
v 0.22 0.35 -0.25
v -0.2412132 0.3 -0.05878679
v 0.22 0.3 -0.08
v 0.19 0.3 -0.08
v 0.19 0.3 -0.11
v -0.19 0.3 -0.08
v -0.22 0.3 -0.08
v -0.22 0.3 -0.11
v 0.22 0.3 -0.11
v -0.19 0.3 -0.11
v 0.22 -3.159169E-18 -0.08
v 0.22 -3.159169E-18 -0.11
v 0.19 -3.159169E-18 -0.08
v 0.19 -3.159169E-18 -0.11

vn 0 0 1
vn 0 1 0
vn 1 0 0
vn -1 0 0
vn 0.7071068 0 0.7071068
vn 0.3826834 0 0.9238795
vn 0 0 -1
vn 0 -1 0
vn 0.9238795 0 0.3826834
vn -0.3826834 0 0.9238795
vn -0.7071068 0 0.7071068
vn -0.9238795 0 0.3826834

vt 0 0
vt -8.661417 11.81102
vt -7.480315 11.81102
vt -8.661417 3.428337E-15
vt 3.149606 3.428337E-15
vt 3.149606 11.81102
vt 4.330709 3.428337E-15
vt 8.661417 -3.149606
vt 8.661417 -9.84252
vt -8.661417 -3.149606
vt 3.149606 -1.243767E-16
vt 4.330709 -1.243767E-16
vt 7.480315 11.81102
vt 8.661417 11.81102
vt 7.480315 3.428337E-15
vt -7.480315 3.428337E-15
vt 8.661417 -1.243767E-16
vt 7.480315 -1.243767E-16
vt 4.330709 11.81102
vt -7.480315 -1.243767E-16
vt -8.661417 -1.243767E-16
vt -8.661417 -9.84252
vt -4.330709 -1.243767E-16
vt -4.330709 11.81102
vt -3.149606 -1.243767E-16
vt -3.149606 11.81102
vt -4.330709 3.428337E-15
vt -3.149606 3.428337E-15
vt 8.661417 3.428337E-15

usemtl _defaultMat

f 3/1/1 2/1/1 1/1/1
f 2/1/1 3/1/1 4/1/1
f 7/1/2 6/1/2 5/1/2
f 6/1/2 7/1/2 4/1/2
f 4/1/2 7/1/2 8/1/2
f 8/1/2 7/1/2 9/1/2
f 3/1/2 6/1/2 4/1/2
f 3/1/2 10/1/2 6/1/2
f 3/1/2 11/1/2 10/1/2
f 12/1/2 11/1/2 3/1/2
f 13/1/2 11/1/2 12/1/2
f 11/1/2 13/1/2 14/1/2
f 13/1/3 15/1/3 14/1/3
f 15/1/3 13/1/3 16/1/3
f 18/1/4 7/1/4 17/1/4
f 7/1/4 18/1/4 9/1/4
f 12/4/5 1/3/6 19/2/5
f 1/4/6 12/3/5 3/2/6
f 6/4/7 21/3/7 20/2/7
f 21/4/7 6/3/7 10/2/7
f 24/4/8 23/3/8 22/2/8
f 23/4/8 24/3/8 25/2/8
f 6/4/3 26/3/3 5/2/3
f 26/4/3 6/3/3 20/2/3
f 17/7/7 26/6/7 15/5/7
f 26/7/7 17/6/7 7/5/7
f 26/7/7 7/6/7 5/5/7
f 15/7/7 27/6/7 14/5/7
f 27/7/7 15/6/7 26/5/7
f 14/7/7 27/6/7 11/5/7
f 12/7/5 16/6/9 13/5/9
f 16/7/9 12/6/5 19/5/5
f 4/10/10 28/9/11 2/8/10
f 28/10/11 4/9/10 8/8/11
f 1/12/8 29/6/8 19/11/8
f 29/12/8 1/6/8 30/11/8
f 30/12/8 1/6/8 2/11/8
f 30/12/8 2/6/8 31/11/8
f 31/12/8 2/6/8 32/11/8
f 32/12/8 2/6/8 33/11/8
f 33/12/8 2/6/8 28/11/8
f 33/12/8 28/6/8 34/11/8
f 19/12/8 15/6/8 16/11/8
f 15/12/8 19/6/8 35/11/8
f 15/12/8 35/6/8 17/11/8
f 35/12/8 19/6/8 29/11/8
f 17/12/8 35/6/8 31/11/8
f 17/12/8 31/6/8 36/11/8
f 36/12/8 31/6/8 32/11/8
f 17/12/8 36/6/8 34/11/8
f 17/12/8 34/6/8 28/11/8
f 17/12/8 28/6/8 18/11/8
f 21/12/4 11/6/4 27/11/4
f 11/12/4 21/6/4 10/11/4
f 28/12/11 9/6/12 18/11/12
f 9/12/12 28/6/11 8/11/11
f 39/15/8 38/14/8 37/13/8
f 38/15/8 39/14/8 40/13/8

usemtl door

f 32/3/1 24/4/1 22/16/1
f 24/4/1 32/3/1 33/2/1
f 29/14/1 39/18/1 37/17/1
f 39/18/1 29/14/1 30/13/1
f 32/6/3 23/7/3 36/19/3
f 23/7/3 32/6/3 22/5/3
f 31/3/7 38/21/7 40/20/7
f 38/21/7 31/3/7 35/2/7
f 26/9/2 21/10/2 27/22/2
f 21/10/2 26/9/2 20/8/2
f 39/25/4 31/24/4 40/23/4
f 31/24/4 39/25/4 30/26/4
f 24/28/4 34/24/4 25/27/4
f 34/24/4 24/28/4 33/26/4
f 29/6/3 38/12/3 35/19/3
f 38/12/3 29/6/3 37/11/3
f 34/14/7 23/15/7 25/29/7
f 23/15/7 34/14/7 36/13/7

