# Created by Kenney (www.kenney.nl)

mtllib low_buildingI.mtl

g low_buildingI

v 0.25 1 -0.25
v 0.25 0 -0.25
v 0.25 1 0.25
v 0.25 0 0.25
v 0.2 1 -0.2
v -0.25 1 -0.25
v -0.2 1 -0.2
v -0.2 1 0.2
v 0.2 1 0.2
v -0.25 1 0.25
v -0.25 0 0.25
v -0.25 0 -0.25
v 0.25 1.5 -0.25
v 0.25 1.05 -0.25
v 0.25 1.5 0.25
v 0.25 1.05 0.25
v 0.2 1.5 -0.2
v -0.25 1.5 -0.25
v -0.2 1.5 -0.2
v -0.2 1.5 0.2
v -0.25 1.5 0.25
v 0.2 1.5 0.2
v -0.25 1.05 -0.25
v -0.25 1.05 0.25
v 0.2 1.45 -0.2
v 0.2 1.45 0.2
v -0.2 1.45 0.2
v -0.2 1.45 -0.2
v 0.2 1.05 0.2
v -0.2 1.05 0.2
v -0.2 1.05 -0.2
v 0.2 1.05 -0.2
v 0.0625 1.6 -0.0875
v 0.0875 1.6 -0.0875
v 0.0625 1.75 -0.0875
v 0.0875 1.75 -0.0875
v 0.15 1.6 -0.15
v 0.15 1.45 -0.15
v 0.15 1.6 -7.219114E-16
v 0.15 1.45 -7.219114E-16
v 0.0875 1.75 -0.0625
v 0.0625 1.75 -0.0625
v 0 1.45 -0.15
v 0 1.6 -0.15
v 0.0875 1.6 -0.0625
v 0.0625 1.6 -0.0625
v 0 1.6 -7.219114E-16
v 0 1.45 -7.219114E-16

vn 1 0 0
vn 0 1 0
vn 0 0 1
vn -1 0 0
vn 0 -1 0
vn 0 0 -1

vt 0 0
vt 7.874016 41.33858
vt 7.874016 39.37008
vt -7.874016 41.33858
vt 7.874016 -7.874016
vt 0 -2.842171E-14
vt 7.874016 7.874016
vt -7.874016 39.37008
vt -7.874016 7.874016
vt -5.905512 -5.905512
vt -7.874016 -7.874016
vt 0 -5.905512
vt -5.905512 -2.842171E-14

usemtl _defaultMat

f 3/1/1 2/1/1 1/1/1
f 2/1/1 3/1/1 4/1/1
f 1/1/2 5/1/2 3/1/2
f 5/1/2 1/1/2 6/1/2
f 5/1/2 6/1/2 7/1/2
f 7/1/2 6/1/2 8/1/2
f 9/1/2 3/1/2 5/1/2
f 3/1/2 9/1/2 10/1/2
f 10/1/2 9/1/2 8/1/2
f 10/1/2 8/1/2 6/1/2
f 3/1/3 11/1/3 4/1/3
f 11/1/3 3/1/3 10/1/3
f 11/1/4 6/1/4 12/1/4
f 6/1/4 11/1/4 10/1/4
f 11/1/5 2/1/5 4/1/5
f 2/1/5 11/1/5 12/1/5
f 6/1/6 2/1/6 12/1/6
f 2/1/6 6/1/6 1/1/6
f 15/4/1 14/3/1 13/2/1
f 14/4/1 15/3/1 16/2/1
f 13/4/2 17/3/2 15/2/2
f 17/4/2 13/3/2 18/2/2
f 17/4/2 18/3/2 19/2/2
f 19/4/2 18/3/2 20/2/2
f 15/4/2 22/3/2 21/2/2
f 22/4/2 15/3/2 17/2/2
f 21/4/2 22/3/2 20/2/2
f 21/4/2 20/3/2 18/2/2
f 24/4/4 18/3/4 23/2/4
f 18/4/4 24/3/4 21/2/4
f 15/4/3 24/3/3 16/2/3
f 24/4/3 15/3/3 21/2/3
f 26/7/4 17/6/4 25/5/4
f 17/7/4 26/6/4 22/5/4
f 20/8/6 26/2/6 27/4/6
f 26/8/6 20/2/6 22/4/6
f 20/8/1 28/2/1 19/4/1
f 28/8/1 20/2/1 27/4/1
f 18/8/6 14/2/6 23/4/6
f 14/8/6 18/2/6 13/4/6
f 16/8/5 29/2/5 14/4/5
f 29/8/5 16/2/5 24/4/5
f 29/8/5 24/2/5 30/4/5
f 30/8/5 24/2/5 31/4/5
f 14/8/5 32/2/5 23/4/5
f 32/8/5 14/2/5 29/4/5
f 23/8/5 32/2/5 31/4/5
f 23/8/5 31/2/5 24/4/5
f 17/8/3 28/2/3 25/4/3
f 28/8/3 17/2/3 19/4/3
f 35/8/6 34/2/6 33/4/6
f 34/8/6 35/2/6 36/4/6
f 39/8/1 38/2/1 37/4/1
f 38/8/1 39/2/1 40/4/1
f 35/8/2 41/2/2 36/4/2
f 41/8/2 35/2/2 42/4/2
f 44/8/6 38/2/6 43/4/6
f 38/8/6 44/2/6 37/4/6
f 41/8/3 46/2/3 45/4/3
f 46/8/3 41/2/3 42/4/3
f 37/8/2 34/2/2 39/4/2
f 34/8/2 37/2/2 44/4/2
f 34/8/2 44/2/2 33/4/2
f 33/8/2 44/2/2 46/4/2
f 39/8/2 45/2/2 47/4/2
f 45/8/2 39/2/2 34/4/2
f 47/8/2 45/2/2 46/4/2
f 47/8/2 46/2/2 44/4/2
f 46/8/4 35/2/4 33/4/4
f 35/8/4 46/2/4 42/4/4
f 41/8/1 34/2/1 36/4/1
f 34/8/1 41/2/1 45/4/1
f 39/8/3 48/2/3 40/4/3
f 48/8/3 39/2/3 47/4/3
f 48/8/4 44/2/4 43/4/4
f 44/8/4 48/2/4 47/4/4

usemtl border

f 8/3/4 31/4/4 7/8/4
f 31/4/4 8/3/4 30/2/4
f 29/4/1 5/3/1 32/2/1
f 5/3/1 29/4/1 9/8/1
f 29/2/3 8/8/3 9/3/3
f 8/8/3 29/2/3 30/4/3
f 25/11/2 38/10/2 26/9/2
f 38/10/2 25/11/2 28/5/2
f 38/10/2 28/5/2 43/12/2
f 43/12/2 28/5/2 48/6/2
f 40/13/2 26/9/2 38/10/2
f 26/9/2 40/13/2 27/7/2
f 27/7/2 40/13/2 48/6/2
f 27/7/2 48/6/2 28/5/2
f 31/2/6 5/8/6 7/3/6
f 5/8/6 31/2/6 32/4/6

