# Created by Kenney (www.kenney.nl)

mtllib low_buildingN.mtl

g low_buildingN

v 0.175 2.1 -0.175
v 0.175 2.1 -0.075
v 0.075 2.1 -0.175
v 0.075 2.1 -0.075
v 0.175 2.05 -0.175
v 0.175 2.05 -0.075
v 0.075 2.05 -0.075
v 0.075 2.05 -0.175
v -0.25 1.1 -0.25
v -0.25 1.25 -0.25
v -0.25 1.1 0.25
v -0.25 1.25 0.25
v 0.25 1.35 0.25
v -0.25 1.35 0.25
v 0.25 1.5 0.25
v -0.25 1.5 0.25
v 0.25 1.1 0.25
v 0.25 1.25 0.25
v 0.25 1.1 -0.25
v 0.25 1.25 -0.25
v 0.25 1.35 -0.25
v 0.225 1.35 0.225
v -0.225 1.35 0.225
v -0.225 1.35 -0.225
v -0.25 1.35 -0.25
v 0.225 1.35 -0.225
v 0.225 1.5 -0.225
v 0.25 1.5 -0.25
v -0.25 1.5 -0.25
v -0.225 1.5 -0.225
v -0.225 1.5 0.225
v 0.225 1.5 0.225
v 0.225 1.1 0.225
v -0.225 1.1 0.225
v -0.225 1.1 -0.225
v 0.225 1.1 -0.225
v 0.225 1.25 -0.225
v -0.225 1.25 -0.225
v -0.225 1.25 0.225
v 0.225 1.25 0.225
v 0.25 2.1 0.25
v 0.2 2.1 -0.2
v 0.25 2.1 -0.25
v -0.25 2.1 -0.25
v -0.2 2.1 -0.2
v -0.2 2.1 0.2
v -0.25 2.1 0.25
v 0.2 2.1 0.2
v -0.2 2.05 0.2
v 0.2 2.05 0.2
v 0.2 2.05 -0.2
v -0.2 2.05 -0.2
v 0.25 0.1 0.25
v -0.25 0.1 0.25
v 0.25 0.5 0.25
v -0.25 0.5 0.25
v 0.225 0.5 -0.225
v 0.25 0.5 -0.25
v -0.25 0.5 -0.25
v -0.225 0.5 -0.225
v -0.225 0.5 0.225
v 0.225 0.5 0.225
v 0.25 0.1 -0.25
v 0.2 0.1 0.2
v -0.2 0.1 0.2
v -0.2 0.1 -0.2
v -0.25 0.1 -0.25
v 0.2 0.1 -0.2
v -0.2 0 -0.2
v -0.2 0 0.2
v 0.2 0 0.2
v 0.2 0 -0.2
v 0.25 1.75 -0.25
v 0.25 1.6 -0.25
v 0.25 1.75 0.25
v 0.25 1.6 0.25
v -0.25 1.6 -0.25
v -0.25 1.75 -0.25
v -0.25 1.6 0.25
v -0.25 1.75 0.25
v 0.225 1.75 -0.225
v -0.225 1.75 -0.225
v -0.225 1.75 0.225
v 0.225 1.75 0.225
v 0.25 1.85 0.25
v -0.25 1.85 0.25
v 0.25 1.85 -0.25
v 0.225 1.6 0.225
v -0.225 1.6 0.225
v -0.225 1.6 -0.225
v 0.225 1.6 -0.225
v -0.25 1.85 -0.25
v 0.225 1.85 0.225
v -0.225 1.85 0.225
v -0.225 1.85 -0.225
v 0.225 1.85 -0.225
v -0.075 2.1 -0.175
v -0.075 2.1 -0.075
v -0.175 2.1 -0.175
v -0.175 2.1 -0.075
v -0.175 2.05 -0.175
v -0.075 2.05 -0.175
v -0.175 2.05 -0.075
v -0.075 2.05 -0.075
v -0.25 0.6 -0.25
v -0.25 0.75 -0.25
v -0.25 0.6 0.25
v -0.25 0.75 0.25
v 0.25 1 0.25
v 0.225 1 -0.225
v 0.25 1 -0.25
v -0.25 1 -0.25
v -0.225 1 -0.225
v -0.225 1 0.225
v -0.25 1 0.25
v 0.225 1 0.225
v 0.25 0.85 -0.25
v 0.25 0.85 0.25
v 0.25 0.6 0.25
v 0.25 0.75 0.25
v 0.225 0.75 -0.225
v 0.25 0.75 -0.25
v -0.225 0.75 -0.225
v -0.225 0.75 0.225
v 0.225 0.75 0.225
v 0.25 0.6 -0.25
v 0.225 0.6 0.225
v -0.225 0.6 0.225
v -0.225 0.6 -0.225
v 0.225 0.6 -0.225
v 0.225 0.85 0.225
v -0.25 0.85 0.25
v -0.225 0.85 0.225
v -0.225 0.85 -0.225
v -0.25 0.85 -0.25
v 0.225 0.85 -0.225

vn 0 1 0
vn 1 0 0
vn 0 0 1
vn 0 0 -1
vn -1 0 0
vn 0 -1 0

vt 0 0
vt -8.858268 43.30709
vt 8.858268 43.30709
vt -8.858268 39.37008
vt -8.858268 53.1496
vt 8.858268 53.1496
vt -8.858268 49.2126
vt 8.858268 49.2126
vt 8.858268 39.37008
vt 7.874016 -7.874016
vt 6.889764 -2.952756
vt 7.874016 7.874016
vt -8.858268 72.83465
vt 8.858268 72.83465
vt -8.858268 68.89764
vt 8.858268 68.89764
vt -8.858268 59.05512
vt -8.858268 62.99213
vt 8.858268 59.05512
vt 8.858268 62.99213
vt -8.858268 33.46457
vt 8.858268 33.46457
vt -8.858268 29.52756
vt -8.858268 23.62205
vt 8.858268 23.62205
vt -8.858268 19.68504
vt 8.858268 29.52756
vt 8.858268 19.68504
vt -7.874016 7.874016
vt -6.889764 -6.889764
vt -7.874016 -7.874016
vt -2.952756 -6.889764
vt 2.952756 -6.889764
vt -2.952756 -2.952756
vt 6.889764 -6.889764
vt -6.889764 -2.952756
vt 2.952756 -2.952756

usemtl _defaultMat

f 3/1/1 2/1/1 1/1/1
f 2/1/1 3/1/1 4/1/1
f 2/1/2 5/1/2 1/1/2
f 5/1/2 2/1/2 6/1/2
f 2/1/3 7/1/3 6/1/3
f 7/1/3 2/1/3 4/1/3
f 3/1/4 5/1/4 8/1/4
f 5/1/4 3/1/4 1/1/4
f 7/1/5 3/1/5 8/1/5
f 3/1/5 7/1/5 4/1/5
f 11/4/5 10/3/5 9/2/5
f 10/4/5 11/3/5 12/2/5
f 15/7/3 14/6/3 13/5/3
f 14/7/3 15/6/3 16/5/3
f 18/7/3 11/6/3 17/5/3
f 11/7/3 18/6/3 12/5/3
f 10/5/4 19/8/4 9/6/4
f 19/5/4 10/8/4 20/6/4
f 18/2/2 19/9/2 20/3/2
f 19/2/2 18/9/2 17/3/2
f 13/4/6 22/3/6 21/2/6
f 22/4/6 13/3/6 14/2/6
f 22/4/6 14/3/6 23/2/6
f 23/4/6 14/3/6 24/2/6
f 21/4/6 26/3/6 25/2/6
f 26/4/6 21/3/6 22/2/6
f 25/4/6 26/3/6 24/2/6
f 25/4/6 24/3/6 14/2/6
f 28/4/1 27/3/1 15/2/1
f 27/4/1 28/3/1 29/2/1
f 27/4/1 29/3/1 30/2/1
f 30/4/1 29/3/1 31/2/1
f 15/4/1 32/3/1 16/2/1
f 32/4/1 15/3/1 27/2/1
f 16/4/1 32/3/1 31/2/1
f 16/4/1 31/3/1 29/2/1
f 29/8/4 21/5/4 25/7/4
f 21/8/4 29/5/4 28/7/4
f 14/8/5 29/5/5 25/7/5
f 29/8/5 14/5/5 16/7/5
f 15/8/2 21/5/2 28/7/2
f 21/8/2 15/5/2 13/7/2
f 17/7/6 33/6/6 19/5/6
f 33/7/6 17/6/6 11/5/6
f 33/7/6 11/6/6 34/5/6
f 34/7/6 11/6/6 35/5/6
f 19/7/6 36/6/6 9/5/6
f 36/7/6 19/6/6 33/5/6
f 9/7/6 36/6/6 35/5/6
f 9/7/6 35/6/6 11/5/6
f 20/7/1 37/6/1 18/5/1
f 37/7/1 20/6/1 10/5/1
f 37/7/1 10/6/1 38/5/1
f 38/7/1 10/6/1 39/5/1
f 18/7/1 40/6/1 12/5/1
f 40/7/1 18/6/1 37/5/1
f 12/7/1 40/6/1 39/5/1
f 12/7/1 39/6/1 10/5/1
f 43/7/1 42/6/1 41/5/1
f 42/7/1 43/6/1 44/5/1
f 42/7/1 44/6/1 45/5/1
f 45/7/1 44/6/1 46/5/1
f 41/7/1 48/6/1 47/5/1
f 48/7/1 41/6/1 42/5/1
f 47/7/1 48/6/1 46/5/1
f 47/7/1 46/6/1 44/5/1
f 46/7/4 50/6/4 49/5/4
f 50/7/4 46/6/4 48/5/4
f 42/7/3 52/6/3 51/5/3
f 52/7/3 42/6/3 45/5/3
f 50/7/5 42/6/5 51/5/5
f 42/7/5 50/6/5 48/5/5
f 46/12/2 52/11/2 45/10/2
f 52/12/2 46/11/2 49/10/2
f 55/12/3 54/11/3 53/10/3
f 54/12/3 55/11/3 56/10/3
f 58/12/1 57/11/1 55/10/1
f 57/12/1 58/11/1 59/10/1
f 57/12/1 59/11/1 60/10/1
f 60/12/1 59/11/1 61/10/1
f 55/12/1 62/11/1 56/10/1
f 62/12/1 55/11/1 57/10/1
f 56/12/1 62/11/1 61/10/1
f 56/12/1 61/11/1 59/10/1
f 53/12/6 64/11/6 63/10/6
f 64/12/6 53/11/6 54/10/6
f 64/12/6 54/11/6 65/10/6
f 65/12/6 54/11/6 66/10/6
f 63/12/6 68/11/6 67/10/6
f 68/12/6 63/11/6 64/10/6
f 67/12/6 68/11/6 66/10/6
f 67/12/6 66/11/6 54/10/6
f 70/12/5 66/11/5 69/10/5
f 66/12/5 70/11/5 65/10/5
f 70/12/6 72/11/6 71/10/6
f 72/12/6 70/11/6 69/10/6
f 54/12/5 59/11/5 67/10/5
f 59/12/5 54/11/5 56/10/5
f 64/12/3 70/11/3 71/10/3
f 70/12/3 64/11/3 65/10/3
f 55/12/2 63/11/2 58/10/2
f 63/12/2 55/11/2 53/10/2
f 66/12/4 72/11/4 69/10/4
f 72/12/4 66/11/4 68/10/4
f 59/12/4 63/11/4 67/10/4
f 63/12/4 59/11/4 58/10/4
f 64/12/2 72/11/2 68/10/2
f 72/12/2 64/11/2 71/10/2
f 75/15/2 74/14/2 73/13/2
f 74/15/2 75/14/2 76/13/2
f 79/15/5 78/14/5 77/13/5
f 78/15/5 79/14/5 80/13/5
f 73/15/1 81/14/1 75/13/1
f 81/15/1 73/14/1 78/13/1
f 81/15/1 78/14/1 82/13/1
f 82/15/1 78/14/1 83/13/1
f 75/15/1 84/14/1 80/13/1
f 84/15/1 75/14/1 81/13/1
f 80/15/1 84/14/1 83/13/1
f 80/15/1 83/14/1 78/13/1
f 41/13/3 86/16/3 85/14/3
f 86/13/3 41/16/3 47/14/3
f 75/19/3 79/18/3 76/17/3
f 79/19/3 75/18/3 80/17/3
f 41/19/2 87/18/2 43/17/2
f 87/19/2 41/18/2 85/17/2
f 78/19/4 74/18/4 77/17/4
f 74/19/4 78/18/4 73/17/4
f 76/19/6 88/18/6 74/17/6
f 88/19/6 76/18/6 79/17/6
f 88/19/6 79/18/6 89/17/6
f 89/19/6 79/18/6 90/17/6
f 74/19/6 91/18/6 77/17/6
f 91/19/6 74/18/6 88/17/6
f 77/19/6 91/18/6 90/17/6
f 77/19/6 90/18/6 79/17/6
f 44/19/4 87/18/4 92/17/4
f 87/19/4 44/18/4 43/17/4
f 86/18/5 44/19/5 92/20/5
f 44/18/5 86/19/5 47/20/5
f 85/18/6 93/19/6 87/20/6
f 93/18/6 85/19/6 86/20/6
f 93/18/6 86/19/6 94/20/6
f 94/18/6 86/19/6 95/20/6
f 87/18/6 96/19/6 92/20/6
f 96/18/6 87/19/6 93/20/6
f 92/18/6 96/19/6 95/20/6
f 92/18/6 95/19/6 86/20/6
f 99/17/1 98/20/1 97/18/1
f 98/17/1 99/20/1 100/18/1
f 99/17/4 102/20/4 101/18/4
f 102/17/4 99/20/4 97/18/4
f 103/17/5 99/20/5 101/18/5
f 99/17/5 103/20/5 100/18/5
f 98/17/3 103/20/3 104/18/3
f 103/17/3 98/20/3 100/18/3
f 98/17/2 102/20/2 97/18/2
f 102/17/2 98/20/2 104/18/2
f 107/23/5 106/22/5 105/21/5
f 106/23/5 107/22/5 108/21/5
f 111/26/1 110/25/1 109/24/1
f 110/26/1 111/25/1 112/24/1
f 110/26/1 112/25/1 113/24/1
f 113/26/1 112/25/1 114/24/1
f 109/26/1 116/25/1 115/24/1
f 116/26/1 109/25/1 110/24/1
f 115/26/1 116/25/1 114/24/1
f 115/26/1 114/25/1 112/24/1
f 109/21/2 117/27/2 111/22/2
f 117/21/2 109/27/2 118/22/2
f 120/21/3 107/27/3 119/22/3
f 107/21/3 120/27/3 108/22/3
f 122/21/1 121/27/1 120/22/1
f 121/21/1 122/27/1 106/22/1
f 121/21/1 106/27/1 123/22/1
f 123/21/1 106/27/1 124/22/1
f 120/21/1 125/27/1 108/22/1
f 125/21/1 120/27/1 121/22/1
f 108/21/1 125/27/1 124/22/1
f 108/21/1 124/27/1 106/22/1
f 120/21/2 126/27/2 122/22/2
f 126/21/2 120/27/2 119/22/2
f 119/21/6 127/27/6 126/22/6
f 127/21/6 119/27/6 107/22/6
f 127/21/6 107/27/6 128/22/6
f 128/21/6 107/27/6 129/22/6
f 126/21/6 130/27/6 105/22/6
f 130/21/6 126/27/6 127/22/6
f 105/21/6 130/27/6 129/22/6
f 105/21/6 129/27/6 107/22/6
f 106/21/4 126/27/4 105/22/4
f 126/21/4 106/27/4 122/22/4
f 118/28/6 131/24/6 117/26/6
f 131/28/6 118/24/6 132/26/6
f 131/28/6 132/24/6 133/26/6
f 133/28/6 132/24/6 134/26/6
f 117/28/6 136/24/6 135/26/6
f 136/28/6 117/24/6 131/26/6
f 135/28/6 136/24/6 134/26/6
f 135/28/6 134/24/6 132/26/6
f 112/28/4 117/24/4 135/26/4
f 117/28/4 112/24/4 111/26/4
f 132/28/5 112/24/5 135/26/5
f 112/28/5 132/24/5 115/26/5
f 109/28/3 132/24/3 118/26/3
f 132/28/3 109/24/3 115/26/3

usemtl border

f 33/3/3 114/4/3 116/9/3
f 114/4/3 33/3/3 34/2/3
f 22/6/3 39/7/3 40/8/3
f 39/7/3 22/6/3 23/5/3
f 39/8/5 24/5/5 38/7/5
f 24/5/5 39/8/5 23/6/5
f 33/2/2 110/9/2 36/3/2
f 110/9/2 33/2/2 116/4/2
f 114/9/5 35/2/5 113/4/5
f 35/2/5 114/9/5 34/3/5
f 35/3/4 110/4/4 113/9/4
f 110/4/4 35/3/4 36/2/4
f 22/5/2 37/8/2 26/6/2
f 37/8/2 22/5/2 40/7/2
f 24/6/4 37/7/4 38/8/4
f 37/7/4 24/6/4 26/5/4
f 51/31/1 5/30/1 50/29/1
f 5/30/1 51/31/1 52/10/1
f 5/30/1 52/10/1 8/32/1
f 8/32/1 52/10/1 102/33/1
f 8/32/1 102/33/1 7/34/1
f 102/33/1 52/10/1 101/35/1
f 101/35/1 52/10/1 103/11/1
f 6/36/1 50/29/1 5/30/1
f 50/29/1 6/36/1 49/12/1
f 49/12/1 6/36/1 7/34/1
f 49/12/1 103/11/1 52/10/1
f 49/12/1 7/34/1 104/37/1
f 104/37/1 7/34/1 102/33/1
f 49/12/1 104/37/1 103/11/1
f 93/13/2 81/16/2 96/14/2
f 81/16/2 93/13/2 84/15/2
f 93/14/3 83/15/3 84/16/3
f 83/15/3 93/14/3 94/13/3
f 95/14/4 81/15/4 82/16/4
f 81/15/4 95/14/4 96/13/4
f 83/16/5 95/13/5 82/15/5
f 95/13/5 83/16/5 94/14/5
f 88/18/2 27/19/2 91/20/2
f 27/19/2 88/18/2 32/17/2
f 31/19/5 90/18/5 30/17/5
f 90/18/5 31/19/5 89/20/5
f 88/20/3 31/17/3 32/19/3
f 31/17/3 88/20/3 89/18/3
f 90/20/4 27/17/4 30/19/4
f 27/17/4 90/20/4 91/18/4
f 134/22/4 121/23/4 123/27/4
f 121/23/4 134/22/4 136/21/4
f 129/25/4 57/26/4 60/28/4
f 57/26/4 129/25/4 130/24/4
f 131/22/3 124/23/3 125/27/3
f 124/23/3 131/22/3 133/21/3
f 131/21/2 121/27/2 136/22/2
f 121/27/2 131/21/2 125/23/2
f 124/27/5 134/21/5 123/23/5
f 134/21/5 124/27/5 133/22/5
f 127/24/2 57/28/2 130/25/2
f 57/28/2 127/24/2 62/26/2
f 127/25/3 61/26/3 62/28/3
f 61/26/3 127/25/3 128/24/3
f 61/28/5 129/24/5 60/26/5
f 129/24/5 61/28/5 128/25/5

