# Created by Kenney (www.kenney.nl)

mtllib low_buildingA.mtl

g low_buildingA

v 0.25 0.5 -0.25
v 0.25 0 -0.25
v 0.25 0.5 0.25
v 0.25 0 0.25
v -0.25 0 0.25
v -0.25 0.5 0.25
v -0.125 1.804779E-16 0.25
v -0.125 0.5 0.25
v -0.05 2.165734E-15 0.2
v -0.05 2.165734E-15 0.15
v -0.125 9.926282E-16 0.2
v 0.125 1.804779E-16 0.25
v 0.125 6.316725E-16 0.2
v -0.25 0 -0.25
v 0.05 1.804779E-15 0.15
v 0.05 1.804779E-15 0.2
v 0.125 0.5 0.2
v 0.125 0.5 0.25
v -0.125 0.5 0.2
v -0.25 0.5 -0.25
v 0.15 1 0.15
v 0.05 1 0.15
v 0.15 1.5 0.15
v -0.05 1 0.15
v -0.15 1 0.15
v -0.15 1.5 0.15
v -0.15 1 -0.15
v 0.15 1 -0.15
v -0.15 1.5 -0.15
v 0.15 1.5 -0.15
v -0.1 1.475 0.1
v 0.1 1.475 0.1
v -0.1 1.5 0.1
v 0.1 1.5 0.1
v 0.1 1.475 -0.1
v 0.1 1.5 -0.1
v -0.1 1.5 -0.1
v -0.1 1.475 -0.1
v 0.05 1.575 0.05
v 0.0125 1.575 -0.0125
v 0.05 1.575 -0.05
v -0.05 1.575 -0.05
v -0.0125 1.575 -0.0125
v -0.0125 1.575 0.0125
v -0.05 1.575 0.05
v 0.0125 1.575 0.0125
v -0.0125 1.775 -0.0125
v -0.0125 1.775 0.0125
v 0.05 1.475 -0.05
v 0.05 1.475 0.05
v -0.05 1.475 -0.05
v -0.05 1.475 0.05
v 0.0125 1.775 -0.0125
v 0.0125 1.775 0.0125
v 0.2 1 -0.2
v 0.2 0.5 -0.2
v 0.2 1 0.2
v 0.2 0.5 0.2
v -0.2 0.5 -0.2
v -0.2 1 -0.2
v -0.2 0.5 0.2
v -0.2 1 0.2
v 0.05 1 0.2
v -0.05 1 0.2

vn 1 0 0
vn 0 0 1
vn 0 -1 0
vn -1 0 0
vn 0 0 -1
vn 0 1 0

vt 0 0
vt -1.968504 39.37008
vt 1.968504 39.37008
vt -1.968504 8.100187E-14
vt -4.92126 7.874016
vt -7.874016 7.874016
vt -4.92126 9.84252
vt 3.937008 -3.937008
vt 1.968504 1.968504
vt 3.937008 3.937008
vt -1.968504 5.905512
vt -5.905512 5.905512
vt -1.968504 7.874016
vt 1.968504 6.679101E-14
vt -9.84252 9.84252
vt -7.874016 -7.874016
vt -9.84252 -9.84252
vt 9.84252 -9.84252
vt 7.874016 -7.874016
vt 7.874016 7.874016
vt 9.84252 9.84252
vt 4.92126 9.84252
vt 4.92126 7.874016
vt -3.937008 3.937008
vt -1.968504 -1.968504
vt -3.937008 -3.937008
vt 1.968504 -1.968504
vt -1.968504 1.968504
vt -5.905512 -5.905512
vt 5.905512 -5.905512
vt 5.905512 5.905512
vt 1.968504 7.874016
vt 1.968504 5.905512

usemtl _defaultMat

f 3/1/1 2/1/1 1/1/1
f 2/1/1 3/1/1 4/1/1
f 7/1/2 6/1/2 5/1/2
f 6/1/2 7/1/2 8/1/2
f 11/4/3 10/3/3 9/2/3
f 12/4/3 2/3/3 4/2/3
f 2/4/3 12/3/3 13/2/3
f 2/4/3 13/3/3 14/2/3
f 14/4/3 13/3/3 15/2/3
f 15/4/3 13/3/3 16/2/3
f 14/4/3 15/3/3 10/2/3
f 14/4/3 7/3/3 5/2/3
f 14/4/3 10/3/3 11/2/3
f 14/4/3 11/3/3 7/2/3
f 12/4/4 17/3/4 13/2/4
f 17/4/4 12/3/4 18/2/4
f 3/4/2 12/3/2 4/2/2
f 12/4/2 3/3/2 18/2/2
f 8/7/1 11/6/1 19/5/1
f 11/7/1 8/6/1 7/5/1
f 5/7/4 20/6/4 14/5/4
f 20/7/4 5/6/4 6/5/4
f 20/7/5 2/6/5 14/5/5
f 2/7/5 20/6/5 1/5/5
f 23/7/2 22/6/2 21/5/2
f 22/7/2 23/6/2 24/5/2
f 24/7/2 26/6/2 25/5/2
f 26/7/2 24/6/2 23/5/2
f 29/7/5 28/6/5 27/5/5
f 28/7/5 29/6/5 30/5/5
f 33/7/5 32/6/5 31/5/5
f 32/7/5 33/6/5 34/5/5
f 32/7/4 36/6/4 35/5/4
f 36/7/4 32/6/4 34/5/4
f 25/7/4 29/6/4 27/5/4
f 29/7/4 25/6/4 26/5/4
f 30/10/6 36/9/6 23/8/6
f 36/10/6 30/9/6 29/8/6
f 36/10/6 29/9/6 37/8/6
f 37/10/6 29/9/6 33/8/6
f 23/10/6 34/9/6 26/8/6
f 34/10/6 23/9/6 36/8/6
f 26/10/6 34/9/6 33/8/6
f 26/10/6 33/9/6 29/8/6
f 23/10/1 28/9/1 30/8/1
f 28/10/1 23/9/1 21/8/1
f 33/10/1 38/9/1 37/8/1
f 38/10/1 33/9/1 31/8/1
f 36/10/2 38/9/2 35/8/2
f 38/10/2 36/9/2 37/8/2
f 41/10/6 40/9/6 39/8/6
f 40/10/6 41/9/6 42/8/6
f 40/10/6 42/9/6 43/8/6
f 43/10/6 42/9/6 44/8/6
f 39/10/6 46/9/6 45/8/6
f 46/10/6 39/9/6 40/8/6
f 45/10/6 46/9/6 44/8/6
f 45/10/6 44/9/6 42/8/6
f 44/10/4 47/9/4 43/8/4
f 47/10/4 44/9/4 48/8/4
f 39/10/1 49/9/1 41/8/1
f 49/10/1 39/9/1 50/8/1
f 52/10/4 42/9/4 51/8/4
f 42/10/4 52/9/4 45/8/4
f 42/10/5 49/9/5 51/8/5
f 49/10/5 42/9/5 41/8/5
f 39/10/2 52/9/2 50/8/2
f 52/10/2 39/9/2 45/8/2
f 47/10/6 54/9/6 53/8/6
f 54/10/6 47/9/6 48/8/6
f 54/10/2 44/9/2 46/8/2
f 44/10/2 54/9/2 48/8/2
f 47/10/5 40/9/5 43/8/5
f 40/10/5 47/9/5 53/8/5
f 54/10/1 40/9/1 53/8/1
f 40/10/1 54/9/1 46/8/1
f 57/10/1 56/9/1 55/8/1
f 56/10/1 57/9/1 58/8/1
f 60/10/5 56/9/5 59/8/5
f 56/10/5 60/9/5 55/8/5
f 61/10/4 60/9/4 59/8/4
f 60/10/4 61/9/4 62/8/4
f 57/10/2 17/9/2 58/8/2
f 17/10/2 16/9/2 13/8/2
f 16/10/2 17/9/2 63/8/2
f 63/10/2 17/9/2 57/8/2
f 9/10/2 19/9/2 11/8/2
f 19/10/2 9/9/2 64/8/2
f 62/10/2 19/9/2 64/8/2
f 19/10/2 62/9/2 61/8/2
f 16/13/4 22/12/4 15/11/4
f 22/13/4 16/12/4 63/11/4
f 64/13/1 10/12/1 24/11/1
f 10/13/1 64/12/1 9/11/1

usemtl border

f 22/3/2 10/4/2 15/14/2
f 10/4/2 22/3/2 24/2/2
f 1/17/6 56/16/6 3/15/6
f 56/16/6 1/17/6 20/18/6
f 56/16/6 20/18/6 59/19/6
f 59/19/6 20/18/6 61/20/6
f 6/21/6 61/20/6 20/18/6
f 8/22/6 61/20/6 6/21/6
f 61/20/6 8/22/6 19/23/6
f 58/6/6 3/15/6 56/16/6
f 3/15/6 58/6/6 18/7/6
f 18/7/6 58/6/6 17/5/6
f 35/26/6 49/25/6 32/24/6
f 49/25/6 35/26/6 38/8/6
f 49/25/6 38/8/6 51/27/6
f 51/27/6 38/8/6 52/9/6
f 50/28/6 32/24/6 49/25/6
f 32/24/6 50/28/6 31/10/6
f 31/10/6 50/28/6 52/9/6
f 31/10/6 52/9/6 38/8/6
f 55/16/6 28/29/6 57/6/6
f 28/29/6 55/16/6 60/19/6
f 28/29/6 60/19/6 27/30/6
f 27/30/6 60/19/6 25/31/6
f 62/20/6 25/31/6 60/19/6
f 64/32/6 25/31/6 62/20/6
f 25/31/6 64/32/6 24/33/6
f 21/12/6 57/6/6 28/29/6
f 57/6/6 21/12/6 63/13/6
f 63/13/6 21/12/6 22/11/6

