# Created by Kenney (www.kenney.nl)

mtllib low_wideA.mtl

g low_wideA

v 0.5 0.85 0.25
v -0.5 0.85 0.25
v 0.5 1.1 0.25
v -0.5 1.1 0.25
v 0.5 1.1 -0.25
v 0.5 0.85 -0.25
v 0.5 0.6 0.25
v -0.5 0.6 0.25
v 0.5 0.75 0.25
v -0.5 0.75 0.25
v -0.5 0.6 -0.25
v 0.5 0.6 -0.25
v -0.5 0.75 -0.25
v 0.5 0.75 -0.25
v 0.475 0.6 0.225
v -0.475 0.6 0.225
v -0.475 0.6 -0.225
v 0.475 0.6 -0.225
v 0.475 0.75 -0.225
v -0.475 0.75 -0.225
v -0.475 0.75 0.225
v 0.475 0.75 0.225
v 0.475 0.85 0.225
v -0.475 0.85 0.225
v -0.475 0.85 -0.225
v -0.5 0.85 -0.25
v 0.475 0.85 -0.225
v -0.5 1.1 -0.25
v -0.325 1.05 0.175
v -0.425 1.05 0.175
v -0.325 1.1 0.175
v -0.425 1.1 0.175
v -0.325 1.1 0.075
v -0.425 1.1 0.075
v -0.425 1.05 0.075
v -0.325 1.05 0.075
v 0.5 0.25 0.25
v 0.475 0.25 -0.225
v 0.5 0.25 -0.25
v -0.5 0.25 -0.25
v -0.475 0.25 -0.225
v -0.475 0.25 0.225
v -0.5 0.25 0.25
v 0.475 0.25 0.225
v -0.5 0.1 -0.25
v 0.5 0.1 -0.25
v -0.5 0.35 -0.25
v 0.5 0.35 -0.25
v -0.5 0.5 -0.25
v 0.5 0.5 -0.25
v -0.5 0.35 0.25
v -0.5 0.5 0.25
v 0.5 0.1 0.25
v -0.5 0.1 0.25
v 0.475 0.1 0.225
v -0.475 0.1 0.225
v -0.475 0.1 -0.225
v 0.475 0.1 -0.225
v 0.5 0.5 0.25
v 0.5 0.35 0.25
v 0.475 0.5 -0.225
v -0.475 0.5 -0.225
v -0.475 0.5 0.225
v 0.475 0.5 0.225
v 0.475 0.35 0.225
v -0.475 0.35 0.225
v -0.475 0.35 -0.225
v 0.475 0.35 -0.225
v 0.425 1.15 -0.175
v 0.425 1.15 0.025
v 0.325 1.15 -0.175
v 0.325 1.15 0.025
v 0.325 1.05 -0.175
v 0.425 1.05 -0.175
v 0.325 1.05 0.025
v 0.425 1.05 0.025
v 0.45 1.05 -0.2
v -0.45 1.05 -0.2
v 0.45 1.1 -0.2
v -0.45 1.1 -0.2
v -0.45 1.05 0.2
v 0.45 1.05 0.2
v -0.45 1.1 0.2
v 0.45 1.1 0.2
v -0.325 1.1 -0.05
v -0.325 1.1 0.05
v -0.425 1.1 -0.05
v -0.425 1.1 0.05
v -0.425 1.05 -0.05
v -0.325 1.05 -0.05
v -0.325 1.05 0.05
v -0.425 1.05 0.05
v 0.475 0 0.225
v -0.475 0 0.225
v 0.475 0 -0.225
v -0.475 0 -0.225

vn 0 0 1
vn 1 0 0
vn 0 0 -1
vn -1 0 0
vn 0 -1 0
vn 0 1 0

vt 0 0
vt 8.858268 23.62205
vt 8.858268 19.68504
vt -8.858268 23.62205
vt -18.70079 23.62205
vt 18.70079 23.62205
vt -18.70079 19.68504
vt 8.858268 33.46457
vt 8.858268 29.52756
vt -8.858268 33.46457
vt -8.858268 29.52756
vt -18.70079 33.46457
vt 18.70079 33.46457
vt -18.70079 29.52756
vt 16.73228 6.889764
vt 16.73228 2.952756
vt 12.79528 6.889764
vt 8.858268 13.77953
vt 8.858268 9.84252
vt -8.858268 13.77953
vt -18.70079 -8.858268
vt -18.70079 8.858268
vt 18.70079 -8.858268
vt -18.70079 13.77953
vt 18.70079 13.77953
vt -18.70079 9.84252
vt -8.858268 0
vt -8.858268 3.937008
vt 8.858268 0
vt -12.79528 0.984252
vt -12.79528 -6.889764
vt -16.73228 0.984252
vt 16.73228 1.968504
vt 12.79528 2.952756
vt 16.73228 -1.968504
vt 12.79528 1.968504
vt -8.858268 19.68504
vt 18.70079 19.68504
vt 18.70079 29.52756
vt 17.71654 -7.874016
vt 12.79528 -1.968504
vt -16.73228 -6.889764
vt -17.71654 -7.874016
vt -17.71654 7.874016
vt 17.71654 7.874016
vt 18.70079 0
vt -18.70079 0
vt 18.70079 3.937008
vt -18.70079 3.937008
vt -8.858268 9.84252
vt 18.70079 8.858268
vt 8.858268 3.937008
vt 18.70079 9.84252

usemtl _defaultMat

f 3/1/1 2/1/1 1/1/1
f 2/1/1 3/1/1 4/1/1
f 3/4/2 6/3/2 5/2/2
f 6/4/2 3/3/2 1/2/2
f 9/7/1 8/6/1 7/5/1
f 8/7/1 9/6/1 10/5/1
f 13/10/3 12/9/3 11/8/3
f 12/10/3 13/9/3 14/8/3
f 9/10/2 12/9/2 14/8/2
f 12/10/2 9/9/2 7/8/2
f 8/10/4 13/9/4 11/8/4
f 13/10/4 8/9/4 10/8/4
f 7/9/5 15/10/5 12/11/5
f 15/9/5 7/10/5 8/11/5
f 15/9/5 8/10/5 16/11/5
f 16/9/5 8/10/5 17/11/5
f 12/9/5 18/10/5 11/11/5
f 18/9/5 12/10/5 15/11/5
f 11/9/5 18/10/5 17/11/5
f 11/9/5 17/10/5 8/11/5
f 14/14/6 19/13/6 9/12/6
f 19/14/6 14/13/6 13/12/6
f 19/14/6 13/13/6 20/12/6
f 20/14/6 13/13/6 21/12/6
f 9/14/6 22/13/6 10/12/6
f 10/14/6 22/13/6 21/12/6
f 22/14/6 9/13/6 19/12/6
f 10/14/6 21/13/6 13/12/6
f 1/14/5 23/13/5 6/12/5
f 23/14/5 1/13/5 2/12/5
f 23/14/5 2/13/5 24/12/5
f 24/14/5 2/13/5 25/12/5
f 6/14/5 27/13/5 26/12/5
f 26/14/5 27/13/5 25/12/5
f 27/14/5 6/13/5 23/12/5
f 26/14/5 25/13/5 2/12/5
f 28/14/3 6/13/3 26/12/3
f 6/14/3 28/13/3 5/12/3
f 2/14/4 28/13/4 26/12/4
f 28/14/4 2/13/4 4/12/4
f 31/14/1 30/13/1 29/12/1
f 30/14/1 31/13/1 32/12/1
f 34/14/6 31/13/6 33/12/6
f 31/14/6 34/13/6 32/12/6
f 30/14/4 34/13/4 35/12/4
f 34/14/4 30/13/4 32/12/4
f 34/14/3 36/13/3 35/12/3
f 36/14/3 34/13/3 33/12/3
f 31/14/2 36/13/2 33/12/2
f 36/14/2 31/13/2 29/12/2
f 39/17/6 38/16/6 37/15/6
f 38/17/6 39/16/6 40/15/6
f 38/17/6 40/16/6 41/15/6
f 41/17/6 40/16/6 42/15/6
f 37/17/6 44/16/6 43/15/6
f 44/17/6 37/16/6 38/15/6
f 43/17/6 44/16/6 42/15/6
f 43/17/6 42/16/6 40/15/6
f 40/17/3 46/16/3 45/15/3
f 46/17/3 40/16/3 39/15/3
f 49/20/3 48/19/3 47/18/3
f 48/20/3 49/19/3 50/18/3
f 51/20/4 49/19/4 47/18/4
f 49/20/4 51/19/4 52/18/4
f 37/23/1 54/22/1 53/21/1
f 54/23/1 37/22/1 43/21/1
f 53/26/5 55/25/5 46/24/5
f 55/26/5 53/25/5 54/24/5
f 55/26/5 54/25/5 56/24/5
f 56/26/5 54/25/5 57/24/5
f 46/26/5 58/25/5 45/24/5
f 45/26/5 58/25/5 57/24/5
f 58/26/5 46/25/5 55/24/5
f 45/26/5 57/25/5 54/24/5
f 59/29/2 48/28/2 50/27/2
f 48/29/2 59/28/2 60/27/2
f 59/29/1 51/28/1 60/27/1
f 51/29/1 59/28/1 52/27/1
f 54/29/4 40/28/4 45/27/4
f 40/29/4 54/28/4 43/27/4
f 50/29/6 61/28/6 59/27/6
f 61/29/6 50/28/6 49/27/6
f 61/29/6 49/28/6 62/27/6
f 62/29/6 49/28/6 63/27/6
f 59/29/6 64/28/6 52/27/6
f 64/29/6 59/28/6 61/27/6
f 52/29/6 64/28/6 63/27/6
f 52/29/6 63/28/6 49/27/6
f 60/29/5 65/28/5 48/27/5
f 65/29/5 60/28/5 51/27/5
f 65/29/5 51/28/5 66/27/5
f 66/29/5 51/28/5 67/27/5
f 48/29/5 68/28/5 47/27/5
f 68/29/5 48/28/5 65/27/5
f 47/29/5 68/28/5 67/27/5
f 47/29/5 67/28/5 51/27/5
f 37/29/2 46/28/2 39/27/2
f 46/29/2 37/28/2 53/27/2
f 71/29/6 70/28/6 69/27/6
f 70/29/6 71/28/6 72/27/6
f 71/29/3 74/28/3 73/27/3
f 74/29/3 71/28/3 69/27/3
f 75/29/4 71/28/4 73/27/4
f 71/29/4 75/28/4 72/27/4
f 70/29/2 74/28/2 69/27/2
f 74/29/2 70/28/2 76/27/2
f 70/32/1 75/31/1 76/30/1
f 75/32/1 70/31/1 72/30/1
f 79/32/1 78/31/1 77/30/1
f 78/32/1 79/31/1 80/30/1
f 83/32/3 82/31/3 81/30/3
f 82/32/3 83/31/3 84/30/3
f 5/32/6 79/31/6 3/30/6
f 79/32/6 5/31/6 28/30/6
f 79/32/6 28/31/6 80/30/6
f 80/32/6 28/31/6 83/30/6
f 3/32/6 84/31/6 4/30/6
f 84/32/6 3/31/6 79/30/6
f 4/32/6 84/31/6 83/30/6
f 4/32/6 83/31/6 28/30/6
f 83/32/2 78/31/2 80/30/2
f 78/32/2 83/31/2 81/30/2
f 82/34/4 79/33/4 77/16/4
f 79/34/4 82/33/4 84/16/4
f 87/36/6 86/35/6 85/33/6
f 86/36/6 87/35/6 88/33/6
f 87/36/3 90/35/3 89/33/3
f 90/36/3 87/35/3 85/33/3
f 86/36/2 90/35/2 85/33/2
f 90/36/2 86/35/2 91/33/2
f 92/36/4 87/35/4 89/33/4
f 87/36/4 92/35/4 88/33/4
f 86/36/1 92/35/1 91/33/1
f 92/36/1 86/35/1 88/33/1

usemtl border

f 63/3/4 17/4/4 62/37/4
f 17/4/4 63/3/4 16/2/4
f 15/6/1 63/7/1 64/38/1
f 63/7/1 15/6/1 16/5/1
f 15/4/2 61/3/2 18/2/2
f 61/3/2 15/4/2 64/37/2
f 21/9/4 25/10/4 20/11/4
f 25/10/4 21/9/4 24/8/4
f 17/6/3 61/7/3 62/38/3
f 61/7/3 17/6/3 18/5/3
f 23/10/2 19/9/2 27/8/2
f 19/9/2 23/10/2 22/11/2
f 23/13/1 21/14/1 22/39/1
f 21/14/1 23/13/1 24/12/1
f 25/13/3 19/14/3 20/39/3
f 19/14/3 25/13/3 27/12/3
f 35/16/6 29/17/6 36/34/6
f 29/17/6 35/16/6 30/15/6
f 35/16/6 78/40/6 30/15/6
f 92/33/6 78/40/6 35/16/6
f 36/34/6 92/33/6 35/16/6
f 89/35/6 78/40/6 92/33/6
f 90/41/6 78/40/6 89/35/6
f 75/30/6 78/40/6 90/41/6
f 29/17/6 75/30/6 90/41/6
f 73/31/6 78/40/6 75/30/6
f 76/32/6 73/31/6 75/30/6
f 29/17/6 76/32/6 75/30/6
f 73/31/6 76/32/6 74/42/6
f 74/42/6 78/40/6 73/31/6
f 74/42/6 77/43/6 78/40/6
f 77/43/6 74/42/6 82/44/6
f 76/32/6 82/44/6 74/42/6
f 82/44/6 76/32/6 81/45/6
f 81/45/6 29/17/6 30/15/6
f 81/45/6 30/15/6 78/40/6
f 29/17/6 90/41/6 91/36/6
f 29/17/6 91/36/6 36/34/6
f 92/33/6 36/34/6 91/36/6
f 89/35/6 91/36/6 90/41/6
f 91/36/6 89/35/6 92/33/6
f 55/48/1 94/47/1 93/46/1
f 94/47/1 55/48/1 56/49/1
f 42/19/4 67/20/4 41/50/4
f 67/20/4 42/19/4 66/18/4
f 94/22/5 95/23/5 93/51/5
f 95/23/5 94/22/5 96/21/5
f 94/29/4 57/28/4 96/27/4
f 57/28/4 94/29/4 56/52/4
f 65/25/1 42/26/1 44/53/1
f 42/26/1 65/25/1 66/24/1
f 67/25/3 38/26/3 41/53/3
f 38/26/3 67/25/3 68/24/3
f 57/48/3 95/47/3 96/46/3
f 95/47/3 57/48/3 58/49/3
f 65/20/2 38/19/2 68/18/2
f 38/19/2 65/20/2 44/50/2
f 55/28/2 95/29/2 58/52/2
f 95/29/2 55/28/2 93/27/2
f 81/45/6 76/32/6 29/17/6

