# Created by Kenney (www.kenney.nl)

mtllib low_buildingK.mtl

g low_buildingK

v 0.25 0 0.25
v 0.2 0 0.25
v 0.25 1.5 0.25
v 0.2 0.15 0.25
v -0.2 0.15 0.25
v -0.25 1.5 0.25
v -0.25 9.023893E-17 0.25
v -0.2 9.023893E-17 0.25
v 0.2 0.15 0.2
v -0.2 0.15 0.2
v -0.2 9.023893E-17 0.2
v -0.25 0 -0.25
v 0.2 0 0.2
v 0.25 0 -0.25
v 0.25 1.5 -0.25
v 0.05 1.45 -0.15
v 0.05 1.55 -0.15
v 0.05 1.45 0.05
v 0.05 1.55 0.05
v 0.15 1.55 -0.15
v 0.15 1.45 -0.15
v 0.15 1.55 0.05
v 0.15 1.45 0.05
v -0.25 1.5 -0.25
v -0.2 1.5 -0.2
v -0.2 1.45 -0.2
v -0.2 1.5 0.2
v -0.2 1.45 0.2
v 0.2 1.45 0.2
v 0.2 1.5 0.2
v 0.2 1.45 -0.2
v 0.2 1.5 -0.2

vn 0 0 1
vn 0 -1 0
vn 1 0 0
vn -1 0 0
vn 0 1 0
vn 0 0 -1

vt 0 0
vt -7.874016 5.905512
vt 7.874016 5.905512
vt -7.874016 3.552714E-15
vt 7.874016 -7.874016
vt -1.968504 1.968504
vt 7.874016 7.874016
vt 7.874016 0
vt -7.874016 7.874016
vt -5.905512 -5.905512
vt -7.874016 -7.874016
vt -1.968504 -5.905512
vt -5.905512 1.968504

usemtl _defaultMat

f 3/1/1 2/1/1 1/1/1
f 2/1/1 3/1/1 4/1/1
f 4/1/1 3/1/1 5/1/1
f 6/1/1 5/1/1 3/1/1
f 7/1/1 5/1/1 6/1/1
f 5/1/1 7/1/1 8/1/1
f 5/1/2 9/1/2 4/1/2
f 9/1/2 5/1/2 10/1/2
f 5/1/3 11/1/3 10/1/3
f 11/1/3 5/1/3 8/1/3
f 7/1/2 11/1/2 8/1/2
f 12/1/2 11/1/2 7/1/2
f 12/1/2 13/1/2 11/1/2
f 14/1/2 13/1/2 12/1/2
f 14/1/2 2/1/2 13/1/2
f 2/1/2 14/1/2 1/1/2
f 2/1/4 9/1/4 13/1/4
f 9/1/4 2/1/4 4/1/4
f 3/1/3 14/1/3 15/1/3
f 14/1/3 3/1/3 1/1/3
f 18/4/4 17/3/4 16/2/4
f 17/4/4 18/3/4 19/2/4
f 22/4/3 21/3/3 20/2/3
f 21/4/3 22/3/3 23/2/3
f 22/4/1 18/3/1 23/2/1
f 18/4/1 22/3/1 19/2/1
f 17/4/5 22/3/5 20/2/5
f 22/4/5 17/3/5 19/2/5
f 17/4/6 21/3/6 16/2/6
f 21/4/6 17/3/6 20/2/6
f 7/4/4 24/3/4 12/2/4
f 24/4/4 7/3/4 6/2/4
f 27/4/3 26/3/3 25/2/3
f 26/4/3 27/3/3 28/2/3
f 27/7/6 29/6/6 28/5/6
f 29/7/6 27/6/6 30/5/6
f 29/7/4 32/6/4 31/5/4
f 32/7/4 29/6/4 30/5/4
f 32/7/1 26/6/1 31/5/1
f 26/7/1 32/6/1 25/5/1
f 15/7/5 32/6/5 3/5/5
f 32/7/5 15/6/5 24/5/5
f 32/7/5 24/6/5 25/5/5
f 25/7/5 24/6/5 27/5/5
f 3/7/5 30/6/5 6/5/5
f 30/7/5 3/6/5 32/5/5
f 6/7/5 30/6/5 27/5/5
f 6/7/5 27/6/5 24/5/5
f 24/7/6 14/6/6 12/5/6
f 14/7/6 24/6/6 15/5/6

usemtl border

f 9/3/1 11/4/1 13/8/1
f 11/4/1 9/3/1 10/2/1
f 31/11/5 21/10/5 29/9/5
f 21/10/5 31/11/5 26/5/5
f 21/10/5 26/5/5 16/12/5
f 16/12/5 26/5/5 18/6/5
f 23/13/5 29/9/5 21/10/5
f 29/9/5 23/13/5 28/7/5
f 28/7/5 23/13/5 18/6/5
f 28/7/5 18/6/5 26/5/5

