# Created by Kenney (www.kenney.nl)

mtllib low_buildingF.mtl

g low_buildingF

v 0.2 0 0.2
v -0.2 0 0.2
v 0.2 0.1 0.2
v -0.2 0.1 0.2
v 0.2 0.1 -0.2
v 0.2 0 -0.2
v 0.15 0.2 0.2
v 0.15 0.2 0.25
v -0.15 0.2 0.2
v -0.15 0.2 0.25
v -0.2 0 -0.2
v -0.2 0.1 -0.2
v 0.25 0.1 -0.25
v 0.25 0.1 0.25
v -0.25 0.1 0.25
v -0.25 0.1 -0.25
v -0.2 0.2 0.15
v -0.2 0.9 0.15
v -0.25 0.2 0.15
v -0.25 0.9 0.15
v 0.25 0.2 -0.15
v 0.25 0.2 0.15
v 0.2 0.2 -0.15
v 0.2 0.2 0.15
v -0.2 0.2 -0.15
v -0.25 0.2 -0.15
v -0.2 0.9 -0.15
v -0.25 0.9 -0.15
v 0.15 0.2 -0.2
v -0.15 0.2 -0.2
v 0.15 0.2 -0.25
v -0.15 0.2 -0.25
v -0.15 0.9 -0.25
v -0.15 0.9 -0.2
v 0.2 1 -0.2
v 0.2 1 0.2
v -0.2 1 -0.2
v -0.2 1 0.2
v -0.2 1.5 -0.2
v -0.2 1.5 0.2
v 0.2 1.5 0.2
v 0.2 1.5 -0.2
v -0.15 0.9 0.2
v -0.15 0.9 0.25
v 0.15 0.9 0.2
v 0.15 0.9 0.25
v 0.25 1 0.25
v -0.25 1 0.25
v -0.25 1 -0.25
v 0.15 0.9 -0.25
v 0.25 1 -0.25
v 0.15 0.9 -0.2
v 0.2 0.9 -0.15
v 0.25 0.9 -0.15
v 0.25 0.9 0.15
v 0.2 0.9 0.15
v 0.05 1.775 0.05359997
v 0.0125 1.775 -0.008900024
v 0.05 1.775 -0.04640002
v -0.05 1.775 -0.04640002
v -0.0125 1.775 -0.008900024
v -0.0125 1.775 0.01609998
v -0.05 1.775 0.05359997
v 0.0125 1.775 0.01609998
v -0.0125 1.975 -0.008900024
v 0.0125 1.975 -0.008900024
v -0.05 1.675 -0.04640002
v -0.05 1.675 0.05359997
v 0.0125 1.975 0.01609998
v -0.0125 1.975 0.01609998
v 0.05 1.675 -0.04640002
v 0.05 1.675 0.05359997
v 0.1 1.675 -0.1
v -0.1 1.675 -0.1
v 0.1 1.7 -0.1
v -0.1 1.7 -0.1
v -0.1 1.675 0.1
v 0.1 1.675 0.1
v -0.1 1.7 0.1
v 0.1 1.7 0.1
v -0.15 1.5 -0.15
v -0.15 1.7 -0.15
v -0.15 1.5 0.15
v -0.15 1.7 0.15
v 0.15 1.5 0.15
v 0.15 1.7 0.15
v 0.15 1.7 -0.15
v 0.15 1.5 -0.15

vn 0 0 1
vn 1 0 0
vn 0 1 0
vn 0 -1 0
vn -1 0 0
vn 0 0 -1

vt 0 0
vt 5.905512 35.43307
vt 5.905512 7.874016
vt -5.905512 35.43307
vt 7.874016 -7.874016
vt 5.905512 5.905512
vt 7.874016 7.874016
vt 1.968504 2.110235
vt 1.968504 -1.826773
vt -1.968504 2.110235
vt 3.937008 -3.937008
vt 3.937008 3.937008
vt 5.905512 -5.905512
vt -5.905512 5.905512
vt -5.905512 7.874016
vt -7.874016 7.874016
vt -5.905512 -5.905512
vt -7.874016 -7.874016
vt -1.968504 -1.826773
vt -3.937008 -3.937008
vt -3.937008 3.937008

usemtl _defaultMat

f 3/1/1 2/1/1 1/1/1
f 2/1/1 3/1/1 4/1/1
f 3/1/2 6/1/2 5/1/2
f 6/1/2 3/1/2 1/1/2
f 9/1/3 8/1/3 7/1/3
f 8/1/3 9/1/3 10/1/3
f 2/1/4 6/1/4 1/1/4
f 6/1/4 2/1/4 11/1/4
f 2/1/5 12/1/5 11/1/5
f 12/1/5 2/1/5 4/1/5
f 12/1/6 6/1/6 11/1/6
f 6/1/6 12/1/6 5/1/6
f 14/1/4 3/1/4 13/1/4
f 3/1/4 14/1/4 15/1/4
f 3/1/4 15/1/4 4/1/4
f 4/1/4 15/1/4 12/1/4
f 5/1/4 13/1/4 3/1/4
f 13/1/4 5/1/4 16/1/4
f 16/1/4 5/1/4 12/1/4
f 16/1/4 12/1/4 15/1/4
f 19/1/6 18/1/6 17/1/6
f 18/1/6 19/1/6 20/1/6
f 23/1/3 22/1/3 21/1/3
f 22/1/3 23/1/3 24/1/3
f 27/1/1 26/1/1 25/1/1
f 26/1/1 27/1/1 28/1/1
f 25/4/3 19/3/3 17/2/3
f 19/4/3 25/3/3 26/2/3
f 31/4/3 30/3/3 29/2/3
f 30/4/3 31/3/3 32/2/3
f 34/4/2 32/3/2 33/2/2
f 32/4/2 34/3/2 30/2/2
f 37/4/3 36/3/3 35/2/3
f 36/4/3 37/3/3 38/2/3
f 38/4/5 39/3/5 37/2/5
f 39/4/5 38/3/5 40/2/5
f 41/4/1 38/3/1 36/2/1
f 38/4/1 41/3/1 40/2/1
f 41/4/2 35/3/2 42/2/2
f 35/4/2 41/3/2 36/2/2
f 39/7/6 35/6/6 37/5/6
f 35/7/6 39/6/6 42/5/6
f 43/7/2 10/6/2 9/5/2
f 10/7/2 43/6/2 44/5/2
f 20/7/4 27/6/4 18/5/4
f 27/7/4 20/6/4 28/5/4
f 8/7/5 45/6/5 7/5/5
f 45/7/5 8/6/5 46/5/5
f 14/7/1 8/6/1 15/5/1
f 8/7/1 14/6/1 47/5/1
f 8/7/1 47/6/1 46/5/1
f 46/7/1 47/6/1 44/5/1
f 15/7/1 10/6/1 48/5/1
f 10/7/1 15/6/1 8/5/1
f 48/7/1 10/6/1 44/5/1
f 48/7/1 44/6/1 47/5/1
f 16/7/6 32/6/6 13/5/6
f 32/7/6 16/6/6 49/5/6
f 32/7/6 49/6/6 33/5/6
f 33/7/6 49/6/6 50/5/6
f 13/7/6 31/6/6 51/5/6
f 31/7/6 13/6/6 32/5/6
f 51/7/6 31/6/6 50/5/6
f 51/7/6 50/6/6 49/5/6
f 16/7/5 26/6/5 49/5/5
f 26/7/5 16/6/5 15/5/5
f 26/7/5 15/6/5 19/5/5
f 19/7/5 15/6/5 20/5/5
f 49/7/5 28/6/5 48/5/5
f 28/7/5 49/6/5 26/5/5
f 48/7/5 28/6/5 20/5/5
f 48/7/5 20/6/5 15/5/5
f 52/7/4 33/6/4 50/5/4
f 33/7/4 52/6/4 34/5/4
f 21/7/1 53/6/1 23/5/1
f 53/7/1 21/6/1 54/5/1
f 51/7/3 35/6/3 47/5/3
f 35/7/3 51/6/3 49/5/3
f 35/7/3 49/6/3 37/5/3
f 37/7/3 49/6/3 38/5/3
f 47/7/3 36/6/3 48/5/3
f 36/7/3 47/6/3 35/5/3
f 48/7/3 36/6/3 38/5/3
f 48/7/3 38/6/3 49/5/3
f 31/7/5 52/6/5 50/5/5
f 52/7/5 31/6/5 29/5/5
f 55/7/4 53/6/4 54/5/4
f 53/7/4 55/6/4 56/5/4
f 51/7/2 54/6/2 21/5/2
f 54/7/2 51/6/2 47/5/2
f 54/7/2 47/6/2 55/5/2
f 55/7/2 47/6/2 14/5/2
f 13/7/2 21/6/2 14/5/2
f 21/7/2 13/6/2 51/5/2
f 14/7/2 21/6/2 22/5/2
f 14/7/2 22/6/2 55/5/2
f 44/7/4 45/6/4 46/5/4
f 45/7/4 44/6/4 43/5/4
f 56/7/6 22/6/6 24/5/6
f 22/7/6 56/6/6 55/5/6
f 59/10/3 58/9/3 57/8/3
f 58/10/3 59/9/3 60/8/3
f 58/10/3 60/9/3 61/8/3
f 61/10/3 60/9/3 62/8/3
f 57/10/3 64/9/3 63/8/3
f 64/10/3 57/9/3 58/8/3
f 63/10/3 64/9/3 62/8/3
f 63/10/3 62/9/3 60/8/3
f 65/10/6 58/9/6 61/8/6
f 58/10/6 65/9/6 66/8/6
f 68/10/5 60/9/5 67/8/5
f 60/10/5 68/9/5 63/8/5
f 65/10/3 69/9/3 66/8/3
f 69/10/3 65/9/3 70/8/3
f 60/10/6 71/9/6 67/8/6
f 71/10/6 60/9/6 59/8/6
f 57/10/1 68/9/1 72/8/1
f 68/10/1 57/9/1 63/8/1
f 62/10/5 65/9/5 61/8/5
f 65/10/5 62/9/5 70/8/5
f 57/10/2 71/9/2 59/8/2
f 71/10/2 57/9/2 72/8/2
f 69/10/2 58/9/2 66/8/2
f 58/10/2 69/9/2 64/8/2
f 69/10/1 62/9/1 64/8/1
f 62/10/1 69/9/1 70/8/1
f 75/10/1 74/9/1 73/8/1
f 74/10/1 75/9/1 76/8/1
f 79/12/6 78/8/6 77/11/6
f 78/12/6 79/8/6 80/11/6
f 83/12/5 82/8/5 81/11/5
f 82/12/5 83/8/5 84/11/5
f 79/14/2 74/13/2 76/6/2
f 74/14/2 79/13/2 77/6/2
f 86/14/1 83/13/1 85/6/1
f 83/14/1 86/13/1 84/6/1
f 87/14/3 75/13/3 86/6/3
f 75/14/3 87/13/3 82/6/3
f 75/14/3 82/13/3 76/6/3
f 76/14/3 82/13/3 79/6/3
f 86/14/3 80/13/3 84/6/3
f 80/14/3 86/13/3 75/6/3
f 84/14/3 80/13/3 79/6/3
f 84/14/3 79/13/3 82/6/3
f 82/14/6 88/13/6 81/6/6
f 88/14/6 82/13/6 87/6/6
f 78/14/5 75/13/5 73/6/5
f 75/14/5 78/13/5 80/6/5
f 86/14/2 88/13/2 87/6/2
f 88/14/2 86/13/2 85/6/2

usemtl border

f 17/3/5 27/4/5 25/15/5
f 27/4/5 17/3/5 18/2/5
f 42/18/3 88/17/3 41/16/3
f 88/17/3 42/18/3 39/5/3
f 88/17/3 39/5/3 81/13/3
f 81/13/3 39/5/3 83/6/3
f 85/14/3 41/16/3 88/17/3
f 81/13/3 85/14/3 88/17/3
f 85/14/3 81/13/3 83/6/3
f 41/16/3 85/14/3 40/7/3
f 40/7/3 85/14/3 83/6/3
f 40/7/3 83/6/3 39/5/3
f 53/2/2 24/15/2 23/3/2
f 24/15/2 53/2/2 56/4/2
f 34/2/6 29/15/6 30/3/6
f 29/15/6 34/2/6 52/4/6
f 45/2/1 9/15/1 7/3/1
f 9/15/1 45/2/1 43/4/1
f 67/9/3 72/10/3 71/19/3
f 72/10/3 67/9/3 68/8/3
f 71/19/3 74/11/3 67/9/3
f 67/9/3 74/11/3 68/8/3
f 71/19/3 73/20/3 74/11/3
f 73/20/3 71/19/3 78/21/3
f 72/10/3 78/21/3 71/19/3
f 78/21/3 72/10/3 77/12/3
f 77/12/3 72/10/3 68/8/3
f 77/12/3 68/8/3 74/11/3

