# Created by Kenney (www.kenney.nl)

mtllib low_buildingL.mtl

g low_buildingL

v 0.175 1.56857 -0.1785762
v 0.175 1.56857 -0.07857616
v 0.075 1.56857 -0.1785762
v 0.075 1.56857 -0.07857616
v 0.175 1.518569 -0.07857616
v 0.075 1.518569 -0.07857616
v 0.175 1.518569 -0.1785762
v 0.075 1.518569 -0.1785762
v -0.05 1.518569 -0.1785762
v -0.05 1.56857 -0.1785762
v -0.05 1.518569 -0.07857616
v -0.05 1.56857 -0.07857616
v 0.05 1.56857 -0.1785762
v 0.05 1.56857 -0.07857616
v 0.05 1.518569 -0.07857616
v 0.05 1.518569 -0.1785762
v 0.2 1.518569 -0.2035762
v 0.2 1.78143 -0.2035762
v 0.2 1.518569 0.2035762
v 0.2 1.618569 0.2035762
v -0.2 1.78143 -0.2035762
v -0.2 1.518569 -0.2035762
v -0.2 1.618569 0.2035762
v -0.2 1.518569 0.2035762
v 0.25 1.6 0.25
v 0.25 1.8 -0.25
v -0.25 1.8 -0.25
v -0.25 1.6 0.25
v -0.25 0 -0.25
v -0.25 0 0.25
v 0.25 0 0.25
v 0.25 0 -0.25

vn 0 1 0
vn 0 0 1
vn 1 0 0
vn -1 0 0
vn 0 0 -1
vn 0 0.9284768 0.3713907
vn 0 -1 0

vt 0 0
vt 7.874016 -8.01481
vt 1.968504 -3.09355
vt 7.874016 8.01481
vt -7.874016 8.01481
vt -6.889764 -7.030558
vt -7.874016 -8.01481
vt -2.952756 -7.030558
vt -1.968504 -7.030558
vt -2.952756 -3.09355
vt 1.968504 -7.030558
vt -6.889764 -3.09355
vt -1.968504 -3.09355

usemtl _defaultMat

f 3/1/1 2/1/1 1/1/1
f 2/1/1 3/1/1 4/1/1
f 2/1/2 6/1/2 5/1/2
f 6/1/2 2/1/2 4/1/2
f 2/1/3 7/1/3 1/1/3
f 7/1/3 2/1/3 5/1/3
f 6/1/4 3/1/4 8/1/4
f 3/1/4 6/1/4 4/1/4
f 3/1/5 7/1/5 8/1/5
f 7/1/5 3/1/5 1/1/5
f 11/1/4 10/1/4 9/1/4
f 10/1/4 11/1/4 12/1/4
f 10/1/1 14/1/1 13/1/1
f 14/1/1 10/1/1 12/1/1
f 14/1/2 11/1/2 15/1/2
f 11/1/2 14/1/2 12/1/2
f 10/1/5 16/1/5 9/1/5
f 16/1/5 10/1/5 13/1/5
f 14/1/3 16/1/3 13/1/3
f 16/1/3 14/1/3 15/1/3
f 19/1/4 18/1/4 17/1/4
f 18/1/4 19/1/4 20/1/4
f 23/1/3 22/1/3 21/1/3
f 22/1/3 23/1/3 24/1/3
f 18/1/2 22/1/2 17/1/2
f 22/1/2 18/1/2 21/1/2
f 26/1/6 18/1/6 25/1/6
f 18/1/6 26/1/6 27/1/6
f 18/1/6 27/1/6 21/1/6
f 21/1/6 27/1/6 23/1/6
f 20/1/6 25/1/6 18/1/6
f 25/1/6 20/1/6 28/1/6
f 28/1/6 20/1/6 23/1/6
f 28/1/6 23/1/6 27/1/6
f 23/1/5 19/1/5 24/1/5
f 19/1/5 23/1/5 20/1/5
f 30/4/4 27/3/4 29/2/4
f 27/4/4 30/3/4 28/2/4
f 25/4/2 30/3/2 31/2/2
f 30/4/2 25/3/2 28/2/2
f 30/4/7 32/3/7 31/2/7
f 32/4/7 30/3/7 29/2/7
f 27/4/5 32/3/5 29/2/5
f 32/4/5 27/3/5 26/2/5
f 26/4/3 31/3/3 32/2/3
f 31/4/3 26/3/3 25/2/3

usemtl border

f 17/7/1 7/6/1 19/5/1
f 7/6/1 17/7/1 22/2/1
f 7/6/1 22/2/1 8/8/1
f 8/8/1 22/2/1 16/9/1
f 8/8/1 16/9/1 6/10/1
f 16/9/1 22/2/1 9/11/1
f 9/11/1 22/2/1 11/3/1
f 5/12/1 19/5/1 7/6/1
f 19/5/1 5/12/1 24/4/1
f 24/4/1 5/12/1 6/10/1
f 24/4/1 11/3/1 22/2/1
f 24/4/1 6/10/1 15/13/1
f 15/13/1 6/10/1 16/9/1
f 24/4/1 15/13/1 11/3/1

