# Created by Kenney (www.kenney.nl)

mtllib low_buildingM.mtl

g low_buildingM

v -0.2 1 -0.2
v 0.2 1 -0.2
v -0.2 1.5 -0.2
v 0.2 1.5 -0.2
v 0.2 1.5 0.2
v 0.2 1 0.2
v -0.2 1 0.2
v -0.2 1.5 0.2
v 0.15 2 0.15
v 0.1 2 -0.1
v 0.15 2 -0.15
v -0.15 2 -0.15
v -0.1 2 -0.1
v -0.1 2 0.1
v -0.15 2 0.15
v 0.1 2 0.1
v -0.15 1.5 -0.15
v 0.15 1.5 -0.15
v 0.15 1.5 0.15
v 0.1 1.975 -0.1
v 0.1 1.975 0.1
v -0.15 1.5 0.15
v -0.1 1.975 -0.1
v -0.1 1.975 0.1
v 0.25 0 0.25
v 0.25 0 -0.25
v -0.25 0 0.25
v -0.25 0 -0.25
v 0.25 1 -0.25
v 0.25 1 0.25
v -0.25 1 -0.25
v -0.25 1 0.25

vn 0 0 -1
vn 1 0 0
vn 0 0 1
vn -1 0 0
vn 0 1 0
vn 0 -1 0

vt 0 0
vt 7.874016 -7.874016
vt 5.905512 5.905512
vt 7.874016 7.874016
vt 3.937008 3.937008
vt 3.937008 -3.937008
vt -3.937008 3.937008
vt -7.874016 7.874016
vt -5.905512 -5.905512
vt -7.874016 -7.874016
vt 5.905512 -5.905512
vt -5.905512 5.905512
vt -3.937008 -3.937008

usemtl _defaultMat

f 3/1/1 2/1/1 1/1/1
f 2/1/1 3/1/1 4/1/1
f 5/4/2 2/3/2 4/2/2
f 2/4/2 5/3/2 6/2/2
f 5/4/3 7/3/3 6/2/3
f 7/4/3 5/3/3 8/2/3
f 7/4/4 3/3/4 1/2/4
f 3/4/4 7/3/4 8/2/4
f 11/4/5 10/3/5 9/2/5
f 10/4/5 11/3/5 12/2/5
f 10/4/5 12/3/5 13/2/5
f 13/4/5 12/3/5 14/2/5
f 9/4/5 16/3/5 15/2/5
f 16/4/5 9/3/5 10/2/5
f 15/4/5 16/3/5 14/2/5
f 15/4/5 14/3/5 12/2/5
f 12/4/1 18/3/1 17/2/1
f 18/4/1 12/3/1 11/2/1
f 9/4/2 18/3/2 11/2/2
f 18/4/2 9/3/2 19/2/2
f 21/4/4 10/3/4 20/2/4
f 10/4/4 21/3/4 16/2/4
f 22/4/4 12/3/4 17/2/4
f 12/4/4 22/3/4 15/2/4
f 14/7/2 23/6/2 13/5/2
f 23/7/2 14/6/2 24/5/2
f 10/7/3 23/6/3 20/5/3
f 23/7/3 10/6/3 13/5/3
f 14/7/1 21/6/1 24/5/1
f 21/7/1 14/6/1 16/5/1
f 9/7/3 22/6/3 19/5/3
f 22/7/3 9/6/3 15/5/3
f 27/7/6 26/6/6 25/5/6
f 26/7/6 27/6/6 28/5/6
f 30/7/2 26/6/2 29/5/2
f 26/7/2 30/6/2 25/5/2
f 29/7/5 2/6/5 30/5/5
f 2/7/5 29/6/5 31/5/5
f 2/7/5 31/6/5 1/5/5
f 1/7/5 31/6/5 7/5/5
f 30/7/5 6/6/5 32/5/5
f 6/7/5 30/6/5 2/5/5
f 32/7/5 6/6/5 7/5/5
f 32/7/5 7/6/5 31/5/5
f 31/7/1 26/6/1 28/5/1
f 26/7/1 31/6/1 29/5/1
f 30/7/3 27/6/3 25/5/3
f 27/7/3 30/6/3 32/5/3
f 27/7/4 31/6/4 28/5/4
f 31/7/4 27/6/4 32/5/4

usemtl border

f 4/10/5 18/9/5 5/8/5
f 18/9/5 4/10/5 3/2/5
f 18/9/5 3/2/5 17/11/5
f 17/11/5 3/2/5 22/3/5
f 19/12/5 5/8/5 18/9/5
f 5/8/5 19/12/5 8/4/5
f 8/4/5 19/12/5 22/3/5
f 8/4/5 22/3/5 3/2/5
f 23/6/5 21/7/5 20/13/5
f 21/7/5 23/6/5 24/5/5

