# Created by Kenney (www.kenney.nl)

mtllib low_buildingC.mtl

g low_buildingC

v -0.2 0.9499999 0.2
v 0.2 0.9499999 0.2
v -0.2 1 0.2
v 0.2 1 0.2
v 0.2 0.9499999 -0.2
v -0.2 0.9499999 -0.2
v 0.2 1 -0.2
v -0.2 1 -0.2
v 0.25 0.55 -0.25
v 0.2 0.55 0.2
v 0.25 0.55 0.25
v -0.25 0.55 0.25
v -0.2 0.55 0.2
v -0.2 0.55 -0.2
v -0.25 0.55 -0.25
v 0.2 0.55 -0.2
v 0.25 1 0.25
v 0.25 1 -0.25
v -0.25 1 -0.25
v -0.25 1 0.25
v 0.25 0.5 0.25
v 0.2 0.5 -0.2
v 0.25 0.5 -0.25
v -0.25 0.5 -0.25
v -0.2 0.5 -0.2
v -0.2 0.5 0.2
v -0.25 0.5 0.25
v 0.2 0.5 0.2
v 0.2 0.15 0.25
v 0.2 0.15 0.2
v -0.2 0.15 0.25
v -0.2 0.15 0.2
v -0.25 0 -0.25
v -0.2 0 -0.25
v -0.2 0.15 -0.25
v 0.2 0.15 -0.25
v 0.2 0 -0.25
v 0.25 0 -0.25
v 0.25 0.15 0.2
v 0.25 0.15 -0.2
v 0.2 0.15 -0.2
v -0.2 0.15 -0.2
v -0.25 0.15 0.2
v -0.25 0.15 -0.2
v -0.2 0 0.25
v -0.2 9.023893E-17 0.2
v -0.25 0 0.25
v -0.25 0 0.2
v -0.25 0 -0.2
v -0.2 9.023893E-17 -0.2
v 0.25 0 -0.2
v 0.2 9.023893E-17 -0.2
v 0.25 0 0.25
v 0.2 0 0.25
v 0.25 0 0.2
v 0.2 9.023893E-17 0.2
v -0.0125 2.025 -0.0125
v 0.0125 2.025 -0.0125
v -0.0125 2.225 -0.0125
v 0.0125 2.225 -0.0125
v 0.0125 2.225 0.0125
v -0.0125 2.225 0.0125
v 0.05 2.025 -0.05
v 0.05 1.925 -0.05
v 0.05 2.025 0.05
v 0.05 1.925 0.05
v -0.05 1.925 0.05
v -0.05 2.025 0.05
v -0.05 1.925 -0.05
v -0.05 2.025 -0.05
v -0.0125 2.025 0.0125
v 0.0125 2.025 0.0125
v 0.15 1.95 -0.15
v 0.15 0.9499999 -0.15
v 0.15 1.95 0.15
v 0.15 0.9499999 0.15
v -0.15 0.9499999 0.15
v -0.15 1.95 0.15
v -0.1 1.925 0.1
v 0.1 1.925 0.1
v -0.1 1.95 0.1
v 0.1 1.95 0.1
v 0.1 1.925 -0.1
v -0.1 1.925 -0.1
v 0.1 1.95 -0.1
v -0.1 1.95 -0.1
v -0.15 0.9499999 -0.15
v -0.15 1.95 -0.15

vn 0 0 -1
vn 0 0 1
vn -1 0 0
vn 1 0 0
vn 0 -1 0
vn 0 1 0

vt 0 0
vt 7.874016 -7.874016
vt 5.905512 5.905512
vt 7.874016 7.874016
vt -7.874016 19.68504
vt -7.874016 21.65354
vt 7.874016 19.68504
vt 7.874016 5.905512
vt 7.874016 3.552714E-15
vt -7.874016 5.905512
vt -7.874016 3.552714E-15
vt 3.937008 -3.937008
vt 1.968504 1.968504
vt 3.937008 3.937008
vt -7.874016 7.874016
vt -5.905512 -5.905512
vt -7.874016 -7.874016
vt 5.905512 -5.905512
vt -5.905512 5.905512
vt 7.874016 21.65354
vt -3.937008 3.937008
vt -1.968504 -1.968504
vt -3.937008 -3.937008
vt 1.968504 -1.968504
vt -1.968504 1.968504

usemtl _defaultMat

f 3/1/1 2/1/1 1/1/1
f 2/1/1 3/1/1 4/1/1
f 7/4/2 6/3/2 5/2/2
f 6/4/2 7/3/2 8/2/2
f 2/4/3 7/3/3 5/2/3
f 7/4/3 2/3/3 4/2/3
f 3/4/4 6/3/4 8/2/4
f 6/4/4 3/3/4 1/2/4
f 11/4/5 10/3/5 9/2/5
f 10/4/5 11/3/5 12/2/5
f 10/4/5 12/3/5 13/2/5
f 13/4/5 12/3/5 14/2/5
f 9/4/5 16/3/5 15/2/5
f 16/4/5 9/3/5 10/2/5
f 15/4/5 16/3/5 14/2/5
f 15/4/5 14/3/5 12/2/5
f 18/4/6 7/3/6 17/2/6
f 7/4/6 18/3/6 19/2/6
f 7/4/6 19/3/6 8/2/6
f 8/4/6 19/3/6 3/2/6
f 17/4/6 4/3/6 20/2/6
f 4/4/6 17/3/6 7/2/6
f 20/4/6 4/3/6 3/2/6
f 20/4/6 3/3/6 19/2/6
f 19/4/1 9/3/1 15/2/1
f 9/4/1 19/3/1 18/2/1
f 12/4/3 19/3/3 15/2/3
f 19/4/3 12/3/3 20/2/3
f 17/4/4 9/3/4 18/2/4
f 9/4/4 17/3/4 11/2/4
f 17/4/2 12/3/2 11/2/2
f 12/4/2 17/3/2 20/2/2
f 23/7/6 22/6/6 21/5/6
f 22/7/6 23/6/6 24/5/6
f 22/7/6 24/6/6 25/5/6
f 25/7/6 24/6/6 26/5/6
f 21/7/6 28/6/6 27/5/6
f 28/7/6 21/6/6 22/5/6
f 27/7/6 28/6/6 26/5/6
f 27/7/6 26/6/6 24/5/6
f 31/7/5 30/6/5 29/5/5
f 30/7/5 31/6/5 32/5/5
f 24/7/1 34/6/1 33/5/1
f 34/7/1 24/6/1 35/5/1
f 35/7/1 24/6/1 36/5/1
f 36/7/1 38/6/1 37/5/1
f 38/7/1 36/6/1 23/5/1
f 23/7/1 36/6/1 24/5/1
f 30/7/5 40/6/5 39/5/5
f 40/7/5 30/6/5 41/5/5
f 42/7/5 36/6/5 41/5/5
f 36/7/5 42/6/5 35/5/5
f 43/7/5 42/6/5 32/5/5
f 42/7/5 43/6/5 44/5/5
f 47/7/5 46/6/5 45/5/5
f 46/7/5 47/6/5 48/5/5
f 50/7/2 44/6/2 49/5/2
f 44/7/2 50/6/2 42/5/2
f 52/7/5 38/6/5 51/5/5
f 38/7/5 52/6/5 37/5/5
f 43/7/1 46/6/1 48/5/1
f 46/7/1 43/6/1 32/5/1
f 52/7/3 36/6/3 37/5/3
f 36/7/3 52/6/3 41/5/3
f 49/7/5 34/6/5 50/5/5
f 34/7/5 49/6/5 33/5/5
f 47/7/3 43/6/3 48/5/3
f 49/7/3 24/6/3 33/5/3
f 24/7/3 49/6/3 44/5/3
f 24/7/3 44/6/3 27/5/3
f 27/7/3 44/6/3 43/5/3
f 27/7/3 43/6/3 47/5/3
f 42/7/4 34/6/4 35/5/4
f 34/7/4 42/6/4 50/5/4
f 31/10/4 46/9/4 32/8/4
f 46/10/4 31/9/4 45/8/4
f 21/10/2 54/9/2 53/8/2
f 54/10/2 21/9/2 29/8/2
f 29/10/2 21/9/2 31/8/2
f 31/10/2 47/9/2 45/8/2
f 47/10/2 31/9/2 27/8/2
f 27/10/2 31/9/2 21/8/2
f 23/10/4 40/9/4 38/8/4
f 40/10/4 23/9/4 21/8/4
f 40/10/4 21/9/4 39/8/4
f 55/10/4 21/9/4 53/8/4
f 39/10/4 21/9/4 55/8/4
f 51/10/4 38/9/4 40/8/4
f 54/9/5 55/10/5 53/11/5
f 55/9/5 54/10/5 56/11/5
f 56/9/1 39/10/1 55/11/1
f 39/9/1 56/10/1 30/11/1
f 54/9/3 30/10/3 56/11/3
f 30/9/3 54/10/3 29/11/3
f 40/9/2 52/10/2 51/11/2
f 52/9/2 40/10/2 41/11/2
f 59/9/1 58/10/1 57/11/1
f 58/9/1 59/10/1 60/11/1
f 59/9/6 61/10/6 60/11/6
f 61/9/6 59/10/6 62/11/6
f 65/9/4 64/10/4 63/11/4
f 64/9/4 65/10/4 66/11/4
f 65/9/2 67/10/2 66/11/2
f 67/9/2 65/10/2 68/11/2
f 67/9/3 70/10/3 69/11/3
f 70/9/3 67/10/3 68/11/3
f 70/9/1 64/10/1 69/11/1
f 64/9/1 70/10/1 63/11/1
f 71/9/3 59/10/3 57/11/3
f 59/9/3 71/10/3 62/11/3
f 61/9/4 58/10/4 60/11/4
f 58/9/4 61/10/4 72/11/4
f 63/9/6 58/10/6 65/11/6
f 58/9/6 63/10/6 70/11/6
f 58/9/6 70/10/6 57/11/6
f 57/9/6 70/10/6 71/11/6
f 65/9/6 72/10/6 68/11/6
f 72/9/6 65/10/6 58/11/6
f 68/9/6 72/10/6 71/11/6
f 68/9/6 71/10/6 70/11/6
f 61/9/2 71/10/2 72/11/2
f 71/9/2 61/10/2 62/11/2
f 75/14/4 74/13/4 73/12/4
f 74/14/4 75/13/4 76/12/4
f 75/14/2 77/13/2 76/12/2
f 77/14/2 75/13/2 78/12/2
f 81/14/1 80/13/1 79/12/1
f 80/14/1 81/13/1 82/12/1
f 85/14/2 84/13/2 83/12/2
f 84/14/2 85/13/2 86/12/2
f 80/14/3 85/13/3 83/12/3
f 85/14/3 80/13/3 82/12/3
f 77/14/3 88/13/3 87/12/3
f 88/14/3 77/13/3 78/12/3
f 73/14/6 85/13/6 75/12/6
f 85/14/6 73/13/6 88/12/6
f 85/14/6 88/13/6 86/12/6
f 86/14/6 88/13/6 81/12/6
f 75/14/6 82/13/6 78/12/6
f 82/14/6 75/13/6 85/12/6
f 78/14/6 82/13/6 81/12/6
f 78/14/6 81/13/6 88/12/6
f 88/14/1 74/13/1 87/12/1
f 74/14/1 88/13/1 73/12/1
f 81/14/4 84/13/4 86/12/4
f 84/14/4 81/13/4 79/12/4

usemtl border

f 5/17/6 74/16/6 2/15/6
f 74/16/6 5/17/6 6/2/6
f 74/16/6 6/2/6 87/18/6
f 87/18/6 6/2/6 77/3/6
f 76/19/6 2/15/6 74/16/6
f 2/15/6 76/19/6 1/4/6
f 1/4/6 76/19/6 77/3/6
f 1/4/6 77/3/6 6/2/6
f 10/20/2 26/5/2 28/7/2
f 26/5/2 10/20/2 13/6/2
f 26/7/3 14/6/3 25/5/3
f 14/6/3 26/7/3 13/20/3
f 14/20/1 22/5/1 25/7/1
f 22/5/1 14/20/1 16/6/1
f 10/6/4 22/7/4 16/20/4
f 22/7/4 10/6/4 28/5/4
f 46/9/3 42/10/3 50/11/3
f 42/10/3 46/9/3 32/8/3
f 46/15/5 52/2/5 56/4/5
f 52/2/5 46/15/5 50/17/5
f 30/8/2 46/11/2 56/9/2
f 46/11/2 30/8/2 32/10/2
f 42/8/1 52/11/1 50/9/1
f 52/11/1 42/8/1 41/10/1
f 30/10/4 52/9/4 41/8/4
f 52/9/4 30/10/4 56/11/4
f 83/23/6 64/22/6 80/21/6
f 64/22/6 83/23/6 84/12/6
f 64/22/6 84/12/6 69/24/6
f 69/24/6 84/12/6 67/13/6
f 66/25/6 80/21/6 64/22/6
f 80/21/6 66/25/6 79/14/6
f 79/14/6 66/25/6 67/13/6
f 79/14/6 67/13/6 84/12/6

