# Created by Kenney (www.kenney.nl)

mtllib low_buildingH.mtl

g low_buildingH

v -0.25 0 -0.25
v -0.25 0.5 -0.25
v -0.25 0 0.25
v -0.25 0.5 0.25
v 0.1 0.65 -0.1
v 0.1 0.7 -0.1
v 0.1 0.65 0.1
v 0.1 0.7 0.1
v 0.25 0.5 -0.25
v 0.25 0 -0.25
v 0.25 0.5 0.25
v 0.25 0 0.25
v -0.1 0.65 -0.1
v -0.1 0.7 -0.1
v -0.1 0.65 0.1
v -0.1 0.7 0.1
v 0.2 0.5 0.2
v -0.2 0.5 0.2
v 0.2 0.65 0.2
v -0.2 0.65 0.2
v -0.2 0.5 -0.2
v -0.2 0.65 -0.2
v 0.2 0.65 -0.2
v 0.15 0.7 -0.15
v 0.15 0.7 0.15
v -0.15 0.7 -0.15
v -0.15 0.7 0.15
v 0.2 0.5 -0.2

vn -1 0 0
vn 1 0 0
vn 0 0 1
vn 0 0 -1
vn 0 -1 0
vn 0.7071068 0.7071068 0
vn 0 0.7071068 -0.7071068
vn -0.7071068 0.7071068 0
vn 0 1 0
vn 0 0.7071068 0.7071068

vt 0 0
vt 9.84252 -9.84252
vt 7.874016 7.874016
vt 9.84252 9.84252
vt 3.937008 3.937008
vt 3.937008 -3.937008
vt -3.937008 3.937008
vt -9.84252 9.84252
vt -7.874016 -7.874016
vt -9.84252 -9.84252
vt 7.874016 -7.874016
vt -7.874016 7.874016
vt -3.937008 -3.937008

usemtl _defaultMat

f 3/1/1 2/1/1 1/1/1
f 2/1/1 3/1/1 4/1/1
f 7/1/1 6/1/1 5/1/1
f 6/1/1 7/1/1 8/1/1
f 11/1/2 10/1/2 9/1/2
f 10/1/2 11/1/2 12/1/2
f 6/1/3 13/1/3 5/1/3
f 13/1/3 6/1/3 14/1/3
f 16/1/4 7/1/4 15/1/4
f 7/1/4 16/1/4 8/1/4
f 3/1/5 10/1/5 12/1/5
f 10/1/5 3/1/5 1/1/5
f 19/1/3 18/1/3 17/1/3
f 18/1/3 19/1/3 20/1/3
f 11/1/3 3/1/3 12/1/3
f 3/1/3 11/1/3 4/1/3
f 18/1/1 22/1/1 21/1/1
f 22/1/1 18/1/1 20/1/1
f 24/1/6 19/1/6 23/1/6
f 19/1/6 24/1/6 25/1/6
f 26/1/7 23/1/7 22/1/7
f 23/1/7 26/1/7 24/1/7
f 16/1/2 13/1/2 14/1/2
f 13/1/2 16/1/2 15/1/2
f 2/4/4 10/3/4 1/2/4
f 10/4/4 2/3/4 9/2/4
f 22/4/8 27/3/8 26/2/8
f 27/4/8 22/3/8 20/2/8
f 22/7/4 28/6/4 21/5/4
f 28/7/4 22/6/4 23/5/4
f 24/7/9 6/6/9 25/5/9
f 6/7/9 24/6/9 26/5/9
f 6/7/9 26/6/9 14/5/9
f 14/7/9 26/6/9 16/5/9
f 25/7/9 8/6/9 27/5/9
f 8/7/9 25/6/9 6/5/9
f 27/7/9 8/6/9 16/5/9
f 27/7/9 16/6/9 26/5/9
f 23/7/9 5/6/9 19/5/9
f 5/7/9 23/6/9 22/5/9
f 5/7/9 22/6/9 13/5/9
f 13/7/9 22/6/9 15/5/9
f 19/7/9 7/6/9 20/5/9
f 7/7/9 19/6/9 5/5/9
f 20/7/9 7/6/9 15/5/9
f 20/7/9 15/6/9 22/5/9
f 19/7/2 28/6/2 23/5/2
f 28/7/2 19/6/2 17/5/2
f 25/7/10 20/6/10 19/5/10
f 20/7/10 25/6/10 27/5/10

usemtl border

f 9/10/9 28/9/9 11/8/9
f 28/9/9 9/10/9 2/2/9
f 28/9/9 2/2/9 21/11/9
f 21/11/9 2/2/9 18/3/9
f 17/12/9 11/8/9 28/9/9
f 11/8/9 17/12/9 4/4/9
f 4/4/9 17/12/9 18/3/9
f 4/4/9 18/3/9 2/2/9
f 13/6/9 7/7/9 5/13/9
f 7/7/9 13/6/9 15/5/9

