# Created by Kenney (www.kenney.nl)

mtllib roof_overhang.mtl

g roof_overhang

v -0.07928932 0 -0.25
v -0.1792893 0 -0.15
v -0.07928932 0.08 -0.25
v -0.1792893 0.08 -0.15
v -0.1 0 -0.3
v 0.1 0 -0.3
v -0.1 0.03 -0.3
v 0.1 0.03 -0.3
v -0.1082843 0.03 -0.32
v 0.1082843 0.03 -0.32
v -0.1082843 0.08 -0.32
v 0.1082843 0.08 -0.32
v 0.07928932 0 -0.25
v 0.07928932 0.08 -0.25
v 0.1792893 0 -0.15
v 0.1792893 0.08 -0.15
v -0.2 0 -0.2
v -0.2 0.03 -0.2
v -0.2 0 -0.15
v -0.2 0.03 -0.15
v 0.22 0.03 -0.15
v 0.2 0.03 -0.2
v 0.2 0.03 -0.15
v 0.22 0.03 -0.2082843
v -0.22 0.03 -0.2082843
v -0.22 0.03 -0.15
v -0.22 0.08 -0.2082843
v 0.22 0.08 -0.2082843
v 0.22 0.08 -0.15
v -0.22 0.08 -0.15
v 0.2 0 -0.2
v 0.2 0 -0.15
v 0.2 0 0.2
v -0.2 0 0.2

vn 0.7071068 0 0.7071068
vn 0 0 -1
vn -0.7071068 0 0.7071068
vn -1 0 0
vn 0 -1 0
vn 0 0 1
vn -0.7071068 0 -0.7071068
vn 0 1 0
vn 1 0 0
vn 0.7071068 0 -0.7071068

vt 4.752389 0
vt -0.8153811 0
vt 4.752389 3.149606
vt -0.8153811 3.149606
vt 3.937008 0
vt -3.937008 0
vt 3.937008 1.181102
vt -3.937008 1.181102
vt 4.26316 1.181102
vt -4.26316 1.181102
vt 4.26316 3.149606
vt -4.26316 3.149606
vt -4.752389 -2.6126E-28
vt -4.752389 3.149606
vt 0.8153811 -2.6126E-28
vt 0.8153811 3.149606
vt -7.874016 0
vt -7.874016 1.181102
vt -5.905512 0
vt -5.905512 1.181102
vt 8.661417 -5.905512
vt 7.874016 -7.874016
vt 7.874016 -5.905512
vt 8.661417 -8.200169
vt 4.26316 -12.59842
vt 3.937008 -11.81102
vt -4.26316 -12.59842
vt -3.937008 -11.81102
vt -7.874016 -7.874016
vt -8.661417 -8.200169
vt -7.874016 -5.905512
vt -8.661417 -5.905512
vt 3.121627 0
vt -3.121627 0
vt 3.121627 3.149606
vt -3.121627 3.149606
vt 0.3261524 1.181102
vt -5.893922 1.181102
vt 0.3261524 3.149606
vt -5.893922 3.149606
vt -7.058635 -5.905512
vt -3.121627 -9.84252
vt 3.121627 -9.84252
vt 7.058635 -5.905512
vt 7.874016 1.181102
vt 7.874016 0
vt 5.905512 1.181102
vt 5.905512 0
vt -8.200169 1.181102
vt -8.200169 3.149606
vt -5.905512 3.149606
vt 5.893922 3.149606
vt 5.893922 1.181102
vt -0.3261524 3.149606
vt -0.3261524 1.181102
vt 5.56777 1.181102
vt 5.56777 0
vt -1.087752E-11 1.181102
vt -1.087752E-11 0
vt 8.661417 1.181102
vt 8.661417 3.149606
vt 7.058635 3.149606
vt 7.058635 0
vt -7.058635 0
vt -7.058635 3.149606
vt -8.661417 1.181102
vt -8.661417 3.149606
vt -9.299228E-13 0
vt -5.56777 0
vt -9.299228E-13 1.181102
vt -5.56777 1.181102
vt 8.200169 3.149606
vt 8.200169 1.181102
vt 5.905512 3.149606
vt -7.874016 7.874016
vt 7.874016 7.874016

usemtl border

f 3/3/1 2/2/1 1/1/1
f 2/2/1 3/3/1 4/4/1
f 7/7/2 6/6/2 5/5/2
f 6/6/2 7/7/2 8/8/2
f 11/11/2 10/10/2 9/9/2
f 10/10/2 11/11/2 12/12/2
f 15/15/3 14/14/3 13/13/3
f 14/14/3 15/15/3 16/16/3
f 19/19/4 18/18/4 17/17/4
f 18/18/4 19/19/4 20/20/4
f 23/23/5 22/22/5 21/21/5
f 22/22/5 24/24/5 21/21/5
f 24/24/5 22/22/5 10/25/5
f 10/25/5 22/22/5 8/26/5
f 10/25/5 8/26/5 9/27/5
f 9/27/5 8/26/5 7/28/5
f 9/27/5 7/28/5 18/29/5
f 9/27/5 18/29/5 25/30/5
f 25/30/5 18/29/5 20/31/5
f 25/30/5 20/31/5 26/32/5
f 14/35/6 1/34/6 13/33/6
f 1/34/6 14/35/6 3/36/6
f 27/39/7 9/38/7 25/37/7
f 9/38/7 27/39/7 11/40/7
f 12/27/8 29/32/8 28/30/8
f 29/32/8 12/27/8 16/41/8
f 16/41/8 12/27/8 14/42/8
f 14/42/8 12/27/8 11/25/8
f 14/42/8 11/25/8 3/43/8
f 3/43/8 11/25/8 4/44/8
f 4/44/8 11/25/8 27/24/8
f 4/44/8 27/24/8 30/21/8
f 23/47/9 31/46/9 22/45/9
f 31/46/9 23/47/9 32/48/9
f 26/20/4 27/50/4 25/49/4
f 27/50/4 26/20/4 30/51/4
f 28/54/10 10/53/10 12/52/10
f 10/53/10 28/54/10 24/55/10
f 22/58/10 6/57/10 8/56/10
f 6/57/10 22/58/10 31/59/10
f 29/61/6 23/45/6 21/60/6
f 16/62/6 23/45/6 29/61/6
f 15/63/6 23/45/6 16/62/6
f 23/45/6 15/63/6 32/46/6
f 4/65/6 19/17/6 2/64/6
f 19/17/6 4/65/6 20/18/6
f 20/18/6 4/65/6 26/66/6
f 26/66/6 4/65/6 30/67/6
f 18/70/7 5/69/7 17/68/7
f 5/69/7 18/70/7 7/71/7
f 29/74/9 24/73/9 28/72/9
f 24/73/9 29/74/9 21/47/9

usemtl door

f 6/28/8 32/31/8 31/29/8
f 32/31/8 6/28/8 15/41/8
f 15/41/8 6/28/8 13/42/8
f 13/42/8 6/28/8 5/26/8
f 13/42/8 5/26/8 1/43/8
f 1/43/8 5/26/8 2/44/8
f 2/44/8 5/26/8 17/22/8
f 2/44/8 17/22/8 19/23/8
f 15/41/8 33/75/8 32/31/8
f 33/75/8 15/41/8 34/76/8
f 34/76/8 15/41/8 13/42/8
f 34/76/8 13/42/8 1/43/8
f 34/76/8 1/43/8 2/44/8
f 34/76/8 2/44/8 19/23/8

