# Created by Kenney (www.kenney.nl)

mtllib sign_hospital.mtl

g sign_hospital

v 0.025 0.3680782 -0.2
v 0.025 0.03192179 -0.2
v 0.025 0.3840391 -0.1957233
v 0.025 0.01596089 -0.1957233
v 0.025 0.3957233 -0.1840391
v 0.025 0.004276709 -0.1840391
v 0.025 0.4 -0.1680782
v 0.025 0 -0.1680782
v 0.025 0.4 0.1680782
v 0.025 0 0.1680782
v 0.025 0.3957233 0.1840391
v 0.025 0.004276709 0.1840391
v 0.025 0.3840391 0.1957233
v 0.025 0.01596089 0.1957233
v 0.025 0.3680782 0.2
v 0.025 0.03192179 0.2
v -0.025 0.2401238 0.04012378
v -0.025 0.311455 0.04012378
v -0.025 0.2401238 0.1114549
v -0.025 0.3680782 -0.1680782
v -0.025 0.1598762 -0.1114549
v -0.025 0.03192179 -0.1680782
v -0.025 0.08854506 -0.04012378
v -0.025 0.03192179 0.1680782
v -0.025 0.2401238 -0.1114549
v -0.025 0.08854506 0.04012378
v -0.025 0.1598762 0.04012378
v -0.025 0.1598762 0.1114549
v -0.025 0.3680782 0.1680782
v -0.025 0.311455 -0.04012378
v -0.025 0.2401238 -0.04012378
v -0.025 0.1598762 -0.04012378
v -0.025 0.03192179 0.2
v -0.025 0.3680782 0.2
v -0.025 0 0.1680782
v -0.025 0 -0.1680782
v -0.025 0.03192179 -0.2
v -0.025 0.3680782 -0.2
v -0.025 0.4 -0.1680782
v -0.025 0.4 0.1680782
v -0.025 0.004276709 0.1840391
v -0.025 0.3957233 0.1840391
v -0.025 0.01596089 0.1957233
v -0.025 0.3840391 0.1957233
v -0.025 0.3957233 -0.1840391
v -0.025 0.004276709 -0.1840391
v -0.025 0.3840391 -0.1957233
v -0.025 0.01596089 -0.1957233

vn 1 0 0
vn -1 0 0
vn 0 0 1
vn 0 -1 0
vn 0 0 -1
vn 0 1 0
vn 0 0.258819 -0.9659258
vn 0 0.5 -0.8660254
vn 0 0.8660254 -0.5
vn 0 0.9659258 -0.258819
vn 0 0.9659258 0.258819
vn 0 0.8660254 0.5
vn 0 0.5 0.8660254
vn 0 0.258819 0.9659258
vn 0 -0.5 0.8660254
vn 0 -0.258819 0.9659258
vn 0 -0.8660254 0.5
vn 0 -0.9659258 0.258819
vn 0 -0.9659258 -0.258819
vn 0 -0.8660254 -0.5
vn 0 -0.5 -0.8660254
vn 0 -0.258819 -0.9659258

vt 0 0
vt -1.579676 6.29434
vt -4.38799 6.29434
vt -1.579676 9.453692
vt 0.984252 1.256763
vt -0.984252 1.256763
vt 0.984252 14.49127
vt -0.984252 14.49127
vt 0.984252 6.617252
vt 0.984252 -6.617252
vt -0.984252 6.617252
vt -0.984252 -6.617252
vt -6.617252 0
vt -6.617252 1.256763
vt 6.617252 0
vt 6.617252 1.256763
vt 7.245634 0.1683744
vt 6.617252 14.49127
vt 6.617252 15.74803
vt 7.245634 15.57966
vt 7.705641 0.6283817
vt 7.705641 15.11965
vt 7.874016 1.256763
vt 7.874016 14.49127
vt -6.617252 15.74803
vt -7.245634 15.57966
vt -7.245634 0.1683744
vt -7.705641 15.11965
vt -7.705641 0.6283817
vt -7.874016 14.49127
vt -7.874016 1.256763
vt -6.617252 14.49127
vt 0.984252 11.95955
vt -0.984252 11.95955
vt 0.984252 12.61009
vt -0.984252 12.61009
vt 0.984252 5.242496
vt -0.984252 5.242496
vt 0.984252 5.893044
vt -0.984252 5.893044
vt -0.984252 -2.966433
vt -0.984252 -2.315885
vt 0.984252 -2.966433
vt 0.984252 -2.315885
vt 0.984252 2.601337
vt -0.984252 2.601337
vt 0.984252 3.251885
vt -0.984252 3.251885
vt 0.984252 7.042324
vt 0.984252 6.391775
vt -0.984252 7.042324
vt -0.984252 6.391775
vt 1.579676 6.29434
vt 1.579676 9.453692
vt 4.38799 6.29434
vt 4.38799 9.453692
vt 1.579676 12.26201
vt 1.579676 3.486026
vt -1.579676 12.26201
vt -1.579676 3.486026
vt -4.38799 9.453692

usemtl _defaultMat

f 3/1/1 2/1/1 1/1/1
f 2/1/1 3/1/1 4/1/1
f 4/1/1 3/1/1 5/1/1
f 4/1/1 5/1/1 6/1/1
f 6/1/1 5/1/1 7/1/1
f 6/1/1 7/1/1 8/1/1
f 8/1/1 7/1/1 9/1/1
f 8/1/1 9/1/1 10/1/1
f 10/1/1 9/1/1 11/1/1
f 10/1/1 11/1/1 12/1/1
f 12/1/1 11/1/1 13/1/1
f 12/1/1 13/1/1 14/1/1
f 14/1/1 13/1/1 15/1/1
f 14/1/1 15/1/1 16/1/1
f 19/4/2 18/3/2 17/2/2
f 22/4/2 21/3/2 20/2/2
f 21/4/2 22/3/2 23/2/2
f 23/4/2 22/3/2 24/2/2
f 20/4/2 21/3/2 25/2/2
f 23/4/2 24/3/2 26/2/2
f 26/4/2 24/3/2 27/2/2
f 27/4/2 24/3/2 28/2/2
f 20/4/2 30/3/2 29/2/2
f 30/4/2 20/3/2 25/2/2
f 30/4/2 25/3/2 31/2/2
f 29/4/2 30/3/2 18/2/2
f 29/4/2 18/3/2 19/2/2
f 29/4/2 19/3/2 28/2/2
f 29/4/2 28/3/2 24/2/2
f 32/4/2 21/3/2 23/2/2

usemtl border

f 15/7/3 33/6/3 16/5/3
f 33/6/3 15/7/3 34/8/3
f 35/11/4 8/10/4 10/9/4
f 8/10/4 35/11/4 36/12/4
f 38/7/5 2/6/5 37/5/5
f 2/6/5 38/7/5 1/8/5
f 39/10/6 9/11/6 7/12/6
f 9/11/6 39/10/6 40/9/6
f 35/15/2 22/14/2 36/13/2
f 22/14/2 35/15/2 24/16/2
f 24/16/2 35/15/2 41/17/2
f 24/16/2 41/17/2 29/18/2
f 29/18/2 41/17/2 40/19/2
f 40/19/2 41/17/2 42/20/2
f 42/20/2 41/17/2 43/21/2
f 42/20/2 43/21/2 44/22/2
f 44/22/2 43/21/2 33/23/2
f 44/22/2 33/23/2 34/24/2
f 39/25/2 36/13/2 22/14/2
f 39/25/2 29/18/2 40/19/2
f 45/26/2 36/13/2 39/25/2
f 45/26/2 46/27/2 36/13/2
f 47/28/2 46/27/2 45/26/2
f 47/28/2 48/29/2 46/27/2
f 38/30/2 48/29/2 47/28/2
f 48/29/2 38/30/2 37/31/2
f 39/25/2 20/32/2 29/18/2
f 39/25/2 22/14/2 20/32/2
f 47/35/8 1/34/7 38/33/7
f 1/34/7 47/35/8 3/36/8
f 45/39/9 3/38/8 47/37/8
f 3/38/8 45/39/9 5/40/9
f 45/43/9 7/42/10 5/41/9
f 7/42/10 45/43/9 39/44/10
f 40/42/11 11/43/12 9/44/11
f 11/43/12 40/42/11 42/41/12
f 11/39/12 44/38/13 13/37/13
f 44/38/13 11/39/12 42/40/12
f 13/35/13 34/34/14 15/33/14
f 34/34/14 13/35/13 44/36/13
f 16/47/16 43/46/15 14/45/15
f 43/46/15 16/47/16 33/48/16
f 43/40/15 12/37/17 14/39/15
f 12/37/17 43/40/15 41/38/17
f 41/51/17 10/50/18 12/49/17
f 10/50/18 41/51/17 35/52/18
f 36/50/19 6/51/20 8/52/19
f 6/51/20 36/50/19 46/49/20
f 46/37/20 4/40/21 6/38/20
f 4/40/21 46/37/20 48/39/21
f 37/47/22 4/46/21 48/45/21
f 4/46/21 37/47/22 2/48/22

usemtl roof

f 28/55/2 17/54/2 27/53/2
f 17/54/2 28/55/2 19/56/2
f 18/57/2 27/53/2 17/54/2
f 18/57/2 26/58/2 27/53/2
f 30/59/2 26/58/2 18/57/2
f 31/4/2 26/58/2 30/59/2
f 32/2/2 26/58/2 31/4/2
f 26/58/2 32/2/2 23/60/2
f 31/4/2 21/3/2 32/2/2
f 21/3/2 31/4/2 25/61/2

