# Created by Kenney (www.kenney.nl)

mtllib skyscraperF.mtl

g skyscraperF

v -0.52 0.27 -0.6
v -0.52 -1.804779E-16 -0.6
v -0.52 0.27 -0.58
v -0.52 -1.804779E-16 -0.58
v 0.6 -1.804779E-16 0.6
v 0.6 -1.804779E-16 -0.6
v 0.07 0 0.6
v 0.52 -1.804779E-16 -0.58
v 0.28 -1.804779E-16 -0.58
v 0.28 -1.804779E-16 -0.6
v 0.12 0 -0.58
v 0.07 0 0.58
v -0.12 0 -0.58
v -0.07 0 0.58
v -0.6 -1.804779E-16 0.6
v -0.07 0 0.6
v -0.12 0 -0.6
v -0.28 -1.804779E-16 -0.58
v -0.6 -1.804779E-16 -0.6
v -0.28 -1.804779E-16 -0.6
v 0.12 0 -0.6
v 0.52 -1.804779E-16 -0.6
v 0.3323006 3.8677 -0.6
v 0.3323006 0.8 -0.6
v 0.3323006 3.8677 -0.55
v 0.3323006 0.8 -0.55
v -0.2 4 0.2
v -0.2 4.04 0.2
v -0.2 4 0.4
v -0.2 4.04 0.4
v -0.3323006 3.8677 0.6
v -0.3323006 3.8677 0.55
v -0.4676994 3.8677 0.6
v -0.4676994 3.8677 0.55
v 0.62 4.08 0.6
v 0.62 4.03 0.6
v 0.6 4.08 0.62
v 0.6 4.03 0.62
v 0.07 0.27 0.58
v 0.07 0.27 0.6
v -0.3323006 0.8 0.55
v -0.3323006 0.8 0.6
v 0.6 0.05 -0.6
v 0.6 0.05 0.6
v 0.6 4 -0.6
v 0.6 4 -0.2
v 0.6 4.03 -0.6
v 0.6 4.03 0.6
v 0.6 4 0.2
v 0.6 4 0.6
v -0.06769941 0.8 0.55
v -0.06769941 0.8 0.6
v -0.06769941 3.8677 0.55
v -0.06769941 3.8677 0.6
v 0.28 0.27 -0.6
v 0.28 0.27 -0.58
v -0.07 0.27 0.6
v -0.07 0.27 0.58
v 0.62 4.08 -0.6
v 0.62 4.03 -0.6
v 0.09999999 4 0.2
v 0.09999999 4.04 0.2
v 0.09999999 4 0.4
v 0.09999999 4.04 0.4
v -0.6 4 -0.6
v -0.2 4 -0.6
v -0.6 4.03 -0.6
v 0.2 4 -0.6
v 0.52 0.27 -0.6
v 0.52 0.27 -0.58
v -0.6 4.03 0.62
v -0.6 4.08 0.62
v 0.12 0.27 -0.58
v 0.12 0.27 -0.6
v -0.12 0.27 -0.58
v -0.12 0.27 -0.6
v -0.6 4.03 0.6
v -0.62 4.03 0.6
v -0.62 4.03 -0.6
v 0.6 4.03 -0.62
v -0.6 4.03 -0.62
v -0.1 4 0.4
v -0.1 4.04 0.4
v 0.2 4.04 0.2
v 0.2 4.04 0.4
v -0.28 0.27 -0.6
v -0.28 0.27 -0.58
v 0.2661503 0.8 -0.6
v 0.2661503 3.93385 -0.6
v 0.4676994 3.8677 -0.6
v 0.5338497 3.93385 -0.6
v 0.4676994 0.8 -0.6
v 0.5338497 0.8 -0.6
v -0.5338497 0.8 -0.6
v -0.4676994 0.8 -0.6
v -0.5338497 3.93385 -0.6
v -0.4676994 3.8677 -0.6
v -0.3323006 3.8677 -0.6
v -0.2661503 3.93385 -0.6
v -0.3323006 0.8 -0.6
v -0.2661503 0.8 -0.6
v -0.6 0.05 -0.6
v -0.6 0.05 0.6
v 0.25 0.05 -0.6
v 0.25 0.3 -0.6
v 0.55 0.3 -0.6
v 0.55 0.05 -0.6
v 0.15 0.05 -0.6
v 0.15 0.3 -0.6
v -0.15 0.3 -0.6
v -0.15 0.05 -0.6
v -0.25 0.05 -0.6
v -0.25 0.3 -0.6
v -0.55 0.3 -0.6
v -0.55 0.05 -0.6
v 0.1 0.05 0.6
v 0.1 0.3 0.6
v -0.1 0.3 0.6
v -0.1 0.05 0.6
v 0.6 4.08 -0.62
v -0.55 4.08 -0.55
v -0.55 4 -0.55
v -0.55 4.08 0.55
v -0.55 4 -0.2
v -0.55 4 0.2
v -0.55 4 0.55
v -0.62 4.08 -0.6
v -0.62 4.08 0.6
v -0.1 4 0.2
v -0.1 4.04 0.2
v 0.06769941 0.8 0.55
v 0.0676994 3.8677 0.55
v 0.06769941 0.8 0.6
v 0.06769941 3.8677 0.6
v -0.1338497 0.8 -0.6
v -0.06769941 0.8 -0.6
v -0.1338497 3.93385 -0.6
v -0.06769941 3.8677 -0.6
v 0.06769941 3.8677 -0.6
v 0.1338497 3.93385 -0.6
v 0.06769941 0.8 -0.6
v 0.1338497 0.8 -0.6
v 0.5338497 0.8 0.6
v 0.4676994 0.8 0.6
v 0.5338497 3.93385 0.6
v 0.4676994 3.8677 0.6
v 0.3323006 3.8677 0.6
v 0.2661503 3.93385 0.6
v 0.3323006 0.8 0.6
v 0.2661503 0.8 0.6
v 0.3323006 0.8 0.55
v 0.3323006 3.8677 0.55
v -0.4676994 3.8677 -0.55
v -0.4676994 0.8 -0.55
v 0.06769941 3.8677 -0.55
v -0.06769941 3.8677 -0.55
v -0.4676994 0.8 0.55
v -0.4676994 0.8 0.6
v -0.6 4.08 -0.62
v 0.55 4.08 -0.55
v 0.55 4.08 0.55
v 0.55 4 -0.55
v 0.55 4 -0.2
v 0.55 4 0.2
v 0.55 4 0.55
v 0.2 4 -0.55
v -0.2 4 -0.55
v -0.3323006 3.8677 -0.55
v 0.2 4 0.6
v -0.2 4 0.6
v -0.6 4 0.6
v -0.3323006 0.8 -0.55
v 0.1338497 0.8 0.6
v 0.1338497 3.93385 0.6
v -0.1338497 3.93385 0.6
v -0.1338497 0.8 0.6
v 0.4676994 3.8677 0.55
v 0.2 4 0.4
v -0.2 4 0.55
v 0.2 4 0.55
v -0.2661503 0.8 0.6
v -0.2661503 3.93385 0.6
v -0.5338497 3.93385 0.6
v -0.5338497 0.8 0.6
v 0.4676994 0.8 -0.55
v 0.4676994 3.8677 -0.55
v 0.06769941 0.8 -0.55
v 0.2 4 0.2
v 0.4676994 0.8 0.55
v -0.6 4 -0.2
v -0.6 4 0.2
v -0.06769941 0.8 -0.55
v -0.05 0.02 -0.58
v 0.05 0.02 -0.58
v -0.05 0.25 -0.58
v 0.05 0.25 -0.58
v 0.3 0.05 -0.58
v 0.5 0.05 -0.58
v 0.3 0.25 -0.58
v 0.5 0.25 -0.58
v 0.07 0.05 -0.58
v 0.1 0.05 -0.58
v 0.07 0.25 -0.58
v 0.1 0.25 -0.58
v -0.1 0.05 -0.58
v -0.07 0.05 -0.58
v -0.1 0.25 -0.58
v -0.07 0.25 -0.58
v -0.5 0.05 -0.58
v -0.3 0.05 -0.58
v -0.5 0.25 -0.58
v -0.3 0.25 -0.58
v 0.06769941 0.7 0.6
v -0.06769941 0.7 0.6
v -0.3323006 0.7 -0.6
v -0.06769941 0.7 -0.6
v -0.4676994 0.7 -0.6
v 0.06769941 0.7 -0.6
v 0.3323006 0.7 -0.6
v 0.4676994 0.7 -0.6
v 0.6 0.4 -0.6
v -0.6 0.4 -0.6
v 0.4676994 0.7 0.6
v -0.3323006 0.7 0.6
v -0.4676994 0.7 0.6
v -0.6 0.4 0.6
v 0.6 0.4 0.6
v 0.3323006 0.7 0.6
v -0.6 0.4 -0.2
v 0.6 0.4 -0.2

vn 1 0 0
vn 0 -1 0
vn -1 0 0
vn 0.7071068 0 0.7071068
vn 0 0 -1
vn 0 0 1
vn 0 1 0
vn 0.7071068 0 -0.7071068
vn -0.7071068 0 -0.7071068
vn -0.7071068 0 0.7071068
vn 0 0.4472136 0.8944272
vn 0 0.4472136 -0.8944272

vt 23.62205 10.62992
vt 23.62205 -7.105427E-15
vt 22.83465 10.62992
vt 22.83465 -7.105427E-15
vt 23.62205 23.62205
vt 23.62205 -23.62205
vt 2.755906 23.62205
vt 20.47244 -22.83465
vt 11.02362 -22.83465
vt 11.02362 -23.62205
vt 4.72441 -22.83465
vt 2.755906 22.83465
vt -4.72441 -22.83465
vt -2.755906 22.83465
vt -23.62205 23.62205
vt -2.755906 23.62205
vt -4.72441 -23.62205
vt -11.02362 -22.83465
vt -20.47244 -22.83465
vt -20.47244 -23.62205
vt -23.62205 -23.62205
vt -11.02362 -23.62205
vt 4.72441 -23.62205
vt 20.47244 -23.62205
vt 23.62205 152.2716
vt 23.62205 31.49606
vt 21.65354 152.2716
vt 21.65354 31.49606
vt 7.874016 157.4803
vt 7.874016 159.0551
vt 15.74803 157.4803
vt 15.74803 159.0551
vt -13.0827 23.62205
vt -13.0827 21.65354
vt -18.41336 23.62205
vt -18.41336 21.65354
vt 0.5567768 160.6299
vt 0.5567768 158.6614
vt -0.5567772 160.6299
vt -0.5567772 158.6614
vt 22.83465 0
vt 23.62205 0
vt 23.62205 1.968504
vt -23.62205 1.968504
vt -23.62205 -7.105427E-15
vt 23.62205 157.4803
vt 23.62205 158.6614
vt -23.62205 158.6614
vt -7.874016 157.4803
vt -23.62205 157.4803
vt -21.65354 31.49606
vt -23.62205 31.49606
vt -21.65354 152.2716
vt -23.62205 152.2716
vt 23.62205 160.6299
vt 23.62205 158.6614
vt -23.62205 160.6299
vt -23.62205 158.6614
vt -23.62205 10.62992
vt -22.83465 -7.105427E-15
vt -22.83465 10.62992
vt 24.40945 23.62205
vt 23.62205 24.40945
vt -23.62205 24.40945
vt -24.40945 23.62205
vt -24.40945 -23.62205
vt 23.62205 -24.40945
vt 24.40945 -23.62205
vt -23.62205 -24.40945
vt -3.937008 157.4803
vt -3.937008 159.0551
vt -7.874016 159.0551
vt -7.874015 7.874016
vt -7.874015 15.74803
vt -3.937008 7.874016
vt -3.937008 15.74803
vt -22.83465 0
vt -23.62205 0
vt -10.47836 31.49606
vt -13.0827 31.49606
vt -10.47836 154.876
vt -13.0827 152.2716
vt -18.41336 152.2716
vt -21.0177 154.876
vt -18.41336 31.49606
vt -21.0177 31.49606
vt 21.0177 31.49606
vt 18.41336 31.49606
vt 21.0177 154.876
vt 18.41336 152.2716
vt 13.0827 152.2716
vt 10.47836 154.876
vt 13.0827 31.49606
vt 10.47836 31.49606
vt -11.02362 10.62992
vt -9.84252 1.968504
vt -11.02362 5.673408E-14
vt -4.72441 6.38395E-14
vt -9.84252 11.81102
vt -20.47244 10.62992
vt -21.65354 11.81102
vt -21.65354 1.968504
vt -20.47244 5.673408E-14
vt -23.62205 5.673408E-14
vt -5.905512 1.968504
vt -4.72441 10.62992
vt -5.905512 11.81102
vt 5.905512 11.81102
vt 4.72441 10.62992
vt 5.905512 1.968504
vt 4.72441 6.38395E-14
vt 9.84252 1.968504
vt 11.02362 5.673408E-14
vt 11.02362 10.62992
vt 9.84252 11.81102
vt 21.65354 11.81102
vt 20.47244 10.62992
vt 21.65354 1.968504
vt 20.47244 5.673408E-14
vt 23.62205 5.673408E-14
vt 2.755906 -1.674473E-26
vt 3.937008 1.968504
vt 2.755906 10.62992
vt 3.937008 11.81102
vt -2.755906 10.62992
vt -3.937008 11.81102
vt -3.937008 1.968504
vt -2.755906 -1.674473E-26
vt 0.556777 160.6299
vt 0.556777 158.6614
vt -0.556777 160.6299
vt -0.556777 158.6614
vt 21.65354 160.6299
vt 21.65354 157.4803
vt -21.65354 160.6299
vt -21.65354 157.4803
vt 3.937008 157.4803
vt 3.937008 159.0551
vt 3.937008 7.874016
vt 3.937008 15.74803
vt 7.874016 7.874016
vt 7.874016 15.74803
vt 5.269673 31.49606
vt 2.665331 31.49606
vt 5.269673 154.876
vt 2.665331 152.2716
vt -2.665331 152.2716
vt -5.269673 154.876
vt -2.665331 31.49606
vt -5.269673 31.49606
vt 2.665331 -21.65354
vt 2.665331 -23.62205
vt -2.665331 -21.65354
vt -2.665331 -23.62205
vt -21.65354 160.6299
vt 21.65354 160.6299
vt -15.74803 159.0551
vt -15.74803 157.4803
vt -13.0827 -21.65354
vt -13.0827 -23.62205
vt -18.41336 -21.65354
vt -18.41336 -23.62205
vt 7.874015 157.4803
vt 2.665331 23.62205
vt 2.665331 21.65354
vt -2.665331 23.62205
vt -2.665331 21.65354
vt -21.65354 -21.65354
vt 21.65354 -21.65354
vt 21.65354 21.65354
vt -21.65354 21.65354
vt 2.665331 31.49606
vt 2.665331 152.2716
vt 18.41336 23.62205
vt 18.41336 21.65354
vt 13.0827 23.62205
vt 13.0827 21.65354
vt 3.937008 157.4803
vt 7.874015 159.0551
vt 3.937008 159.0551
vt -7.874015 157.4803
vt -21.01771 154.876
vt -21.01771 31.49606
vt 18.41336 -21.65354
vt 18.41336 -23.62205
vt 13.0827 -21.65354
vt 13.0827 -23.62205
vt -3.937008 157.4803
vt -3.937008 159.0551
vt -7.874015 159.0551
vt 1.968504 0.7874016
vt -1.968504 0.7874016
vt 1.968504 9.84252
vt -1.968504 9.84252
vt -11.81102 1.968504
vt -19.68504 1.968504
vt -11.81102 9.84252
vt -19.68504 9.84252
vt -2.755906 1.968504
vt -2.755906 9.84252
vt -3.937008 9.84252
vt 2.755906 1.968504
vt 3.937008 9.84252
vt 2.755906 9.84252
vt 19.68504 1.968504
vt 11.81102 1.968504
vt 19.68504 9.84252
vt 11.81102 9.84252
vt 23.62205 15.74803
vt -7.874016 15.74803
vt 11.02362 -7.105427E-15
vt 20.47244 -7.105427E-15
vt 4.72441 0
vt -4.72441 0
vt 2.755906 0
vt -2.755906 0
vt -23.62205 15.74803
vt -20.47244 -7.105427E-15
vt -11.02362 -7.105427E-15
vt -21.65354 -7.874016
vt -7.874016 -21.65354
vt -21.65354 7.874016
vt -7.874015 21.65354
vt 7.874016 -21.65354
vt 7.874016 21.65354
vt 21.65354 -7.874016
vt 21.65354 7.874016

usemtl border

f 3/3/1 2/2/1 1/1/1
f 2/2/1 3/3/1 4/4/1
f 7/7/2 6/6/2 5/5/2
f 6/6/2 7/7/2 8/8/2
f 8/8/2 7/7/2 9/9/2
f 9/9/2 7/7/2 10/10/2
f 10/10/2 7/7/2 11/11/2
f 11/11/2 7/7/2 12/12/2
f 11/11/2 12/12/2 13/13/2
f 13/13/2 12/12/2 14/14/2
f 14/14/2 15/15/2 13/13/2
f 15/15/2 14/14/2 16/16/2
f 13/13/2 15/15/2 17/17/2
f 17/17/2 15/15/2 18/18/2
f 18/18/2 15/15/2 4/19/2
f 4/19/2 15/15/2 2/20/2
f 2/20/2 15/15/2 19/21/2
f 20/22/2 17/17/2 18/18/2
f 21/23/2 10/10/2 11/11/2
f 22/24/2 6/6/2 8/8/2
f 25/27/1 24/26/1 23/25/1
f 24/26/1 25/27/1 26/28/1
f 29/31/3 28/30/3 27/29/3
f 28/30/3 29/31/3 30/32/3
f 33/35/2 32/34/2 31/33/2
f 32/34/2 33/35/2 34/36/2
f 37/39/4 36/38/4 35/37/4
f 36/38/4 37/39/4 38/40/4
f 7/42/3 39/3/3 12/41/3
f 39/3/3 7/42/3 40/1/3
f 42/26/3 32/27/3 41/28/3
f 32/27/3 42/26/3 31/25/3
f 44/44/1 6/2/1 43/43/1
f 6/2/1 44/44/1 5/45/1
f 47/47/1 46/29/1 45/46/1
f 46/29/1 47/47/1 48/48/1
f 46/29/1 48/48/1 49/49/1
f 49/49/1 48/48/1 50/50/1
f 53/53/1 52/52/1 51/51/1
f 52/52/1 53/53/1 54/54/1
f 56/3/1 10/2/1 55/1/1
f 10/2/1 56/3/1 9/4/1
f 57/16/2 39/12/2 40/7/2
f 39/12/2 57/16/2 58/14/2
f 35/57/1 60/56/1 59/55/1
f 60/56/1 35/57/1 36/58/1
f 63/31/3 62/30/3 61/29/3
f 62/30/3 63/31/3 64/32/3
f 67/56/5 66/29/5 65/46/5
f 66/29/5 67/56/5 68/49/5
f 68/49/5 67/56/5 45/50/5
f 45/50/5 67/56/5 47/58/5
f 8/60/3 69/59/3 22/45/3
f 69/59/3 8/60/3 70/61/3
f 37/55/6 71/58/6 38/56/6
f 71/58/6 37/55/6 72/57/6
f 75/13/2 74/23/2 73/11/2
f 74/23/2 75/13/2 76/17/2
f 38/63/2 47/6/2 36/62/2
f 47/6/2 38/63/2 48/5/2
f 48/5/2 38/63/2 71/64/2
f 48/5/2 71/64/2 77/15/2
f 77/15/2 71/64/2 78/65/2
f 77/15/2 78/65/2 79/66/2
f 80/67/2 36/62/2 47/6/2
f 36/62/2 80/67/2 60/68/2
f 80/67/2 47/6/2 67/21/2
f 80/67/2 67/21/2 81/69/2
f 81/69/2 67/21/2 77/15/2
f 81/69/2 77/15/2 79/66/2
f 83/71/6 29/49/6 82/70/6
f 29/49/6 83/71/6 30/72/6
f 62/75/7 85/74/7 84/73/7
f 85/74/7 62/75/7 64/76/7
f 18/60/3 86/59/3 20/45/3
f 86/59/3 18/60/3 87/61/3
f 57/59/1 14/77/1 58/61/1
f 14/77/1 57/59/1 16/78/1
f 89/81/5 24/80/5 88/79/5
f 24/80/5 89/81/5 23/82/5
f 23/82/5 89/81/5 90/83/5
f 91/84/5 90/83/5 89/81/5
f 91/84/5 92/85/5 90/83/5
f 92/85/5 91/84/5 93/86/5
f 96/89/5 95/88/5 94/87/5
f 95/88/5 96/89/5 97/90/5
f 97/90/5 96/89/5 98/91/5
f 99/92/5 98/91/5 96/89/5
f 99/92/5 100/93/5 98/91/5
f 100/93/5 99/92/5 101/94/5
f 56/9/2 69/24/2 70/8/2
f 69/24/2 56/9/2 55/10/2
f 15/2/3 102/44/3 19/45/3
f 102/44/3 15/2/3 103/43/3
f 10/97/5 104/96/5 55/95/5
f 104/96/5 10/97/5 21/98/5
f 55/95/5 104/96/5 105/99/5
f 55/95/5 105/99/5 69/100/5
f 106/101/5 69/100/5 105/99/5
f 107/102/5 69/100/5 106/101/5
f 107/102/5 22/103/5 69/100/5
f 22/103/5 107/102/5 6/104/5
f 6/104/5 107/102/5 43/44/5
f 21/98/5 108/105/5 104/96/5
f 108/105/5 21/98/5 74/106/5
f 108/105/5 74/106/5 109/107/5
f 109/107/5 74/106/5 110/108/5
f 76/109/5 110/108/5 74/106/5
f 76/109/5 111/110/5 110/108/5
f 17/111/5 111/110/5 76/109/5
f 111/110/5 17/111/5 112/112/5
f 20/113/5 112/112/5 17/111/5
f 112/112/5 20/113/5 86/114/5
f 112/112/5 86/114/5 113/115/5
f 113/115/5 86/114/5 114/116/5
f 1/117/5 114/116/5 86/114/5
f 1/117/5 115/118/5 114/116/5
f 2/119/5 115/118/5 1/117/5
f 2/119/5 102/43/5 115/118/5
f 102/43/5 2/119/5 19/120/5
f 11/77/3 74/59/3 21/78/3
f 74/59/3 11/77/3 73/61/3
f 44/43/6 7/121/6 5/2/6
f 7/121/6 44/43/6 116/122/6
f 7/121/6 116/122/6 40/123/6
f 40/123/6 116/122/6 117/124/6
f 40/123/6 117/124/6 57/125/6
f 118/126/6 57/125/6 117/124/6
f 119/127/6 57/125/6 118/126/6
f 57/125/6 119/127/6 16/128/6
f 103/44/6 16/128/6 119/127/6
f 16/128/6 103/44/6 15/45/6
f 75/3/1 17/42/1 76/1/1
f 17/42/1 75/3/1 13/41/1
f 3/19/2 86/22/2 87/18/2
f 86/22/2 3/19/2 1/20/2
f 59/131/8 80/130/8 120/129/8
f 80/130/8 59/131/8 60/132/8
f 123/135/1 122/134/1 121/133/1
f 122/134/1 123/135/1 124/29/1
f 124/29/1 123/135/1 125/49/1
f 125/49/1 123/135/1 126/136/1
f 78/56/3 127/57/3 79/58/3
f 127/57/3 78/56/3 128/55/3
f 28/30/5 129/137/5 27/29/5
f 129/137/5 28/30/5 130/138/5
f 133/26/3 132/27/3 131/28/3
f 132/27/3 133/26/3 134/25/3
f 28/141/7 83/140/7 130/139/7
f 83/140/7 28/141/7 30/142/7
f 137/145/5 136/144/5 135/143/5
f 136/144/5 137/145/5 138/146/5
f 138/146/5 137/145/5 139/147/5
f 140/148/5 139/147/5 137/145/5
f 140/148/5 141/149/5 139/147/5
f 141/149/5 140/148/5 142/150/5
f 145/89/6 144/88/6 143/87/6
f 144/88/6 145/89/6 146/90/6
f 146/90/6 145/89/6 147/91/6
f 148/92/6 147/91/6 145/89/6
f 148/92/6 149/93/6 147/91/6
f 149/93/6 148/92/6 150/94/6
f 152/53/1 149/52/1 151/51/1
f 149/52/1 152/53/1 147/54/1
f 153/27/1 95/26/1 97/25/1
f 95/26/1 153/27/1 154/28/1
f 156/153/2 139/152/2 155/151/2
f 139/152/2 156/153/2 138/154/2
f 34/53/1 158/52/1 157/51/1
f 158/52/1 34/53/1 33/54/1
f 127/129/9 81/132/9 79/130/9
f 81/132/9 127/129/9 159/131/9
f 162/136/3 161/156/3 160/155/3
f 161/156/3 162/136/3 163/49/3
f 161/156/3 163/49/3 164/29/3
f 161/156/3 164/29/3 165/134/3
f 83/157/1 129/49/1 130/72/1
f 129/49/1 83/157/1 82/158/1
f 160/133/6 166/29/6 162/134/6
f 166/29/6 160/133/6 167/49/6
f 167/49/6 160/133/6 122/136/6
f 122/136/6 160/133/6 121/135/6
f 153/161/2 98/160/2 168/159/2
f 98/160/2 153/161/2 97/162/2
f 50/46/6 170/49/6 169/163/6
f 170/49/6 50/46/6 171/50/6
f 171/50/6 50/46/6 48/47/6
f 171/50/6 48/47/6 77/48/6
f 172/51/3 98/54/3 100/52/3
f 98/54/3 172/51/3 168/53/3
f 71/38/10 128/39/10 78/40/10
f 128/39/10 71/38/10 72/37/10
f 54/166/2 132/165/2 134/164/2
f 132/165/2 54/166/2 53/167/2
f 120/69/7 35/65/7 59/66/7
f 35/65/7 120/69/7 37/64/7
f 37/64/7 120/69/7 160/168/7
f 160/168/7 120/69/7 159/67/7
f 160/168/7 159/67/7 121/169/7
f 121/169/7 159/67/7 123/170/7
f 161/171/7 37/64/7 160/168/7
f 37/64/7 161/171/7 72/63/7
f 72/63/7 161/171/7 123/170/7
f 72/63/7 123/170/7 159/67/7
f 72/63/7 159/67/7 127/68/7
f 72/63/7 127/68/7 128/62/7
f 174/145/6 133/172/6 173/143/6
f 133/172/6 174/145/6 134/173/6
f 134/173/6 174/145/6 54/147/6
f 175/148/6 54/147/6 174/145/6
f 175/148/6 52/149/6 54/147/6
f 52/149/6 175/148/6 176/150/6
f 147/176/2 177/175/2 146/174/2
f 177/175/2 147/176/2 152/177/2
f 85/179/6 63/178/6 178/163/6
f 63/178/6 85/179/6 64/180/6
f 126/134/5 180/181/5 179/29/5
f 180/181/5 126/134/5 165/136/5
f 165/136/5 126/134/5 123/133/5
f 165/136/5 123/133/5 161/135/5
f 182/81/6 42/80/6 181/79/6
f 42/80/6 182/81/6 31/82/6
f 31/82/6 182/81/6 33/83/6
f 183/182/6 33/83/6 182/81/6
f 183/182/6 158/85/6 33/83/6
f 158/85/6 183/182/6 184/183/6
f 185/51/3 90/54/3 92/52/3
f 90/54/3 185/51/3 186/53/3
f 187/51/3 139/54/3 141/52/3
f 139/54/3 187/51/3 155/53/3
f 85/157/1 188/49/1 84/72/1
f 188/49/1 85/157/1 178/158/1
f 144/26/3 177/27/3 189/28/3
f 177/27/3 144/26/3 146/25/3
f 25/186/2 90/185/2 186/184/2
f 90/185/2 25/186/2 23/187/2
f 62/189/5 188/181/5 61/188/5
f 188/181/5 62/189/5 84/190/5
f 159/55/5 80/58/5 81/56/5
f 80/58/5 159/55/5 120/57/5
f 190/49/3 67/58/3 65/50/3
f 67/58/3 190/49/3 77/56/3
f 77/56/3 190/49/3 191/29/3
f 77/56/3 191/29/3 171/46/3
f 156/27/1 136/26/1 138/25/1
f 136/26/1 156/27/1 192/28/1

usemtl window

f 195/193/5 194/192/5 193/191/5
f 194/192/5 195/193/5 196/194/5
f 199/197/5 198/196/5 197/195/5
f 198/196/5 199/197/5 200/198/5
f 203/200/5 202/127/5 201/199/5
f 202/127/5 203/200/5 204/201/5
f 207/203/5 206/202/5 205/122/5
f 206/202/5 207/203/5 208/204/5
f 211/207/5 210/206/5 209/205/5
f 210/206/5 211/207/5 212/208/5
f 32/82/6 157/85/6 41/80/6
f 157/85/6 32/82/6 34/83/6
f 156/146/5 187/149/5 192/144/5
f 187/149/5 156/146/5 155/147/5
f 25/82/5 185/85/5 26/80/5
f 185/85/5 25/82/5 186/83/5
f 153/90/5 172/93/5 154/88/5
f 172/93/5 153/90/5 168/91/5
f 132/173/6 51/149/6 131/172/6
f 51/149/6 132/173/6 53/147/6
f 177/90/6 151/93/6 189/88/6
f 151/93/6 177/90/6 152/91/6

usemtl _defaultMat

f 131/3/11 214/42/11 213/1/11
f 214/3/11 131/42/11 51/1/11
f 100/27/5 216/26/5 215/25/5
f 216/27/5 100/26/5 101/25/5
f 216/27/5 135/26/5 136/25/5
f 135/27/5 216/26/5 101/25/5
f 95/27/5 217/26/5 94/25/5
f 141/27/5 219/26/5 218/25/5
f 219/27/5 141/26/5 142/25/5
f 92/27/5 93/26/5 220/25/5
f 222/27/5 217/26/5 221/25/5
f 217/27/5 222/26/5 94/25/5
f 94/27/5 222/26/5 65/25/5
f 94/27/5 65/26/5 96/25/5
f 45/27/5 65/26/5 66/25/5
f 45/27/5 66/26/5 68/25/5
f 96/27/5 65/26/5 99/25/5
f 99/27/5 65/26/5 137/25/5
f 137/27/5 65/26/5 140/25/5
f 140/27/5 65/26/5 89/25/5
f 89/27/5 65/26/5 91/25/5
f 221/27/5 93/26/5 45/25/5
f 93/27/5 221/26/5 220/25/5
f 220/27/5 221/26/5 217/25/5
f 220/27/5 217/26/5 215/25/5
f 220/27/5 215/26/5 216/25/5
f 220/27/5 216/26/5 218/25/5
f 220/27/5 218/26/5 219/25/5
f 45/27/5 93/26/5 91/25/5
f 45/27/5 91/26/5 65/25/5
f 140/27/5 88/26/5 142/25/5
f 88/27/5 140/26/5 89/25/5
f 99/27/5 135/26/5 101/25/5
f 135/27/5 99/26/5 137/25/5
f 219/27/5 88/26/5 24/25/5
f 88/27/5 219/26/5 142/25/5
f 144/49/3 189/48/3 223/50/3
f 52/12/6 224/16/6 214/14/6
f 224/12/6 52/16/6 176/14/6
f 158/12/6 184/16/6 225/14/6
f 227/12/6 223/16/6 226/14/6
f 223/12/6 227/16/6 143/14/6
f 143/12/6 227/16/6 50/14/6
f 143/12/6 50/16/6 145/14/6
f 145/12/6 50/16/6 148/14/6
f 148/12/6 50/16/6 174/14/6
f 174/12/6 50/16/6 175/14/6
f 175/12/6 50/16/6 182/14/6
f 182/12/6 50/16/6 183/14/6
f 183/12/6 50/16/6 169/14/6
f 226/12/6 184/16/6 171/14/6
f 184/12/6 226/16/6 225/14/6
f 225/12/6 226/16/6 223/14/6
f 225/12/6 223/16/6 228/14/6
f 225/12/6 228/16/6 213/14/6
f 225/12/6 213/16/6 214/14/6
f 225/12/6 214/16/6 224/14/6
f 149/12/6 213/16/6 228/14/6
f 171/12/6 184/16/6 183/14/6
f 171/12/6 183/16/6 170/14/6
f 170/12/6 183/16/6 169/14/6
f 175/12/6 181/16/6 176/14/6
f 181/12/6 175/16/6 182/14/6
f 148/12/6 173/16/6 150/14/6
f 173/12/6 148/16/6 174/14/6
f 224/12/6 181/16/6 42/14/6
f 181/12/6 224/16/6 176/14/6
f 213/12/6 149/16/6 150/14/6
f 213/12/6 173/16/6 133/14/6
f 173/12/6 213/16/6 150/14/6
f 144/12/6 223/16/6 143/14/6
f 172/114/3 100/208/3 215/117/3
f 228/56/1 151/57/1 149/58/1
f 26/56/12 220/57/12 219/58/12
f 220/56/12 26/57/12 185/58/12
f 154/199/1 217/194/1 95/200/1
f 133/199/3 131/194/3 213/200/3
f 26/202/1 219/203/1 24/204/1
f 185/30/3 92/31/3 220/32/3
f 189/50/11 228/56/11 223/58/11
f 228/50/11 189/56/11 151/58/11
f 192/92/1 216/91/1 136/89/1
f 225/24/1 157/9/1 158/10/1
f 229/59/3 65/77/3 222/61/3
f 65/59/3 229/77/3 190/61/3
f 190/59/3 229/77/3 226/61/3
f 190/59/3 226/77/3 191/61/3
f 191/59/3 226/77/3 171/61/3
f 187/210/3 141/43/3 218/209/3
f 154/100/12 215/198/12 217/95/12
f 215/100/12 154/198/12 172/95/12
f 42/49/3 41/135/3 224/136/3
f 192/140/12 218/141/12 216/142/12
f 218/140/12 192/141/12 187/142/12
f 41/160/11 225/161/11 224/162/11
f 225/160/11 41/161/11 157/162/11
f 45/160/1 230/161/1 221/162/1
f 230/160/1 45/161/1 46/162/1
f 230/160/1 46/161/1 227/162/1
f 227/160/1 46/161/1 49/162/1
f 227/160/1 49/161/1 50/162/1
f 214/160/1 51/161/1 52/162/1

usemtl door

f 4/212/5 209/205/5 18/211/5
f 209/205/5 4/212/5 3/117/5
f 209/205/5 3/117/5 211/207/5
f 211/207/5 3/117/5 212/208/5
f 210/206/5 18/211/5 209/205/5
f 18/211/5 210/206/5 87/114/5
f 87/114/5 210/206/5 212/208/5
f 87/114/5 212/208/5 3/117/5
f 193/191/5 206/202/5 195/193/5
f 206/202/5 193/191/5 205/122/5
f 195/193/5 206/202/5 208/204/5
f 195/193/5 208/204/5 196/194/5
f 196/194/5 208/204/5 203/200/5
f 203/200/5 208/204/5 204/201/5
f 193/191/5 13/213/5 205/122/5
f 13/213/5 193/191/5 11/214/5
f 205/122/5 13/213/5 75/109/5
f 205/122/5 75/109/5 207/203/5
f 207/203/5 75/109/5 208/204/5
f 194/192/5 11/214/5 193/191/5
f 202/127/5 11/214/5 194/192/5
f 11/214/5 202/127/5 73/106/5
f 73/106/5 202/127/5 204/201/5
f 73/106/5 204/201/5 208/204/5
f 73/106/5 208/204/5 75/109/5
f 202/127/5 194/192/5 201/199/5
f 196/194/5 201/199/5 194/192/5
f 201/199/5 196/194/5 203/200/5
f 39/123/6 14/216/6 12/215/6
f 14/216/6 39/123/6 58/125/6
f 108/105/5 105/99/5 104/96/5
f 105/99/5 108/105/5 109/107/5
f 105/99/5 109/107/5 106/101/5
f 221/217/5 106/101/5 109/107/5
f 221/217/5 107/102/5 106/101/5
f 107/102/5 221/217/5 43/44/5
f 221/217/5 109/107/5 222/209/5
f 110/108/5 222/209/5 109/107/5
f 113/115/5 222/209/5 110/108/5
f 114/116/5 222/209/5 113/115/5
f 115/118/5 222/209/5 114/116/5
f 222/209/5 115/118/5 102/43/5
f 111/110/5 113/115/5 110/108/5
f 113/115/5 111/110/5 112/112/5
f 103/43/3 222/217/3 102/44/3
f 222/217/3 103/43/3 229/210/3
f 229/210/3 103/43/3 226/209/3
f 227/209/6 116/122/6 44/43/6
f 116/122/6 227/209/6 117/124/6
f 117/124/6 227/209/6 118/126/6
f 226/217/6 118/126/6 227/209/6
f 103/44/6 118/126/6 226/217/6
f 118/126/6 103/44/6 119/127/6
f 230/142/1 43/43/1 221/209/1
f 43/43/1 230/142/1 44/44/1
f 44/44/1 230/142/1 227/217/1
f 9/219/5 197/195/5 8/218/5
f 197/195/5 9/219/5 56/95/5
f 197/195/5 56/95/5 199/197/5
f 199/197/5 56/95/5 200/198/5
f 198/196/5 8/218/5 197/195/5
f 8/218/5 198/196/5 70/100/5
f 70/100/5 198/196/5 200/198/5
f 70/100/5 200/198/5 56/95/5
f 166/221/7 163/220/7 162/168/7
f 163/220/7 166/221/7 164/222/7
f 164/222/7 166/221/7 165/171/7
f 165/171/7 166/221/7 180/223/7
f 180/223/7 166/221/7 188/73/7
f 188/73/7 166/221/7 167/224/7
f 188/73/7 167/224/7 61/75/7
f 61/75/7 167/224/7 63/76/7
f 63/76/7 167/224/7 129/139/7
f 129/139/7 167/224/7 27/141/7
f 27/141/7 167/224/7 122/169/7
f 27/141/7 122/169/7 29/142/7
f 178/74/7 180/223/7 188/73/7
f 180/223/7 178/74/7 179/225/7
f 179/225/7 178/74/7 63/76/7
f 179/225/7 63/76/7 82/140/7
f 82/140/7 63/76/7 129/139/7
f 179/225/7 82/140/7 29/142/7
f 179/225/7 29/142/7 126/170/7
f 126/170/7 29/142/7 124/226/7
f 124/226/7 29/142/7 122/169/7
f 126/170/7 124/226/7 125/227/7

