# Created by Kenney (www.kenney.nl)

mtllib small_buildingB.mtl

g small_buildingB

v 0.13 0.27 -0.5
v 0.13 0.13 -0.5
v 0.13 0.27 -0.48
v 0.13 0.13 -0.48
v -0.38 0.53 0.27
v -0.4 0.53 0.27
v -0.38 0.53 0.13
v -0.4 0.53 0.13
v 0.3082843 0.8799999 -0.52
v 0.3082843 0.83 -0.52
v 0.42 0.8799999 -0.4082843
v 0.42 0.83 -0.4082843
v -3.032028E-14 0.8 7.219114E-16
v -3.032028E-14 0.84 7.219114E-16
v -3.032028E-14 0.8 0.2
v -3.032028E-14 0.84 0.2
v 0.42 0.8799999 0.4
v 0.35 0.8799999 -0.3792893
v 0.4 0.8799999 0.42
v 0.2792893 0.8799999 -0.45
v 0.09171573 0.8799999 -0.52
v 0.1207107 0.8799999 -0.45
v 0.02071068 0.8799999 -0.35
v -0.008284271 0.8799999 -0.42
v -0.35 0.8799999 -0.35
v -0.4 0.8799999 -0.42
v -0.35 0.8799999 0.35
v 0.35 0.8799999 0.35
v -0.4 0.8799999 0.42
v -0.42 0.8799999 -0.4
v -0.42 0.8799999 0.4
v 0.27 0.13 -0.48
v 0.15 0.15 -0.48
v 0.15 0.25 -0.48
v 0.25 0.25 -0.48
v 0.25 0.15 -0.48
v 0.27 0.27 -0.48
v 0.09171573 0.83 -0.52
v -0.008284271 0.83 -0.42
v 0.27 0.27 -0.5
v 0.3 0.5 -0.5
v 0.13 0.53 -0.5
v 0.1 0.5 -0.5
v 0.1 0.7 -0.5
v 0.13 0.67 -0.5
v 0.27 0.67 -0.5
v 0.27 0.53 -0.5
v 0.3 0.7 -0.5
v 0.4 0.83 0.42
v -0.4 0.83 0.42
v 0.27 0.67 -0.48
v 0.13 0.67 -0.48
v -0.4 0.83 -0.42
v 0.4 0.8 0.4
v -0.4 0.8 0.4
v 0.4 0.83 0.4
v -0.4 0.83 0.4
v 0.2 0.8 7.219114E-16
v 0.2 0.84 7.219114E-16
v -0.42 0.83 0.4
v -3.032028E-14 0 -0.4
v 0.1 0 -0.5
v -3.032028E-14 0.05 -0.4
v 0.1 0.05 -0.5
v 0.13 0.53 -0.48
v 0.4 0.83 -0.4
v 0.42 0.83 0.4
v 0.3 0.83 -0.5
v 0.1 0.83 -0.5
v -3.032028E-14 0.83 -0.4
v -0.02 0.83 -0.4
v -0.4 0.83 -0.4
v -0.42 0.83 -0.4
v 0.2 0.84 0.2
v -0.4 0.8 -0.4
v -3.032028E-14 0.8 -0.4
v -0.38 0.67 0.27
v -0.38 0.67 0.13
v -0.4 0.67 0.27
v -0.4 0.67 0.13
v -0.35 0.8 -0.35
v -0.35 0.8 0.35
v 0.27 0.13 -0.5
v 0.4 0.05 -0.4
v 0.4 0 -0.4
v 0.4 0.05 0.4
v 0.4 0 0.4
v 0.2 0.8 0.2
v 0.3 0.1 -0.5
v 0.1 0.1 -0.5
v 0.1 0.3 -0.5
v 0.3 0.3 -0.5
v 0.02071068 0.8 -0.35
v -0.13 1.804779E-16 -0.41
v -0.13 0.27 -0.41
v -0.13 1.804779E-16 -0.38
v -0.13 0.27 -0.38
v -0.4 0.3 0.1
v -0.4 0.13 0.13
v -0.4 0.1 0.1
v -0.4 0.1 0.3
v -0.4 0.13 0.27
v -0.4 0.27 0.27
v -0.4 0.27 0.13
v -0.4 0.3 0.3
v -0.32 1.69198E-16 -0.41
v -0.32 0.32 -0.41
v -0.32 1.69198E-16 -0.4
v -0.32 0.32 -0.4
v -0.32 0.05 -0.4
v -0.13 0.53 -0.4
v -0.13 0.53 -0.38
v -0.27 0.53 -0.4
v -0.27 0.53 -0.38
v 0.4 0.4 0.4
v -0.4 0.4 0.4
v 0.4 0.45 0.4
v -0.4 0.45 0.4
v -0.27 1.804779E-16 -0.41
v -0.27 0.27 -0.41
v -0.08 0.32 -0.41
v -0.08 1.804779E-16 -0.41
v -0.4 0 -0.4
v -0.4 0.05 -0.4
v -0.4 0 0.4
v -0.4 0.05 0.4
v -0.38 0.27 0.27
v -0.38 0.27 0.13
v -0.27 0.67 -0.4
v -0.27 0.67 -0.38
v -0.08 1.804779E-16 -0.4
v -0.08 0.05 -0.4
v 0.2792893 0.8 -0.45
v 0.1207107 0.8 -0.45
v -0.4 0.4 -0.4
v -0.4 0.45 -0.4
v 0.35 0.8 -0.3792893
v 0.13 0.53 0.38
v 0.25 0.55 0.38
v 0.27 0.53 0.38
v 0.27 0.67 0.38
v 0.25 0.65 0.38
v 0.15 0.65 0.38
v 0.15 0.55 0.38
v 0.13 0.67 0.38
v -0.4 0.7 0.1
v -0.4 0.5 0.1
v -0.4 0.5 0.3
v -0.4 0.7 0.3
v -0.38 0.13 0.13
v 0.1 0.5 0.4
v 0.27 0.53 0.4
v 0.3 0.5 0.4
v 0.3 0.7 0.4
v 0.27 0.67 0.4
v 0.13 0.67 0.4
v 0.13 0.53 0.4
v 0.1 0.7 0.4
v -0.27 0.27 -0.38
v 0.27 0.53 -0.48
v 0.4 0.4 -0.4
v 0.4 0.45 -0.4
v 0.3 0 -0.5
v -0.27 1.804779E-16 -0.38
v 0.1 0.8 -0.5
v 0.3 0.8 -0.5
v 0.4 0.8 -0.4
v 0.3 0.45 -0.5
v 0.3 0.4 -0.5
v -0.08 0.32 -0.4
v -0.38 0.15 0.15
v -0.38 0.13 0.27
v -0.38 0.15 0.25
v -0.38 0.25 0.25
v -0.38 0.25 0.15
v -0.13 0.67 -0.4
v -0.13 0.67 -0.38
v -0.38 0.55 0.15
v -0.38 0.55 0.25
v -0.38 0.65 0.25
v -0.38 0.65 0.15
v -0.1 0.5 -0.4
v -0.3 0.5 -0.4
v -0.3 0.7 -0.4
v -0.1 0.7 -0.4
v 0.35 0.8 0.35
v -0.25 0.55 -0.38
v -0.25 0.65 -0.38
v -0.15 0.65 -0.38
v -0.15 0.55 -0.38
v 0.1 0.4 -0.5
v 0.1 0.45 -0.5
v 0.3 0.05 -0.5
v -3.032028E-14 0.4 -0.4
v -3.032028E-14 0.45 -0.4
v 0.15 0.55 -0.48
v 0.15 0.65 -0.48
v 0.25 0.65 -0.48
v 0.25 0.55 -0.48
v -0.25 0.145 -0.38
v -0.15 0.145 -0.38
v -0.25 0.25 -0.38
v -0.15 0.25 -0.38
v -0.25 0.02 -0.38
v -0.15 0.02 -0.38
v -0.25 0.125 -0.38
v -0.15 0.125 -0.38

vn 1 0 0
vn 0 1 0
vn 0.7071068 0 -0.7071068
vn -1 0 0
vn 0 0 -1
vn -0.7071068 0 -0.7071068
vn 0 -1 0
vn 0 0 1
vn -0.7071068 0 0.7071068
vn 0.7071068 0 0.7071068

vt 19.68504 10.62992
vt 19.68504 5.11811
vt 18.89764 10.62992
vt 18.89764 5.11811
vt 14.96063 10.62992
vt 15.74803 10.62992
vt 14.96063 5.11811
vt 15.74803 5.11811
vt 5.893922 34.64567
vt 5.893922 32.67717
vt -0.3261524 34.64567
vt -0.3261524 32.67717
vt 2.842171E-14 31.49606
vt 2.842171E-14 33.07087
vt 7.874016 31.49606
vt 7.874016 33.07087
vt -16.53543 15.74803
vt -13.77953 -14.93265
vt -16.53543 -16.07418
vt -12.13718 -20.47244
vt -15.74803 16.53543
vt -10.99564 -17.71654
vt -3.610856 -20.47244
vt -4.752389 -17.71654
vt -0.8153811 -13.77953
vt 0.3261524 -16.53543
vt 13.77953 -13.77953
vt 15.74803 -16.53543
vt 13.77953 13.77953
vt -13.77953 13.77953
vt 15.74803 16.53543
vt 16.53543 -15.74803
vt 16.53543 15.74803
vt -10.62992 5.11811
vt -5.905512 5.905512
vt -5.11811 5.11811
vt -5.11811 10.62992
vt -5.905512 9.84252
vt -9.84252 9.84252
vt -9.84252 5.905512
vt -10.62992 10.62992
vt -17.02946 32.67717
vt -17.02946 34.64567
vt -11.46169 32.67717
vt -11.46169 34.64567
vt 10.62992 -18.89764
vt 10.62992 -19.68504
vt 5.11811 -18.89764
vt 5.11811 -19.68504
vt -11.81102 19.68504
vt -5.11811 20.86614
vt -3.937008 19.68504
vt -3.937008 27.55906
vt -5.11811 26.37795
vt -10.62992 26.37795
vt -10.62992 20.86614
vt -11.81102 27.55906
vt 15.74803 32.67717
vt -15.74803 32.67717
vt 15.74803 34.64567
vt -15.74803 34.64567
vt 0.3261524 32.67717
vt 0.3261524 34.64567
vt 15.74803 31.49606
vt -15.74803 31.49606
vt 1.193712E-12 31.49606
vt -7.874016 31.49606
vt 1.193712E-12 33.07087
vt -7.874016 33.07087
vt -0.556777 32.67717
vt -0.556777 34.64567
vt 0.556777 32.67717
vt 0.556777 34.64567
vt -11.13554 0
vt -16.70331 0
vt -11.13554 1.968504
vt -16.70331 1.968504
vt 19.68504 26.37795
vt 19.68504 20.86614
vt 18.89764 26.37795
vt 18.89764 20.86614
vt 15.74803 -15.74803
vt 15.74803 15.74803
vt -15.74803 15.74803
vt 16.53543 -16.07418
vt 12.13718 -20.47244
vt 11.81102 -19.68504
vt 3.610856 -20.47244
vt 3.937008 -19.68504
vt -1.193712E-12 -15.74803
vt -0.3261524 -16.53543
vt -0.7874016 -15.74803
vt -15.74803 -16.53543
vt -15.74803 -15.74803
vt -16.53543 -15.74803
vt -7.874016 2.842171E-14
vt -7.874016 7.874016
vt 1.193712E-12 2.842171E-14
vt 1.193712E-12 7.874016
vt 1.236282E-12 31.49606
vt 1.236282E-12 32.67717
vt 0.7874016 32.67717
vt -14.96063 10.62992
vt -14.96063 5.11811
vt -15.74803 10.62992
vt -15.74803 5.11811
vt 13.77953 34.64567
vt 13.77953 31.49606
vt -13.77953 34.64567
vt -13.77953 31.49606
vt -19.68504 5.11811
vt -19.68504 10.62992
vt -18.89764 5.11811
vt -18.89764 10.62992
vt 15.74803 1.968504
vt 15.74803 0
vt -15.74803 1.968504
vt -15.74803 0
vt -2.842171E-14 33.07087
vt -2.842171E-14 31.49606
vt -11.81102 3.937008
vt -3.937008 3.937008
vt -3.937008 11.81102
vt -11.81102 11.81102
vt 0.8153811 31.49606
vt 0.8153811 34.64567
vt -10.62992 -19.68504
vt -10.62992 -18.89764
vt -5.11811 -19.68504
vt -5.11811 -18.89764
vt -16.14173 7.105427E-15
vt -16.14173 10.62992
vt -14.96063 7.105427E-15
vt 3.937008 11.81102
vt 5.11811 5.11811
vt 3.937008 3.937008
vt 11.81102 3.937008
vt 10.62992 5.11811
vt 10.62992 10.62992
vt 5.11811 10.62992
vt 11.81102 11.81102
vt -16.14173 6.661338E-15
vt -16.14173 12.59842
vt -15.74803 6.661338E-15
vt -15.74803 12.59842
vt 5.11811 -15.74803
vt 5.11811 -14.96063
vt 10.62992 -15.74803
vt 10.62992 -14.96063
vt 15.74803 17.71654
vt -15.74803 17.71654
vt 12.59842 6.661338E-15
vt 10.62992 7.105427E-15
vt 12.59842 12.59842
vt 3.149606 12.59842
vt 3.149606 7.105427E-15
vt 5.11811 7.105427E-15
vt 15.74803 26.37795
vt 15.74803 20.86614
vt 14.96063 26.37795
vt 14.96063 20.86614
vt 1.193712E-12 0
vt 1.193712E-12 1.968504
vt 3.149606 1.968504
vt 12.59842 1.968504
vt 10.99564 31.49606
vt 4.752389 31.49606
vt 10.99564 34.64567
vt 4.752389 34.64567
vt -4.752389 31.49606
vt -4.752389 34.64567
vt -0.8153811 31.49606
vt -0.8153811 34.64567
vt 5.11811 20.86614
vt 9.84252 21.65354
vt 10.62992 20.86614
vt 10.62992 26.37795
vt 9.84252 25.59055
vt 5.905512 25.59055
vt 5.905512 21.65354
vt 5.11811 26.37795
vt 3.937008 27.55906
vt 3.937008 19.68504
vt 11.81102 19.68504
vt 11.81102 27.55906
vt 15.88793 31.49606
vt 10.32016 31.49606
vt 15.88793 34.64567
vt 10.32016 34.64567
vt -5.11811 -14.96063
vt -5.11811 -16.14173
vt -10.62992 -14.96063
vt -10.62992 -16.14173
vt -10.62992 14.96063
vt -10.62992 15.74803
vt -5.11811 14.96063
vt -5.11811 15.74803
vt -3.149606 -15.74803
vt -3.149606 -16.14173
vt -12.59842 -15.74803
vt -12.59842 -16.14173
vt -3.937008 31.49606
vt -11.81102 31.49606
vt -3.937008 32.67717
vt -11.81102 32.67717
vt 5.56777 17.71654
vt 5.56777 15.74803
vt 9.237056E-13 17.71654
vt 9.645618E-13 15.74803
vt 16.14173 12.59842
vt 16.14173 7.105427E-15
vt 15.74803 12.59842
vt 15.74803 7.105427E-15
vt -14.96063 20.86614
vt -15.74803 20.86614
vt -14.96063 26.37795
vt -15.74803 26.37795
vt -3.610856 32.67717
vt -12.13718 32.67717
vt -3.610856 34.64567
vt -12.13718 34.64567
vt 5.905512 5.905512
vt 9.84252 5.905512
vt 9.84252 9.84252
vt 5.905512 9.84252
vt 16.07418 34.64567
vt 16.07418 32.67717
vt -5.11811 -15.74803
vt -10.62992 -15.74803
vt -16.70331 31.49606
vt -16.70331 32.67717
vt -11.13554 31.49606
vt -11.13554 32.67717
vt 3.149606 -16.14173
vt 3.149606 -15.74803
vt 12.59842 -16.14173
vt 12.59842 -15.74803
vt -19.68504 20.86614
vt -19.68504 26.37795
vt -18.89764 20.86614
vt -18.89764 26.37795
vt 16.14173 10.62992
vt 14.96063 7.105427E-15
vt -14.93265 31.49606
vt -14.93265 34.64567
vt -1.193712E-12 31.49606
vt -1.193712E-12 33.07087
vt 5.56777 32.67717
vt 5.56777 31.49606
vt 1.005418E-12 32.67717
vt 1.005418E-12 31.49606
vt -3.937008 15.74803
vt -11.81102 15.74803
vt -3.937008 17.71654
vt -11.81102 17.71654
vt 5.56777 1.968504
vt 5.56777 0
vt 8.846257E-13 1.968504
vt 8.846257E-13 0
vt 1.222134E-12 15.74803
vt 1.222134E-12 17.71654
vt -11.13554 15.74803
vt -16.70331 15.74803
vt -11.13554 17.71654
vt -16.70331 17.71654
vt 10.62992 14.96063
vt 5.11811 14.96063
vt 10.62992 15.74803
vt 5.11811 15.74803
vt -5.905512 21.65354
vt -5.905512 25.59055
vt -9.84252 25.59055
vt -9.84252 21.65354
vt -3.937008 0
vt -11.81102 0
vt -3.937008 1.968504
vt -11.81102 1.968504
vt 9.84252 5.708662
vt 5.905512 5.708662
vt 9.84252 0.7874016
vt 5.905512 0.7874016
vt 9.84252 4.92126
vt 5.905512 4.92126

usemtl border

f 3/3/1 2/2/1 1/1/1
f 2/2/1 3/3/1 4/4/1
f 7/7/2 6/6/2 5/5/2
f 6/6/2 7/7/2 8/8/2
f 11/11/3 10/10/3 9/9/3
f 10/10/3 11/11/3 12/12/3
f 15/15/4 14/14/4 13/13/4
f 14/14/4 15/15/4 16/16/4
f 11/19/2 18/18/2 17/17/2
f 18/18/2 11/19/2 9/20/2
f 17/17/2 18/18/2 19/21/2
f 18/18/2 9/20/2 20/22/2
f 20/22/2 9/20/2 21/23/2
f 20/22/2 21/23/2 22/24/2
f 22/24/2 21/23/2 23/25/2
f 23/25/2 21/23/2 24/26/2
f 23/25/2 24/26/2 25/27/2
f 25/27/2 24/26/2 26/28/2
f 25/27/2 26/28/2 27/29/2
f 28/30/2 19/21/2 18/18/2
f 19/21/2 28/30/2 29/31/2
f 29/31/2 28/30/2 27/29/2
f 29/31/2 27/29/2 26/28/2
f 29/31/2 26/28/2 30/32/2
f 29/31/2 30/32/2 31/33/2
f 4/36/5 33/35/5 32/34/5
f 33/35/5 4/36/5 3/37/5
f 33/35/5 3/37/5 34/38/5
f 34/38/5 3/37/5 35/39/5
f 36/40/5 32/34/5 33/35/5
f 32/34/5 36/40/5 37/41/5
f 37/41/5 36/40/5 35/39/5
f 37/41/5 35/39/5 3/37/5
f 39/44/6 21/43/6 38/42/6
f 21/43/6 39/44/6 24/45/6
f 3/48/7 40/47/7 37/46/7
f 40/47/7 3/48/7 1/49/7
f 43/52/5 42/51/5 41/50/5
f 42/51/5 43/52/5 44/53/5
f 42/51/5 44/53/5 45/54/5
f 45/54/5 44/53/5 46/55/5
f 47/56/5 41/50/5 42/51/5
f 41/50/5 47/56/5 48/57/5
f 48/57/5 47/56/5 46/55/5
f 48/57/5 46/55/5 44/53/5
f 19/60/8 50/59/8 49/58/8
f 50/59/8 19/60/8 29/61/8
f 52/48/7 46/47/7 51/46/7
f 46/47/7 52/48/7 45/49/7
f 26/60/5 39/62/5 53/58/5
f 39/62/5 26/60/5 24/63/5
f 56/58/8 55/65/8 54/64/8
f 55/65/8 56/58/8 57/59/8
f 14/68/5 58/67/5 13/66/5
f 58/67/5 14/68/5 59/69/5
f 50/72/9 31/71/9 60/70/9
f 31/71/9 50/72/9 29/73/9
f 63/76/6 62/75/6 61/74/6
f 62/75/6 63/76/6 64/77/6
f 52/80/1 42/79/1 45/78/1
f 42/79/1 52/80/1 65/81/1
f 67/33/7 56/83/7 66/82/7
f 56/83/7 67/33/7 49/31/7
f 56/83/7 49/31/7 57/84/7
f 57/84/7 49/31/7 50/21/7
f 66/82/7 12/85/7 67/33/7
f 12/85/7 66/82/7 10/86/7
f 10/86/7 66/82/7 68/87/7
f 10/86/7 68/87/7 38/88/7
f 38/88/7 68/87/7 69/89/7
f 38/88/7 69/89/7 70/90/7
f 38/88/7 70/90/7 39/91/7
f 39/91/7 70/90/7 71/92/7
f 39/91/7 71/92/7 53/93/7
f 53/93/7 71/92/7 72/94/7
f 53/93/7 72/94/7 57/84/7
f 53/93/7 57/84/7 73/95/7
f 73/95/7 57/84/7 50/21/7
f 73/95/7 50/21/7 60/17/7
f 14/98/2 74/97/2 59/96/2
f 74/97/2 14/98/2 16/99/2
f 72/58/5 76/100/5 75/64/5
f 76/100/5 72/58/5 70/101/5
f 70/101/5 72/58/5 71/102/5
f 79/105/7 78/104/7 77/103/7
f 78/104/7 79/105/7 80/106/7
f 27/109/1 81/108/1 25/107/1
f 81/108/1 27/109/1 82/110/1
f 32/113/4 40/112/4 83/111/4
f 40/112/4 32/113/4 37/114/4
f 86/117/1 85/116/1 84/115/1
f 85/116/1 86/117/1 87/118/1
f 74/69/1 58/120/1 59/119/1
f 58/120/1 74/69/1 88/67/1
f 90/122/5 2/36/5 89/121/5
f 2/36/5 90/122/5 91/123/5
f 2/36/5 91/123/5 1/37/5
f 1/37/5 91/123/5 40/41/5
f 83/34/5 89/121/5 2/36/5
f 89/121/5 83/34/5 92/124/5
f 92/124/5 83/34/5 40/41/5
f 92/124/5 40/41/5 91/123/5
f 23/126/8 81/110/8 93/125/8
f 81/110/8 23/126/8 25/109/8
f 2/129/2 32/128/2 83/127/2
f 32/128/2 2/129/2 4/130/2
f 17/73/10 49/70/10 67/72/10
f 49/70/10 17/73/10 19/71/10
f 96/133/4 95/132/4 94/131/4
f 95/132/4 96/133/4 97/103/4
f 100/136/4 99/135/4 98/134/4
f 99/135/4 100/136/4 101/137/4
f 99/135/4 101/137/4 102/138/4
f 102/138/4 101/137/4 103/139/4
f 104/140/4 98/134/4 99/135/4
f 98/134/4 104/140/4 105/141/4
f 105/141/4 104/140/4 103/139/4
f 105/141/4 103/139/4 101/137/4
f 108/144/4 107/143/4 106/142/4
f 107/143/4 108/144/4 109/145/4
f 109/145/4 108/144/4 110/117/4
f 113/148/2 112/147/2 111/146/2
f 112/147/2 113/148/2 114/149/2
f 117/150/8 116/84/8 115/83/8
f 116/84/8 117/150/8 118/151/8
f 107/154/5 119/153/5 106/152/5
f 119/153/5 107/154/5 120/139/5
f 120/139/5 107/154/5 95/140/5
f 121/155/5 95/140/5 107/154/5
f 122/156/5 95/140/5 121/155/5
f 95/140/5 122/156/5 94/157/5
f 125/116/4 124/117/4 123/118/4
f 124/117/4 125/116/4 126/115/4
f 55/64/4 72/59/4 75/65/4
f 72/59/4 55/64/4 57/58/4
f 103/105/7 128/104/7 127/103/7
f 128/104/7 103/105/7 104/106/7
f 130/160/1 113/159/1 129/158/1
f 113/159/1 130/160/1 114/161/1
f 131/156/5 63/163/5 61/162/5
f 63/163/5 131/156/5 132/164/5
f 124/115/5 108/152/5 123/116/5
f 108/152/5 124/115/5 110/165/5
f 20/168/8 134/167/8 133/166/8
f 134/167/8 20/168/8 22/169/8
f 116/83/4 136/151/4 135/84/4
f 136/151/4 116/83/4 118/150/4
f 137/172/9 20/171/9 133/170/9
f 20/171/9 137/172/9 18/173/9
f 140/176/8 139/175/8 138/174/8
f 139/175/8 140/176/8 141/177/8
f 139/175/8 141/177/8 142/178/8
f 142/178/8 141/177/8 143/179/8
f 144/180/8 138/174/8 139/175/8
f 138/174/8 144/180/8 145/181/8
f 145/181/8 144/180/8 143/179/8
f 145/181/8 143/179/8 141/177/8
f 147/183/4 8/174/4 146/182/4
f 8/174/4 147/183/4 148/184/4
f 8/174/4 148/184/4 6/176/4
f 6/176/4 148/184/4 79/177/4
f 80/181/4 146/182/4 8/174/4
f 146/182/4 80/181/4 149/185/4
f 149/185/4 80/181/4 79/177/4
f 149/185/4 79/177/4 148/184/4
f 22/188/10 93/187/10 134/186/10
f 93/187/10 22/188/10 23/189/10
f 128/103/8 99/106/8 150/104/8
f 99/106/8 128/103/8 104/105/8
f 153/184/8 152/176/8 151/183/8
f 152/176/8 153/184/8 154/185/8
f 152/176/8 154/185/8 155/177/8
f 155/177/8 154/185/8 156/181/8
f 157/174/8 151/183/8 152/176/8
f 151/183/8 157/174/8 158/182/8
f 158/182/8 157/174/8 156/181/8
f 158/182/8 156/181/8 154/185/8
f 159/192/7 95/191/7 97/190/7
f 95/191/7 159/192/7 120/193/7
f 138/196/2 152/195/2 140/194/2
f 152/195/2 138/196/2 157/197/2
f 42/129/2 160/128/2 47/127/2
f 160/128/2 42/129/2 65/130/2
f 162/150/1 115/84/1 161/83/1
f 115/84/1 162/150/1 117/151/1
f 87/83/7 163/87/7 85/82/7
f 163/87/7 87/83/7 125/84/7
f 163/87/7 125/84/7 62/89/7
f 62/89/7 125/84/7 61/90/7
f 61/90/7 125/84/7 131/198/7
f 131/198/7 125/84/7 122/199/7
f 122/199/7 125/84/7 96/190/7
f 96/190/7 125/84/7 164/192/7
f 164/192/7 125/84/7 119/193/7
f 119/193/7 125/84/7 108/200/7
f 108/200/7 125/84/7 123/94/7
f 106/201/7 119/193/7 108/200/7
f 94/191/7 122/199/7 96/190/7
f 69/204/5 166/203/5 165/202/5
f 166/203/5 69/204/5 68/205/5
f 56/59/1 167/64/1 66/58/1
f 167/64/1 56/59/1 54/65/1
f 162/208/3 169/207/3 168/206/3
f 169/207/3 162/208/3 161/209/3
f 170/212/1 122/211/1 121/210/1
f 122/211/1 170/212/1 131/213/1
f 131/213/1 170/212/1 132/115/1
f 78/216/8 8/215/8 7/214/8
f 8/215/8 78/216/8 80/217/8
f 21/220/5 10/219/5 38/218/5
f 10/219/5 21/220/5 9/221/5
f 150/135/4 171/222/4 128/140/4
f 171/222/4 150/135/4 172/138/4
f 171/222/4 172/138/4 173/223/4
f 173/223/4 172/138/4 174/224/4
f 175/225/4 128/140/4 171/222/4
f 128/140/4 175/225/4 127/139/4
f 127/139/4 175/225/4 174/224/4
f 127/139/4 174/224/4 172/138/4
f 17/61/1 12/227/1 11/226/1
f 12/227/1 17/61/1 67/59/1
f 177/190/7 129/229/7 176/228/7
f 129/229/7 177/190/7 130/192/7
f 103/6/5 172/7/5 102/8/5
f 172/7/5 103/6/5 127/5/5
f 76/232/6 69/231/6 165/230/6
f 69/231/6 76/232/6 70/233/6
f 150/7/2 102/6/2 172/5/2
f 102/6/2 150/7/2 99/8/2
f 107/236/2 170/235/2 121/234/2
f 170/235/2 107/236/2 109/237/2
f 112/214/4 176/217/4 111/215/4
f 176/217/4 112/214/4 177/216/4
f 160/240/4 46/239/4 47/238/4
f 46/239/4 160/240/4 51/241/4
f 7/174/4 178/180/4 78/181/4
f 178/180/4 7/174/4 5/176/4
f 178/180/4 5/176/4 179/175/4
f 179/175/4 5/176/4 180/178/4
f 181/179/4 78/181/4 178/180/4
f 78/181/4 181/179/4 77/177/4
f 77/177/4 181/179/4 180/178/4
f 77/177/4 180/178/4 5/176/4
f 183/184/5 113/176/5 182/183/5
f 113/176/5 183/184/5 184/185/5
f 113/176/5 184/185/5 129/177/5
f 129/177/5 184/185/5 176/181/5
f 111/174/5 182/183/5 113/176/5
f 182/183/5 111/174/5 185/182/5
f 185/182/5 111/174/5 176/181/5
f 185/182/5 176/181/5 184/185/5
f 60/58/4 30/61/4 73/59/4
f 30/61/4 60/58/4 31/60/4
f 79/158/5 5/161/5 6/159/5
f 5/161/5 79/158/5 77/160/5
f 159/5/1 119/211/1 120/242/1
f 119/211/1 159/5/1 164/243/1
f 73/72/6 26/71/6 53/70/6
f 26/71/6 73/72/6 30/73/6
f 186/108/4 18/245/4 137/244/4
f 18/245/4 186/108/4 28/107/4
f 27/107/5 186/110/5 82/108/5
f 186/110/5 27/107/5 28/109/5
f 74/16/8 15/246/8 88/15/8
f 15/246/8 74/16/8 16/247/8
f 66/250/3 166/249/3 68/248/3
f 166/249/3 66/250/3 167/251/3
f 114/176/5 187/175/5 112/174/5
f 187/175/5 114/176/5 130/177/5
f 187/175/5 130/177/5 188/178/5
f 188/178/5 130/177/5 189/179/5
f 190/180/5 112/174/5 187/175/5
f 112/174/5 190/180/5 177/181/5
f 177/181/5 190/180/5 189/179/5
f 177/181/5 189/179/5 130/177/5
f 192/254/5 169/253/5 191/252/5
f 169/253/5 192/254/5 168/255/5
f 84/258/3 163/257/3 193/256/3
f 163/257/3 84/258/3 85/259/3
f 136/150/5 194/260/5 135/83/5
f 194/260/5 136/150/5 195/261/5
f 152/159/4 141/160/4 140/161/4
f 141/160/4 152/159/4 155/158/4
f 86/115/8 125/118/8 87/116/8
f 125/118/8 86/115/8 126/117/8
f 156/217/1 138/214/1 145/216/1
f 138/214/1 156/217/1 157/215/1
f 195/264/6 191/263/6 194/262/6
f 191/263/6 195/264/6 192/265/6
f 155/268/7 145/267/7 141/266/7
f 145/267/7 155/268/7 156/269/7
f 65/51/5 196/270/5 160/56/5
f 196/270/5 65/51/5 52/54/5
f 196/270/5 52/54/5 197/271/5
f 197/271/5 52/54/5 198/272/5
f 199/273/5 160/56/5 196/270/5
f 160/56/5 199/273/5 51/55/5
f 51/55/5 199/273/5 198/272/5
f 51/55/5 198/272/5 52/54/5
f 64/276/5 163/275/5 62/274/5
f 163/275/5 64/276/5 193/277/5

usemtl _defaultMat

f 90/47/5 193/48/5 64/49/5
f 193/47/5 90/48/5 89/49/5
f 165/57/5 48/55/5 44/53/5
f 48/57/5 165/55/5 166/53/5
f 43/62/5 168/60/5 192/63/5
f 168/62/5 43/60/5 41/63/5
f 161/65/3 92/58/3 169/59/3
f 92/65/3 161/58/3 89/59/3
f 89/65/3 161/58/3 193/59/3
f 193/65/3 161/58/3 84/59/3
f 115/112/1 84/113/1 161/114/1
f 84/112/1 115/113/1 86/114/1
f 76/124/6 192/41/6 195/123/6
f 192/124/6 76/41/6 43/123/6
f 43/124/6 76/41/6 44/123/6
f 44/124/6 76/41/6 165/123/6
f 167/124/3 48/41/3 166/123/3
f 48/124/3 167/41/3 41/123/3
f 41/124/3 167/41/3 168/123/3
f 168/124/3 167/41/3 162/123/3
f 191/179/5 92/175/5 91/178/5
f 92/179/5 191/175/5 169/178/5
f 117/141/8 153/139/8 118/137/8
f 153/141/8 117/139/8 54/137/8
f 153/141/8 54/139/8 154/137/8
f 154/141/8 54/139/8 158/137/8
f 118/141/8 151/139/8 55/137/8
f 151/141/8 118/139/8 153/137/8
f 55/141/8 151/139/8 158/137/8
f 55/141/8 158/139/8 54/137/8
f 124/185/4 100/177/4 135/184/4
f 100/185/4 124/177/4 126/184/4
f 100/185/4 126/177/4 101/184/4
f 101/185/4 126/177/4 105/184/4
f 135/185/4 98/177/4 116/184/4
f 98/185/4 135/177/4 100/184/4
f 116/185/4 98/177/4 105/184/4
f 116/185/4 105/177/4 126/184/4
f 135/185/5 110/177/5 124/184/5
f 110/185/5 135/177/5 109/184/5
f 109/185/5 135/177/5 170/184/5
f 170/185/5 63/177/5 132/184/5
f 63/185/5 170/177/5 194/184/5
f 194/185/5 170/177/5 135/184/5
f 115/207/8 126/208/8 86/209/8
f 126/207/8 115/208/8 116/209/8
f 136/231/5 183/232/5 195/233/5
f 183/231/5 136/232/5 75/233/5
f 183/231/5 75/232/5 184/233/5
f 184/231/5 75/232/5 185/233/5
f 195/231/5 182/232/5 76/233/5
f 182/231/5 195/232/5 183/233/5
f 76/231/5 182/232/5 185/233/5
f 76/231/5 185/232/5 75/233/5
f 136/40/4 147/38/4 75/39/4
f 147/40/4 136/38/4 118/39/4
f 147/40/4 118/38/4 148/39/4
f 148/40/4 118/38/4 149/39/4
f 75/40/4 146/38/4 55/39/4
f 146/40/4 75/38/4 147/39/4
f 55/40/4 146/38/4 149/39/4
f 55/40/4 149/38/4 118/39/4
f 54/273/1 162/271/1 167/272/1
f 162/273/1 54/271/1 117/272/1
f 194/160/6 64/159/6 63/158/6
f 64/160/6 194/159/6 90/158/6
f 90/160/6 194/159/6 91/158/6
f 91/160/6 194/159/6 191/158/6

usemtl window

f 179/175/4 181/179/4 178/180/4
f 181/179/4 179/175/4 180/178/4
f 173/223/4 175/225/4 171/222/4
f 175/225/4 173/223/4 174/224/4
f 188/178/5 190/180/5 187/175/5
f 190/180/5 188/178/5 189/179/5
f 142/178/8 144/180/8 139/175/8
f 144/180/8 142/178/8 143/179/8
f 202/224/5 201/279/5 200/278/5
f 201/279/5 202/224/5 203/225/5
f 206/282/5 205/281/5 204/280/5
f 205/281/5 206/282/5 207/283/5
f 34/38/5 36/40/5 33/35/5
f 36/40/5 34/38/5 35/39/5
f 197/271/5 199/273/5 196/270/5
f 199/273/5 197/271/5 198/272/5

usemtl door

f 164/153/5 204/280/5 96/157/5
f 204/280/5 164/153/5 159/139/5
f 204/280/5 159/139/5 206/282/5
f 206/282/5 159/139/5 200/278/5
f 206/282/5 200/278/5 207/283/5
f 200/278/5 159/139/5 202/224/5
f 202/224/5 159/139/5 203/225/5
f 205/281/5 96/157/5 204/280/5
f 96/157/5 205/281/5 97/140/5
f 97/140/5 205/281/5 207/283/5
f 97/140/5 203/225/5 159/139/5
f 97/140/5 207/283/5 201/279/5
f 201/279/5 207/283/5 200/278/5
f 97/140/5 201/279/5 203/225/5
f 134/24/2 58/96/2 133/22/2
f 58/96/2 134/24/2 13/98/2
f 13/98/2 134/24/2 93/25/2
f 13/98/2 93/25/2 81/27/2
f 13/98/2 81/27/2 15/99/2
f 88/97/2 133/22/2 58/96/2
f 186/30/2 133/22/2 88/97/2
f 133/22/2 186/30/2 137/18/2
f 186/30/2 88/97/2 82/29/2
f 82/29/2 88/97/2 15/99/2
f 82/29/2 15/99/2 81/27/2

