# Created by Kenney (www.kenney.nl)

mtllib wall_windowB.mtl

g wall_windowB

v 0.07 0.09 -0.02
v -0.07 0.09 1.913065E-14
v -0.07 0.09 -0.02
v -0.1 0.09 0.02
v 0.07 0.09 -1.895018E-14
v 0.1 0.09 -2.725216E-14
v 0.1 0.09 0.02
v -0.1 0.09 2.725216E-14
v 0.1 0.06 0.02
v 0.1 0.06 -2.725216E-14
v -0.1 0.06 0.02
v -0.1 0.06 2.725216E-14
v 0.07 0.27 -1.895018E-14
v 0.07 0.27 -0.02
v -0.07 0.27 1.913065E-14
v -0.07 0.27 -0.02
v 0.05 0.11 -0.02
v 0.05 0.17 -0.02
v 0.05 0.19 -0.02
v -0.05 0.17 -0.02
v 0.05 0.25 -0.02
v -0.05 0.25 -0.02
v -0.05 0.11 -0.02
v -0.05 0.19 -0.02
v 0.1 0.3 -2.725216E-14
v -0.1 0.3 2.725216E-14
v 0.2 -5.639933E-18 -5.450431E-14
v -0.2 -5.639933E-18 5.450431E-14
v 0.2 0.05 -5.450431E-14
v -0.2 0.05 5.450431E-14
v 0.2 0.4 -5.450431E-14
v -0.2 0.4 5.450431E-14

vn 0 1 0
vn 0 -1 0
vn 0 0 1
vn 1 0 0
vn -1 0 0

vt -2.755906 -0.7874016
vt 2.755906 7.531753E-13
vt 2.755906 -0.7874016
vt 3.937008 0.7874016
vt -2.755906 -7.460699E-13
vt -3.937008 -1.07292E-12
vt -3.937008 0.7874016
vt 3.937008 1.07292E-12
vt 3.937008 -1.07292E-12
vt -3.937008 1.07292E-12
vt 3.937008 2.362205
vt -3.937008 2.362205
vt 3.937008 3.543307
vt -3.937008 3.543307
vt 2.755906 -7.460699E-13
vt -2.755906 7.531753E-13
vt -2.755906 3.543307
vt 1.968504 4.330709
vt 2.755906 3.543307
vt 2.755906 10.62992
vt 1.968504 6.692914
vt 1.968504 7.480315
vt -1.968504 6.692914
vt 1.968504 9.84252
vt -1.968504 9.84252
vt -1.968504 4.330709
vt -2.755906 10.62992
vt -1.968504 7.480315
vt 0.7874016 10.62992
vt 0.7874016 3.543307
vt -2.523572E-15 10.62992
vt -2.523572E-15 3.543307
vt 3.937008 11.81102
vt -3.937008 11.81102
vt 5.599196E-16 3.543307
vt 5.599196E-16 2.362205
vt -0.7874016 3.543307
vt -0.7874016 2.362205
vt 0.7874016 2.362205
vt -0.7874016 10.62992
vt 4.581855E-15 3.543307
vt 4.581855E-15 10.62992
vt 7.874016 -2.220446E-16
vt -7.874016 -2.220446E-16
vt 7.874016 1.968504
vt -7.874016 1.968504

usemtl border

f 3/3/1 2/2/1 1/1/1
f 4/4/1 1/1/1 2/2/1
f 4/4/1 5/5/1 1/1/1
f 4/4/1 6/6/1 5/5/1
f 6/6/1 4/4/1 7/7/1
f 4/4/1 2/2/1 8/8/1
f 11/7/2 10/9/2 9/4/2
f 10/9/2 11/7/2 12/10/2
f 7/13/3 11/12/3 9/11/3
f 11/12/3 7/13/3 4/14/3
f 15/16/2 14/3/2 13/15/2
f 14/3/2 15/16/2 16/1/2
f 1/19/3 17/18/3 3/17/3
f 17/18/3 1/19/3 14/20/3
f 17/18/3 14/20/3 18/21/3
f 18/21/3 14/20/3 19/22/3
f 18/21/3 19/22/3 20/23/3
f 19/22/3 14/20/3 21/24/3
f 21/24/3 14/20/3 22/25/3
f 23/26/3 3/17/3 17/18/3
f 3/17/3 23/26/3 16/27/3
f 16/27/3 23/26/3 20/23/3
f 16/27/3 22/25/3 14/20/3
f 16/27/3 20/23/3 24/28/3
f 24/28/3 20/23/3 19/22/3
f 16/27/3 24/28/3 22/25/3
f 15/31/4 3/30/4 16/29/4
f 3/30/4 15/31/4 2/32/4
f 25/33/3 5/19/3 6/13/3
f 5/19/3 25/33/3 13/20/3
f 13/20/3 25/33/3 15/27/3
f 26/34/3 15/27/3 25/33/3
f 8/14/3 15/27/3 26/34/3
f 15/27/3 8/14/3 2/17/3
f 7/37/4 10/36/4 6/35/4
f 10/36/4 7/37/4 9/38/4
f 11/39/5 8/35/5 12/36/5
f 8/35/5 11/39/5 4/30/5
f 5/41/5 14/40/5 1/37/5
f 14/40/5 5/41/5 13/42/5
f 29/45/3 28/44/3 27/43/3
f 28/44/3 29/45/3 30/46/3

usemtl window

f 18/21/3 23/26/3 17/18/3
f 23/26/3 18/21/3 20/23/3
f 21/24/3 24/28/3 19/22/3
f 24/28/3 21/24/3 22/25/3

usemtl _defaultMat

f 29/35/3 10/39/3 30/30/3
f 10/35/3 29/39/3 31/30/3
f 10/35/3 31/39/3 6/30/3
f 6/35/3 31/39/3 25/30/3
f 25/35/3 31/39/3 26/30/3
f 30/35/3 12/39/3 32/30/3
f 12/35/3 30/39/3 10/30/3
f 32/35/3 12/39/3 8/30/3
f 32/35/3 8/39/3 26/30/3
f 32/35/3 26/39/3 31/30/3

