# Created by Kenney (www.kenney.nl)

mtllib wall_windowC.mtl

g wall_windowC

v -0.12 0.13 -0.02
v 0.1 0.15 -0.02
v 0.12 0.13 -0.02
v 0.12 0.27 -0.02
v 0.1 0.25 -0.02
v 0.01 0.25 -0.02
v -0.01 0.25 -0.02
v -0.1 0.25 -0.02
v -0.1 0.15 -0.02
v -0.12 0.27 -0.02
v 0.01 0.15 -0.02
v -0.01 0.15 -0.02
v 0.2 -5.639933E-18 2.113396E-13
v -0.2 -5.639933E-18 0
v 0.2 0.05 2.113396E-13
v -0.2 0.05 0
v 0.12 0.27 1.691077E-13
v -0.12 0.27 4.223182E-14
v 0.12 0.13 1.691077E-13
v -0.12 0.13 4.223182E-14
v -0.15 0.1 2.634977E-14
v 0.15 0.1 1.849898E-13
v 0.15 0.3 1.849898E-13
v -0.15 0.3 2.634977E-14
v 0.2 0.4 2.113396E-13
v -0.2 0.4 0

vn 0 0 1
vn 0 -1 0
vn 0 1 0
vn 1 0 0
vn -1 0 0

vt -4.72441 5.11811
vt 3.937008 5.905512
vt 4.72441 5.11811
vt 4.72441 10.62992
vt 3.937008 9.84252
vt 0.3937008 9.84252
vt -0.3937008 9.84252
vt -3.937008 9.84252
vt -3.937008 5.905512
vt -4.72441 10.62992
vt 0.3937008 5.905512
vt -0.3937008 5.905512
vt 7.874016 -2.220446E-16
vt -7.874016 -2.220446E-16
vt 7.874016 1.968504
vt -7.874016 1.968504
vt 4.72441 -0.7874016
vt -4.72441 -0.7874016
vt 4.72441 6.657785E-12
vt -4.72441 1.66267E-12
vt -4.72441 6.657785E-12
vt 4.72441 1.66267E-12
vt 0.7874016 10.62992
vt 0.7874016 5.11811
vt -4.158983E-12 10.62992
vt -4.158983E-12 5.11811
vt -0.7874016 5.11811
vt -0.7874016 10.62992
vt 4.161472E-12 5.11811
vt 4.161472E-12 10.62992
vt -5.905512 3.937008
vt 5.905512 3.937008
vt 5.905512 11.81102
vt -5.905512 11.81102

usemtl border

f 3/3/1 2/2/1 1/1/1
f 2/2/1 3/3/1 4/4/1
f 2/2/1 4/4/1 5/5/1
f 5/5/1 4/4/1 6/6/1
f 6/6/1 4/4/1 7/7/1
f 7/7/1 4/4/1 8/8/1
f 9/9/1 1/1/1 2/2/1
f 1/1/1 9/9/1 10/10/1
f 10/10/1 9/9/1 8/8/1
f 10/10/1 8/8/1 4/4/1
f 9/9/1 2/2/1 11/11/1
f 9/9/1 11/11/1 12/12/1
f 6/6/1 12/12/1 11/11/1
f 12/12/1 6/6/1 7/7/1
f 15/15/1 14/14/1 13/13/1
f 14/14/1 15/15/1 16/16/1
f 17/19/2 10/18/2 4/17/2
f 10/18/2 17/19/2 18/20/2
f 1/17/3 19/21/3 3/18/3
f 19/21/3 1/17/3 20/22/3
f 18/25/4 1/24/4 10/23/4
f 1/24/4 18/25/4 20/26/4
f 19/29/5 4/28/5 3/27/5
f 4/28/5 19/29/5 17/30/5
f 22/32/1 19/3/1 21/31/1
f 19/3/1 22/32/1 23/33/1
f 19/3/1 23/33/1 17/4/1
f 17/4/1 23/33/1 18/10/1
f 20/1/1 21/31/1 19/3/1
f 21/31/1 20/1/1 24/34/1
f 24/34/1 20/1/1 18/10/1
f 24/34/1 18/10/1 23/33/1

usemtl _defaultMat

f 15/21/1 22/17/1 16/22/1
f 22/21/1 15/17/1 25/22/1
f 22/21/1 25/17/1 23/22/1
f 23/21/1 25/17/1 24/22/1
f 16/21/1 21/17/1 26/22/1
f 21/21/1 16/17/1 22/22/1
f 26/21/1 21/17/1 24/22/1
f 26/21/1 24/17/1 25/22/1

usemtl window

f 7/7/1 9/9/1 12/12/1
f 9/9/1 7/7/1 8/8/1
f 5/5/1 11/11/1 2/2/1
f 11/11/1 5/5/1 6/6/1

