# Blender v2.79 (sub 0) OBJ File: '18.blend'
# www.blender.org
mtllib grenade projectile.mtl
o Cube.050_Cube.064
v -11.795193 0.004898 7.204842
v -11.815896 0.004898 7.164208
v -11.815896 0.197758 7.164208
v -11.795193 0.197758 7.204842
v -11.848142 0.004898 7.131963
v -11.848142 0.197758 7.131963
v -11.888775 0.004898 7.111259
v -11.888775 0.197758 7.111259
v -11.933816 0.004898 7.104126
v -11.933816 0.197758 7.104126
v -11.978857 0.004898 7.111259
v -11.978857 0.197758 7.111259
v -12.019489 0.004898 7.131963
v -12.019489 0.197758 7.131963
v -12.051736 0.004898 7.164208
v -12.051736 0.197758 7.164208
v -12.072439 0.004898 7.204842
v -12.072439 0.197758 7.204842
v -12.079573 0.004898 7.249883
v -12.079573 0.197758 7.249883
v -12.072439 0.004898 7.294924
v -12.072439 0.197758 7.294924
v -12.051736 0.004898 7.335557
v -12.051736 0.197758 7.335557
v -12.019489 0.004898 7.367803
v -12.019489 0.197758 7.367803
v -11.978857 0.004898 7.388506
v -11.978857 0.197758 7.388506
v -11.933816 0.004898 7.395639
v -11.933816 0.197758 7.395639
v -11.888775 0.004898 7.388506
v -11.888775 0.197758 7.388506
v -11.848142 0.004898 7.367803
v -11.848142 0.197758 7.367803
v -11.815896 0.004898 7.335557
v -11.815896 0.197758 7.335557
v -11.795193 0.004898 7.294924
v -11.795193 0.197758 7.294924
v -11.788059 0.004898 7.249883
v -11.788059 0.197758 7.249883
v -11.901557 0.392629 7.249883
v -11.914855 0.392629 7.275981
v -11.907718 0.392629 7.268844
v -11.903135 0.392629 7.259851
v -11.818955 0.247865 7.166431
v -11.798790 0.247865 7.206010
v -11.850365 0.247865 7.135023
v -11.889942 0.247865 7.114857
v -11.933816 0.247865 7.107908
v -11.977689 0.247865 7.114857
v -12.017267 0.247865 7.135023
v -12.048676 0.247865 7.166431
v -12.068842 0.247865 7.206010
v -12.075790 0.247865 7.249883
v -12.068842 0.247865 7.293756
v -12.048676 0.247865 7.333334
v -12.017267 0.247865 7.364743
v -11.977689 0.247865 7.384909
v -11.933816 0.247865 7.391858
v -11.889942 0.247865 7.384909
v -11.850365 0.247865 7.364743
v -11.818955 0.247865 7.333334
v -11.798790 0.247865 7.293756
v -11.791841 0.247865 7.249883
v -11.824362 0.288617 7.170360
v -11.805145 0.288617 7.208075
v -11.854293 0.288617 7.140429
v -11.892008 0.288617 7.121212
v -11.933816 0.288617 7.114590
v -11.975624 0.288617 7.121212
v -12.013339 0.288617 7.140429
v -12.043270 0.288617 7.170360
v -12.062487 0.288617 7.208075
v -12.069109 0.288617 7.249883
v -12.062487 0.288617 7.291691
v -12.043270 0.288617 7.329406
v -12.013339 0.288617 7.359337
v -11.975624 0.288617 7.378554
v -11.933816 0.288617 7.385176
v -11.892008 0.288617 7.378554
v -11.854293 0.288617 7.359337
v -11.824362 0.288617 7.329406
v -11.805145 0.288617 7.291691
v -11.798523 0.288617 7.249883
v -11.816331 0.320451 7.211710
v -11.833877 0.320451 7.177273
v -11.846189 0.348443 7.186218
v -11.830804 0.348443 7.216412
v -11.861206 0.320451 7.149944
v -11.870151 0.348443 7.162256
v -11.895643 0.320451 7.132398
v -11.900345 0.348443 7.146871
v -11.933816 0.320451 7.126352
v -11.933816 0.348443 7.141570
v -11.971989 0.320451 7.132398
v -11.967287 0.348443 7.146871
v -12.006426 0.320451 7.149944
v -11.997480 0.348443 7.162256
v -12.033754 0.320451 7.177273
v -12.021442 0.348443 7.186218
v -12.051301 0.320451 7.211710
v -12.036828 0.348443 7.216412
v -12.057346 0.320451 7.249883
v -12.042129 0.348443 7.249883
v -12.051301 0.320451 7.288055
v -12.036828 0.348443 7.283354
v -12.033754 0.320451 7.322493
v -12.021442 0.348443 7.313548
v -12.006426 0.320451 7.349822
v -11.997480 0.348443 7.337510
v -11.971989 0.320451 7.367368
v -11.967287 0.348443 7.352895
v -11.933816 0.320451 7.373414
v -11.933816 0.348443 7.358196
v -11.895643 0.320451 7.367368
v -11.900345 0.348443 7.352895
v -11.861206 0.320451 7.349822
v -11.870151 0.348443 7.337510
v -11.833877 0.320451 7.322493
v -11.846189 0.348443 7.313548
v -11.816331 0.320451 7.288055
v -11.830804 0.348443 7.283354
v -11.810285 0.320451 7.249883
v -11.825502 0.348443 7.249883
v -11.856400 0.375167 7.224729
v -11.867963 0.375167 7.202038
v -11.886036 0.386641 7.215168
v -11.877646 0.386641 7.231633
v -11.885971 0.375167 7.184030
v -11.899101 0.386641 7.202103
v -11.908662 0.375167 7.172468
v -11.915565 0.386641 7.193714
v -11.933816 0.375167 7.168484
v -11.933816 0.386641 7.190823
v -11.958970 0.375167 7.172468
v -11.952066 0.386641 7.193714
v -11.981661 0.375167 7.184030
v -11.968531 0.386641 7.202103
v -11.999669 0.375167 7.202038
v -11.981597 0.386641 7.215168
v -12.011230 0.375167 7.224729
v -11.989985 0.386641 7.231633
v -12.015215 0.375167 7.249883
v -11.992876 0.386641 7.249883
v -12.011230 0.375167 7.275037
v -11.989985 0.386641 7.268134
v -11.999669 0.375167 7.297728
v -11.981596 0.386641 7.284598
v -11.981661 0.375167 7.315736
v -11.968531 0.386641 7.297663
v -11.958970 0.375167 7.327298
v -11.952066 0.386641 7.306052
v -11.933816 0.375167 7.331282
v -11.933816 0.386641 7.308943
v -11.908662 0.375167 7.327298
v -11.915565 0.386641 7.306052
v -11.885971 0.375167 7.315736
v -11.899101 0.386641 7.297663
v -11.867963 0.375167 7.297728
v -11.886036 0.386641 7.284598
v -11.856400 0.375167 7.275037
v -11.877646 0.386641 7.268134
v -11.852417 0.375167 7.249883
v -11.874756 0.386641 7.249883
v -11.943785 0.392629 7.280563
v -11.952777 0.392629 7.275981
v -11.959913 0.392629 7.268844
v -11.964496 0.392629 7.259851
v -11.966075 0.392629 7.249883
v -11.964496 0.392629 7.239914
v -11.959913 0.392629 7.230922
v -11.952777 0.392629 7.223784
v -11.943785 0.392629 7.219203
v -11.933816 0.392629 7.217624
v -11.923847 0.392629 7.219203
v -11.914855 0.392629 7.223784
v -11.907718 0.392629 7.230922
v -11.903135 0.392629 7.239914
v -11.923847 0.392629 7.280563
v -11.933816 0.392629 7.282142
v -12.072439 0.004898 7.294924
v -12.051736 0.004898 7.335557
v -12.072439 0.004898 7.204842
v -12.079573 0.004898 7.249883
v -11.795193 0.004898 7.204842
v -11.815896 0.004898 7.164208
v -12.019489 0.004898 7.367803
v -11.978857 0.004898 7.388506
v -11.933816 0.004898 7.395639
v -11.888775 0.004898 7.388506
v -11.933816 0.004898 7.104126
v -11.978857 0.004898 7.111259
v -12.019489 0.004898 7.131963
v -12.051736 0.004898 7.164208
v -11.815896 0.004898 7.335557
v -11.795193 0.004898 7.294924
v -11.848142 0.004898 7.131963
v -11.888775 0.004898 7.111259
v -11.848142 0.004898 7.367803
v -11.788059 0.004898 7.249883
vt 0.671798 0.095858
vt 0.676531 0.095858
vt 0.676531 0.115874
vt 0.671798 0.115874
vt 0.681264 0.095858
vt 0.681264 0.115874
vt 0.685997 0.095858
vt 0.685997 0.115874
vt 0.690730 0.095858
vt 0.690730 0.115874
vt 0.695462 0.095858
vt 0.695462 0.115874
vt 0.700195 0.095858
vt 0.700195 0.115874
vt 0.704928 0.095858
vt 0.704928 0.115874
vt 0.709661 0.095858
vt 0.709661 0.115874
vt 0.714394 0.095858
vt 0.714394 0.115874
vt 0.719126 0.095858
vt 0.719126 0.115874
vt 0.723859 0.095858
vt 0.723859 0.115874
vt 0.728592 0.095858
vt 0.728592 0.115874
vt 0.733325 0.095858
vt 0.733325 0.115874
vt 0.738058 0.095858
vt 0.738058 0.115874
vt 0.742791 0.095858
vt 0.742791 0.115874
vt 0.747523 0.095858
vt 0.747523 0.115874
vt 0.752256 0.095858
vt 0.752256 0.115874
vt 0.756989 0.095858
vt 0.756989 0.115873
vt 0.761722 0.095858
vt 0.761722 0.115873
vt 0.766455 0.095858
vt 0.766455 0.115873
vt 0.685133 0.721944
vt 0.660959 0.739508
vt 0.658177 0.735679
vt 0.682352 0.718115
vt 0.581561 0.968593
vt 0.580577 0.967185
vt 0.581050 0.967542
vt 0.581389 0.968027
vt 0.603923 0.973166
vt 0.601537 0.980456
vt 0.594931 0.977014
vt 0.596756 0.971934
vt 0.596941 0.986839
vt 0.591600 0.981233
vt 0.590327 0.991063
vt 0.587251 0.984395
vt 0.583018 0.992969
vt 0.582101 0.986061
vt 0.575550 0.992969
vt 0.576707 0.985858
vt 0.568319 0.990691
vt 0.571661 0.984070
vt 0.561890 0.986257
vt 0.567375 0.980869
vt 0.557563 0.979718
vt 0.564182 0.976537
vt 0.555517 0.972453
vt 0.562478 0.971396
vt 0.555314 0.964905
vt 0.562522 0.965953
vt 0.557525 0.957458
vt 0.564320 0.960814
vt 0.562032 0.950819
vt 0.567566 0.956440
vt 0.568778 0.946380
vt 0.571990 0.953185
vt 0.576297 0.944385
vt 0.577244 0.951465
vt 0.583982 0.944403
vt 0.582752 0.951682
vt 0.591390 0.946828
vt 0.587898 0.953524
vt 0.597846 0.951505
vt 0.592157 0.956899
vt 0.602088 0.958215
vt 0.595333 0.961294
vt 0.603975 0.965615
vt 0.596991 0.966496
vt 0.590994 0.974868
vt 0.592301 0.971095
vt 0.588608 0.978103
vt 0.585279 0.980363
vt 0.581465 0.981486
vt 0.577495 0.981452
vt 0.573694 0.980199
vt 0.570501 0.977767
vt 0.568192 0.974503
vt 0.566986 0.970683
vt 0.567079 0.966688
vt 0.568284 0.962865
vt 0.570727 0.959626
vt 0.574045 0.957301
vt 0.577900 0.956146
vt 0.581918 0.956191
vt 0.585733 0.957502
vt 0.588991 0.959916
vt 0.591256 0.963270
vt 0.592367 0.967111
vt 0.589383 0.970560
vt 0.588413 0.973492
vt 0.586280 0.972373
vt 0.587051 0.970173
vt 0.586524 0.975960
vt 0.584850 0.974212
vt 0.583969 0.977694
vt 0.582957 0.975557
vt 0.581049 0.978535
vt 0.580728 0.976256
vt 0.578011 0.978537
vt 0.578393 0.976201
vt 0.575065 0.977590
vt 0.576208 0.975433
vt 0.572605 0.975692
vt 0.574333 0.974051
vt 0.570852 0.973165
vt 0.572981 0.972146
vt 0.569984 0.970245
vt 0.572271 0.969912
vt 0.569982 0.967196
vt 0.572318 0.967564
vt 0.570923 0.964240
vt 0.573077 0.965351
vt 0.572819 0.961749
vt 0.574507 0.963497
vt 0.575381 0.959989
vt 0.576407 0.962137
vt 0.578324 0.959134
vt 0.578649 0.961428
vt 0.581388 0.959134
vt 0.580999 0.961486
vt 0.584352 0.960102
vt 0.583194 0.962266
vt 0.586828 0.962018
vt 0.585074 0.963662
vt 0.588565 0.964580
vt 0.586419 0.965585
vt 0.589398 0.967515
vt 0.587114 0.967828
vt 0.584644 0.969741
vt 0.584110 0.971221
vt 0.582776 0.970506
vt 0.583144 0.969470
vt 0.583152 0.972453
vt 0.582111 0.971372
vt 0.581884 0.973368
vt 0.581218 0.972005
vt 0.580384 0.973808
vt 0.580167 0.972321
vt 0.578815 0.973798
vt 0.579073 0.972299
vt 0.577332 0.973272
vt 0.578041 0.971937
vt 0.576092 0.972329
vt 0.577164 0.971285
vt 0.575174 0.971062
vt 0.576536 0.970385
vt 0.574727 0.969558
vt 0.576218 0.969336
vt 0.574733 0.967984
vt 0.576238 0.968240
vt 0.575261 0.966496
vt 0.576600 0.967205
vt 0.576218 0.965256
vt 0.577263 0.966339
vt 0.577491 0.964335
vt 0.578154 0.965706
vt 0.578999 0.963889
vt 0.579201 0.965383
vt 0.580571 0.963898
vt 0.580301 0.965399
vt 0.582056 0.964431
vt 0.581336 0.965766
vt 0.583298 0.965386
vt 0.582210 0.966423
vt 0.584215 0.966660
vt 0.582840 0.967320
vt 0.584656 0.968170
vt 0.583161 0.968370
vt 0.578861 0.967155
vt 0.578377 0.967495
vt 0.578020 0.967965
vt 0.577827 0.968524
vt 0.577815 0.969115
vt 0.577987 0.969680
vt 0.578326 0.970165
vt 0.578797 0.970520
vt 0.579356 0.970713
vt 0.579947 0.970725
vt 0.580512 0.970552
vt 0.580998 0.970214
vt 0.581356 0.969744
vt 0.581550 0.969184
vt 0.580018 0.966993
vt 0.579426 0.966981
vt 0.669289 0.713871
vt 0.658177 0.721944
vt 0.660959 0.718115
vt 0.664788 0.715334
vt 0.674022 0.713871
vt 0.656714 0.726445
vt 0.678523 0.715334
vt 0.656714 0.731178
vt 0.686596 0.731178
vt 0.669289 0.743753
vt 0.664788 0.742290
vt 0.686596 0.726445
vt 0.685133 0.735680
vt 0.682352 0.739508
vt 0.678523 0.742290
vt 0.674022 0.743753
vn 0.9510 0.0000 -0.3090
vn 0.8090 0.0000 -0.5878
vn 0.8084 0.0375 -0.5874
vn 0.9504 0.0375 -0.3088
vn 0.5878 0.0000 -0.8090
vn 0.5874 0.0375 -0.8084
vn 0.3090 0.0000 -0.9510
vn 0.3088 0.0375 -0.9504
vn 0.0000 0.0000 -1.0000
vn 0.0000 0.0375 -0.9993
vn -0.3090 0.0000 -0.9510
vn -0.3088 0.0375 -0.9504
vn -0.5878 0.0000 -0.8090
vn -0.5874 0.0375 -0.8084
vn -0.8090 0.0000 -0.5878
vn -0.8084 0.0375 -0.5874
vn -0.9510 0.0000 -0.3090
vn -0.9504 0.0375 -0.3088
vn -1.0000 0.0000 0.0000
vn -0.9993 0.0375 0.0000
vn -0.9510 0.0000 0.3090
vn -0.9504 0.0375 0.3088
vn -0.8090 0.0000 0.5878
vn -0.8084 0.0375 0.5874
vn -0.5878 0.0000 0.8090
vn -0.5874 0.0375 0.8084
vn -0.3090 0.0000 0.9510
vn -0.3088 0.0375 0.9504
vn 0.0000 0.0000 1.0000
vn 0.0000 0.0375 0.9993
vn 0.3090 0.0000 0.9510
vn 0.3088 0.0375 0.9504
vn 0.5878 0.0000 0.8090
vn 0.5874 0.0375 0.8084
vn 0.8090 0.0000 0.5878
vn 0.8084 0.0375 0.5874
vn 0.9510 0.0000 0.3090
vn 0.9504 0.0375 0.3088
vn 1.0000 0.0000 0.0000
vn 0.9993 0.0375 0.0000
vn 0.0000 -1.0000 0.0000
vn 0.1205 0.9927 0.0000
vn 0.0708 0.9927 0.0975
vn 0.0975 0.9927 0.0708
vn 0.1146 0.9927 0.0372
vn 0.8033 0.1181 -0.5836
vn 0.9444 0.1181 -0.3068
vn 0.5837 0.1181 -0.8033
vn 0.3068 0.1181 -0.9444
vn 0.0000 0.1181 -0.9930
vn -0.3068 0.1181 -0.9444
vn -0.5837 0.1181 -0.8033
vn -0.8033 0.1181 -0.5837
vn -0.9444 0.1181 -0.3068
vn -0.9930 0.1181 0.0000
vn -0.9444 0.1181 0.3068
vn -0.8033 0.1181 0.5837
vn -0.5837 0.1181 0.8033
vn -0.3068 0.1181 0.9444
vn 0.0000 0.1181 0.9930
vn 0.3068 0.1181 0.9444
vn 0.5836 0.1181 0.8033
vn 0.8033 0.1181 0.5836
vn 0.9444 0.1181 0.3068
vn 0.9930 0.1181 0.0000
vn 0.7827 0.2530 -0.5687
vn 0.9201 0.2530 -0.2990
vn 0.5687 0.2530 -0.7827
vn 0.2989 0.2530 -0.9201
vn 0.0000 0.2530 -0.9674
vn -0.2990 0.2530 -0.9201
vn -0.5687 0.2530 -0.7827
vn -0.7827 0.2530 -0.5687
vn -0.9201 0.2530 -0.2990
vn -0.9674 0.2530 0.0000
vn -0.9201 0.2530 0.2990
vn -0.7827 0.2530 0.5687
vn -0.5687 0.2530 0.7827
vn -0.2990 0.2530 0.9201
vn 0.0000 0.2530 0.9674
vn 0.2990 0.2530 0.9201
vn 0.5687 0.2530 0.7827
vn 0.7827 0.2530 0.5686
vn 0.9201 0.2530 0.2990
vn 0.9674 0.2530 0.0000
vn 0.8672 0.4105 -0.2817
vn 0.7377 0.4105 -0.5360
vn 0.6514 0.5931 -0.4732
vn 0.7657 0.5931 -0.2488
vn 0.5360 0.4105 -0.7377
vn 0.4732 0.5931 -0.6514
vn 0.2818 0.4105 -0.8672
vn 0.2488 0.5931 -0.7657
vn 0.0000 0.4105 -0.9118
vn 0.0000 0.5931 -0.8051
vn -0.2818 0.4105 -0.8672
vn -0.2488 0.5931 -0.7657
vn -0.5360 0.4105 -0.7377
vn -0.4732 0.5931 -0.6513
vn -0.7377 0.4105 -0.5360
vn -0.6513 0.5931 -0.4732
vn -0.8672 0.4105 -0.2817
vn -0.7657 0.5931 -0.2488
vn -0.9118 0.4105 0.0000
vn -0.8051 0.5931 0.0000
vn -0.8672 0.4105 0.2817
vn -0.7657 0.5931 0.2488
vn -0.7377 0.4105 0.5360
vn -0.6513 0.5931 0.4732
vn -0.5360 0.4105 0.7377
vn -0.4732 0.5931 0.6513
vn -0.2817 0.4105 0.8672
vn -0.2488 0.5931 0.7657
vn 0.0000 0.4105 0.9118
vn 0.0000 0.5931 0.8051
vn 0.2817 0.4105 0.8672
vn 0.2488 0.5931 0.7657
vn 0.5360 0.4105 0.7377
vn 0.4732 0.5931 0.6513
vn 0.7377 0.4105 0.5360
vn 0.6513 0.5931 0.4732
vn 0.8672 0.4105 0.2818
vn 0.7657 0.5931 0.2488
vn 0.9118 0.4105 0.0000
vn 0.8051 0.5931 0.0000
vn 0.5682 0.8018 -0.1846
vn 0.4834 0.8019 -0.3512
vn 0.2842 0.9362 -0.2065
vn 0.3341 0.9362 -0.1086
vn 0.3512 0.8018 -0.4834
vn 0.2065 0.9362 -0.2842
vn 0.1846 0.8018 -0.5682
vn 0.1086 0.9362 -0.3341
vn 0.0000 0.8019 -0.5975
vn 0.0000 0.9362 -0.3513
vn -0.1846 0.8018 -0.5682
vn -0.1086 0.9362 -0.3341
vn -0.3512 0.8018 -0.4834
vn -0.2065 0.9362 -0.2842
vn -0.4834 0.8018 -0.3512
vn -0.2842 0.9362 -0.2065
vn -0.5682 0.8018 -0.1846
vn -0.3341 0.9362 -0.1086
vn -0.5975 0.8018 0.0000
vn -0.3513 0.9362 0.0000
vn -0.5683 0.8018 0.1846
vn -0.3341 0.9362 0.1086
vn -0.4834 0.8018 0.3512
vn -0.2842 0.9362 0.2065
vn -0.3512 0.8018 0.4834
vn -0.2065 0.9362 0.2842
vn -0.1846 0.8018 0.5682
vn -0.1086 0.9362 0.3341
vn 0.0000 0.8018 0.5975
vn 0.0000 0.9362 0.3513
vn 0.1846 0.8018 0.5682
vn 0.1086 0.9362 0.3341
vn 0.3512 0.8018 0.4834
vn 0.2065 0.9362 0.2842
vn 0.4834 0.8019 0.3512
vn 0.2842 0.9362 0.2065
vn 0.5682 0.8018 0.1846
vn 0.3341 0.9362 0.1086
vn 0.5975 0.8018 0.0000
vn 0.3513 0.9362 0.0000
vn -0.0372 0.9927 0.1146
vn -0.0708 0.9927 0.0975
vn -0.0975 0.9927 0.0708
vn -0.1146 0.9927 0.0372
vn -0.1205 0.9927 0.0000
vn -0.1146 0.9927 -0.0372
vn -0.0974 0.9927 -0.0708
vn -0.0708 0.9927 -0.0975
vn -0.0372 0.9927 -0.1146
vn 0.0000 0.9927 -0.1205
vn 0.0372 0.9927 -0.1146
vn 0.0708 0.9927 -0.0975
vn 0.0975 0.9927 -0.0708
vn 0.1146 0.9927 -0.0372
vn 0.0372 0.9927 0.1146
vn 0.0000 0.9927 0.1205
usemtl Material.001
s 1
f 1/1/1 2/2/2 3/3/3 4/4/4
f 2/2/2 197/5/5 6/6/6 3/3/3
f 197/5/5 198/7/7 8/8/8 6/6/6
f 198/7/7 191/9/9 10/10/10 8/8/8
f 191/9/9 192/11/11 12/12/12 10/10/10
f 192/11/11 193/13/13 14/14/14 12/12/12
f 193/13/13 194/15/15 16/16/16 14/14/14
f 194/15/15 183/17/17 18/18/18 16/16/16
f 183/17/17 184/19/19 20/20/20 18/18/18
f 184/19/19 181/21/21 22/22/22 20/20/20
f 22/22/22 181/21/21 182/23/23 24/24/24
f 182/23/23 187/25/25 26/26/26 24/24/24
f 187/25/25 188/27/27 28/28/28 26/26/26
f 188/27/27 189/29/29 30/30/30 28/28/28
f 189/29/29 31/31/31 32/32/32 30/30/30
f 31/31/31 33/33/33 34/34/34 32/32/32
f 33/33/33 35/35/35 36/36/36 34/34/34
f 35/35/35 196/37/37 38/38/38 36/36/36
f 196/37/37 200/39/39 40/40/40 38/38/38
f 200/39/39 1/41/1 4/42/4 40/40/40
f 7/43/41 29/44/41 27/45/41 9/46/41
f 41/47/42 42/48/43 43/49/44 44/50/45
f 4/51/4 3/52/3 45/53/46 46/54/47
f 3/52/3 6/55/6 47/56/48 45/53/46
f 6/55/6 8/57/8 48/58/49 47/56/48
f 8/57/8 10/59/10 49/60/50 48/58/49
f 10/59/10 12/61/12 50/62/51 49/60/50
f 12/61/12 14/63/14 51/64/52 50/62/51
f 14/63/14 16/65/16 52/66/53 51/64/52
f 16/65/16 18/67/18 53/68/54 52/66/53
f 18/67/18 20/69/20 54/70/55 53/68/54
f 20/69/20 22/71/22 55/72/56 54/70/55
f 22/71/22 24/73/24 56/74/57 55/72/56
f 24/73/24 26/75/26 57/76/58 56/74/57
f 26/75/26 28/77/28 58/78/59 57/76/58
f 28/77/28 30/79/30 59/80/60 58/78/59
f 30/79/30 32/81/32 60/82/61 59/80/60
f 32/81/32 34/83/34 61/84/62 60/82/61
f 34/83/34 36/85/36 62/86/63 61/84/62
f 36/85/36 38/87/38 63/88/64 62/86/63
f 38/87/38 40/89/40 64/90/65 63/88/64
f 40/89/40 4/51/4 46/54/47 64/90/65
f 46/54/47 45/53/46 65/91/66 66/92/67
f 45/53/46 47/56/48 67/93/68 65/91/66
f 47/56/48 48/58/49 68/94/69 67/93/68
f 48/58/49 49/60/50 69/95/70 68/94/69
f 49/60/50 50/62/51 70/96/71 69/95/70
f 50/62/51 51/64/52 71/97/72 70/96/71
f 51/64/52 52/66/53 72/98/73 71/97/72
f 52/66/53 53/68/54 73/99/74 72/98/73
f 53/68/54 54/70/55 74/100/75 73/99/74
f 54/70/55 55/72/56 75/101/76 74/100/75
f 55/72/56 56/74/57 76/102/77 75/101/76
f 56/74/57 57/76/58 77/103/78 76/102/77
f 57/76/58 58/78/59 78/104/79 77/103/78
f 58/78/59 59/80/60 79/105/80 78/104/79
f 59/80/60 60/82/61 80/106/81 79/105/80
f 60/82/61 61/84/62 81/107/82 80/106/81
f 61/84/62 62/86/63 82/108/83 81/107/82
f 62/86/63 63/88/64 83/109/84 82/108/83
f 63/88/64 64/90/65 84/110/85 83/109/84
f 64/90/65 46/54/47 66/92/67 84/110/85
f 85/111/86 86/112/87 87/113/88 88/114/89
f 86/112/87 89/115/90 90/116/91 87/113/88
f 89/115/90 91/117/92 92/118/93 90/116/91
f 91/117/92 93/119/94 94/120/95 92/118/93
f 93/119/94 95/121/96 96/122/97 94/120/95
f 95/121/96 97/123/98 98/124/99 96/122/97
f 97/123/98 99/125/100 100/126/101 98/124/99
f 99/125/100 101/127/102 102/128/103 100/126/101
f 101/127/102 103/129/104 104/130/105 102/128/103
f 103/129/104 105/131/106 106/132/107 104/130/105
f 105/131/106 107/133/108 108/134/109 106/132/107
f 107/133/108 109/135/110 110/136/111 108/134/109
f 109/135/110 111/137/112 112/138/113 110/136/111
f 111/137/112 113/139/114 114/140/115 112/138/113
f 113/139/114 115/141/116 116/142/117 114/140/115
f 115/141/116 117/143/118 118/144/119 116/142/117
f 117/143/118 119/145/120 120/146/121 118/144/119
f 119/145/120 121/147/122 122/148/123 120/146/121
f 121/147/122 123/149/124 124/150/125 122/148/123
f 123/149/124 85/111/86 88/114/89 124/150/125
f 125/151/126 126/152/127 127/153/128 128/154/129
f 126/152/127 129/155/130 130/156/131 127/153/128
f 129/155/130 131/157/132 132/158/133 130/156/131
f 131/157/132 133/159/134 134/160/135 132/158/133
f 133/159/134 135/161/136 136/162/137 134/160/135
f 135/161/136 137/163/138 138/164/139 136/162/137
f 137/163/138 139/165/140 140/166/141 138/164/139
f 139/165/140 141/167/142 142/168/143 140/166/141
f 141/167/142 143/169/144 144/170/145 142/168/143
f 143/169/144 145/171/146 146/172/147 144/170/145
f 145/171/146 147/173/148 148/174/149 146/172/147
f 147/173/148 149/175/150 150/176/151 148/174/149
f 149/175/150 151/177/152 152/178/153 150/176/151
f 151/177/152 153/179/154 154/180/155 152/178/153
f 153/179/154 155/181/156 156/182/157 154/180/155
f 155/181/156 157/183/158 158/184/159 156/182/157
f 157/183/158 159/185/160 160/186/161 158/184/159
f 159/185/160 161/187/162 162/188/163 160/186/161
f 161/187/162 163/189/164 164/190/165 162/188/163
f 163/189/164 125/151/126 128/154/129 164/190/165
f 110/136/111 112/138/113 151/177/152 149/175/150
f 108/134/109 110/136/111 149/175/150 147/173/148
f 106/132/107 108/134/109 147/173/148 145/171/146
f 104/130/105 106/132/107 145/171/146 143/169/144
f 102/128/103 104/130/105 143/169/144 141/167/142
f 100/126/101 102/128/103 141/167/142 139/165/140
f 98/124/99 100/126/101 139/165/140 137/163/138
f 96/122/97 98/124/99 137/163/138 135/161/136
f 94/120/95 96/122/97 135/161/136 133/159/134
f 92/118/93 94/120/95 133/159/134 131/157/132
f 90/116/91 92/118/93 131/157/132 129/155/130
f 87/113/88 90/116/91 129/155/130 126/152/127
f 88/114/89 87/113/88 126/152/127 125/151/126
f 124/150/125 88/114/89 125/151/126 163/189/164
f 122/148/123 124/150/125 163/189/164 161/187/162
f 120/146/121 122/148/123 161/187/162 159/185/160
f 118/144/119 120/146/121 159/185/160 157/183/158
f 116/142/117 118/144/119 157/183/158 155/181/156
f 114/140/115 116/142/117 155/181/156 153/179/154
f 112/138/113 114/140/115 153/179/154 151/177/152
f 75/101/76 76/102/77 107/133/108 105/131/106
f 74/100/75 75/101/76 105/131/106 103/129/104
f 73/99/74 74/100/75 103/129/104 101/127/102
f 72/98/73 73/99/74 101/127/102 99/125/100
f 71/97/72 72/98/73 99/125/100 97/123/98
f 70/96/71 71/97/72 97/123/98 95/121/96
f 69/95/70 70/96/71 95/121/96 93/119/94
f 68/94/69 69/95/70 93/119/94 91/117/92
f 67/93/68 68/94/69 91/117/92 89/115/90
f 65/91/66 67/93/68 89/115/90 86/112/87
f 66/92/67 65/91/66 86/112/87 85/111/86
f 84/110/85 66/92/67 85/111/86 123/149/124
f 83/109/84 84/110/85 123/149/124 121/147/122
f 82/108/83 83/109/84 121/147/122 119/145/120
f 81/107/82 82/108/83 119/145/120 117/143/118
f 80/106/81 81/107/82 117/143/118 115/141/116
f 79/105/80 80/106/81 115/141/116 113/139/114
f 78/104/79 79/105/80 113/139/114 111/137/112
f 77/103/78 78/104/79 111/137/112 109/135/110
f 76/102/77 77/103/78 109/135/110 107/133/108
f 150/176/151 152/178/153 165/191/166 166/192/167
f 148/174/149 150/176/151 166/192/167 167/193/168
f 146/172/147 148/174/149 167/193/168 168/194/169
f 144/170/145 146/172/147 168/194/169 169/195/170
f 142/168/143 144/170/145 169/195/170 170/196/171
f 140/166/141 142/168/143 170/196/171 171/197/172
f 138/164/139 140/166/141 171/197/172 172/198/173
f 136/162/137 138/164/139 172/198/173 173/199/174
f 134/160/135 136/162/137 173/199/174 174/200/175
f 132/158/133 134/160/135 174/200/175 175/201/176
f 130/156/131 132/158/133 175/201/176 176/202/177
f 127/153/128 130/156/131 176/202/177 177/203/178
f 128/154/129 127/153/128 177/203/178 178/204/179
f 164/190/165 128/154/129 178/204/179 41/47/42
f 162/188/163 164/190/165 41/47/42 44/50/45
f 160/186/161 162/188/163 44/50/45 43/49/44
f 158/184/159 160/186/161 43/49/44 42/48/43
f 156/182/157 158/184/159 42/48/43 179/205/180
f 154/180/155 156/182/157 179/205/180 180/206/181
f 152/178/153 154/180/155 180/206/181 165/191/166
f 169/195/170 172/198/173 171/197/172 170/196/171
f 168/194/169 173/199/174 172/198/173 169/195/170
f 167/193/168 174/200/175 173/199/174 168/194/169
f 166/192/167 175/201/176 174/200/175 167/193/168
f 165/191/166 176/202/177 175/201/176 166/192/167
f 180/206/181 177/203/178 176/202/177 165/191/166
f 178/204/179 177/203/178 180/206/181 179/205/180
f 178/204/179 179/205/180 42/48/43 41/47/42
f 15/207/41 21/208/41 19/209/41 17/210/41
f 13/211/41 23/212/41 21/208/41 15/207/41
f 11/213/41 25/214/41 23/212/41 13/211/41
f 9/46/41 27/45/41 25/214/41 11/213/41
f 186/215/41 199/216/41 190/217/41 5/218/41
f 5/218/41 190/217/41 29/44/41 7/43/41
f 185/219/41 39/220/41 37/221/41 195/222/41
f 185/219/41 195/222/41 199/216/41 186/215/41
