<?xml version="1.0" encoding="UTF-8" standalone="no"?>
<!-- Created with Inkscape (http://www.inkscape.org/) -->

<svg
   width="512"
   height="512"
   viewBox="0 0 512 512"
   version="1.1"
   id="svg5"
   xml:space="preserve"
   inkscape:version="1.2.2 (732a01da63, 2022-12-09)"
   sodipodi:docname="Marathon.svg"
   xmlns:inkscape="http://www.inkscape.org/namespaces/inkscape"
   xmlns:sodipodi="http://sodipodi.sourceforge.net/DTD/sodipodi-0.dtd"
   xmlns="http://www.w3.org/2000/svg"
   xmlns:svg="http://www.w3.org/2000/svg"><sodipodi:namedview
     id="namedview7"
     pagecolor="#505050"
     bordercolor="#eeeeee"
     borderopacity="1"
     inkscape:showpageshadow="0"
     inkscape:pageopacity="0"
     inkscape:pagecheckerboard="0"
     inkscape:deskcolor="#505050"
     inkscape:document-units="px"
     showgrid="false"
     inkscape:zoom="1.6191406"
     inkscape:cx="287.807"
     inkscape:cy="242.10374"
     inkscape:window-width="1920"
     inkscape:window-height="1009"
     inkscape:window-x="-8"
     inkscape:window-y="-8"
     inkscape:window-maximized="1"
     inkscape:current-layer="layer1" /><defs
     id="defs2" /><g
     inkscape:label="Capa 1"
     inkscape:groupmode="layer"
     id="layer1"><g
       id="g318"
       transform="matrix(1.2807138,0,0,1.2807138,-47.405176,-87.211134)"><path
         id="path236"
         style="fill:#00ff00;stroke-width:1.13667"
         sodipodi:type="inkscape:offset"
         inkscape:radius="0"
         inkscape:original="M 236.85352 110.24414 A 105.30277 105.30277 0 0 0 131.55078 215.54688 A 105.30277 105.30277 0 0 0 236.85352 320.84961 A 105.30277 105.30277 0 0 0 342.15625 215.54688 A 105.30277 105.30277 0 0 0 236.85352 110.24414 z "
         d="M 236.85352,110.24414 A 105.30277,105.30277 0 0 0 131.55078,215.54688 105.30277,105.30277 0 0 0 236.85352,320.84961 105.30277,105.30277 0 0 0 342.15625,215.54688 105.30277,105.30277 0 0 0 236.85352,110.24414 Z"
         transform="matrix(0.82404686,0,0,0.82404686,41.67512,37.926151)" /><path
         id="path231"
         style="fill:#00ff00;stroke-width:0.968531"
         d="M 236.54492,97.582031 A 171.07841,171.07841 0 0 0 65.466797,268.66016 171.07841,171.07841 0 0 0 221.72266,438.67969 V 319.74609 A 105.30277,105.30277 0 0 1 131.55078,215.54688 105.30277,105.30277 0 0 1 236.85352,110.24414 105.30277,105.30277 0 0 1 342.15625,215.54688 105.30277,105.30277 0 0 1 251.36719,319.81055 V 438.67969 A 171.07841,171.07841 0 0 0 407.62305,268.66016 171.07841,171.07841 0 0 0 236.54492,97.582031 Z" /></g></g></svg>
